<?xml version="1.0" encoding="UTF-8" standalone="no"?>
<!-- Created with Inkscape (http://www.inkscape.org/) -->

<svg
   width="83.009071mm"
   height="52.577999mm"
   viewBox="0 0 83.009071 52.577999"
   version="1.1"
   id="svg5513"
   inkscape:version="1.2.1 (9c6d41e410, 2022-07-14)"
   sodipodi:docname="Ingolstadt Chapter small.svg"
   xmlns:inkscape="http://www.inkscape.org/namespaces/inkscape"
   xmlns:sodipodi="http://sodipodi.sourceforge.net/DTD/sodipodi-0.dtd"
   xmlns="http://www.w3.org/2000/svg"
   xmlns:svg="http://www.w3.org/2000/svg">
  <sodipodi:namedview
     id="namedview5515"
     pagecolor="#505050"
     bordercolor="#eeeeee"
     borderopacity="1"
     inkscape:showpageshadow="0"
     inkscape:pageopacity="0"
     inkscape:pagecheckerboard="0"
     inkscape:deskcolor="#505050"
     inkscape:document-units="mm"
     showgrid="false"
     inkscape:zoom="0.96301207"
     inkscape:cx="343.19404"
     inkscape:cy="116.82097"
     inkscape:window-width="3440"
     inkscape:window-height="1369"
     inkscape:window-x="-8"
     inkscape:window-y="535"
     inkscape:window-maximized="1"
     inkscape:current-layer="layer1" />
  <defs
     id="defs5510" />
  <g
     inkscape:label="Layer 1"
     inkscape:groupmode="layer"
     id="layer1"
     transform="translate(3.5896451,-117.6777)">
    <g
       id="g5431"
       transform="matrix(0.35277777,0,0,-0.35277777,-400.24173,117.86876)">
      <g
         transform="translate(1137.3707,-61.472314)"
         id="g208-4-0-8">
        <path
           inkscape:connector-curvature="0"
           id="path210-7-35-3"
           style="fill:#7c7f80;fill-opacity:1;fill-rule:nonzero;stroke:none"
           d="m 0,0 c 3.894,3.057 76.788,-24.194 76.788,-24.194 l 2.073,-9.926 c 0,0 -50.997,12.3 -55.927,13.587 C 18.003,-19.247 0.064,-11.468 0,0" />
      </g>
      <g
         transform="translate(1138.5545,-58.190914)"
         id="g212-3-9-4">
        <path
           inkscape:connector-curvature="0"
           id="path214-4-6-3"
           style="fill:#060707;fill-opacity:1;fill-rule:nonzero;stroke:none"
           d="m 0,0 h -0.001 c -0.828,0 -2.047,-0.092 -3.062,-0.889 l -1.171,-0.92 0.008,-1.489 c 0.077,-13.897 20.225,-22.16 25.208,-23.46 4.901,-1.28 53.898,-13.098 55.982,-13.601 l 4.674,-1.127 -0.983,4.706 -2.073,9.927 -0.342,1.64 -1.57,0.587 C 69.928,-22.105 10.5,0 0,0 m -0.001,-3.042 c 10.247,10e-4 75.605,-24.433 75.605,-24.433 l 2.073,-9.927 c 0,0 -50.997,12.3 -55.927,13.587 -4.93,1.287 -22.87,9.066 -22.934,20.534 0.207,0.162 0.609,0.239 1.183,0.239" />
      </g>
      <g
         transform="translate(1127.6364,-28.508216)"
         id="g224-1-7-7">
        <path
           inkscape:connector-curvature="0"
           id="path226-2-5-9"
           style="fill:#7c7f80;fill-opacity:1;fill-rule:nonzero;stroke:none"
           d="m 0,0 c 4.436,2.197 70.222,-39.378 70.222,-39.378 v -10.141 c 0,0 -47.406,22.464 -51.969,24.731 C 13.689,-22.52 -2.282,-11.239 0,0" />
      </g>
      <g
         transform="translate(1128.0998,-25.382013)"
         id="g228-3-6-1">
        <path
           inkscape:connector-curvature="0"
           id="path230-7-6-2"
           style="fill:#060707;fill-opacity:1;fill-rule:nonzero;stroke:none"
           d="m 0,0 h -0.001 -0.002 c -0.666,0 -1.275,-0.135 -1.81,-0.4 l -1.335,-0.661 -0.297,-1.46 c -2.765,-13.619 15.269,-25.825 19.88,-28.117 4.537,-2.254 50.084,-23.838 52.021,-24.756 l 4.345,-2.059 v 4.808 10.14 1.677 l -1.417,0.895 c -0.157,0.099 -15.832,9.999 -32.201,19.772 C 5.413,0 1.62,0 0,0 m -0.001,-3.042 c 7.312,0.004 69.759,-39.463 69.759,-39.463 v -10.14 c 0,0 -47.406,22.464 -51.969,24.731 -4.563,2.268 -20.534,13.549 -18.252,24.788 0.114,0.056 0.269,0.084 0.462,0.084" />
      </g>
      <g
         transform="translate(1129.9179,-31.254514)"
         id="g232-1-8-5">
        <path
           inkscape:connector-curvature="0"
           id="path234-5-50-9"
           style="fill:#040606;fill-opacity:1;fill-rule:nonzero;stroke:none"
           d="M 0,0 C -2.475,-0.264 2.408,-11.028 12.675,-16.732 17.851,-19.557 9.192,0.002 0,0" />
      </g>
      <g
         transform="translate(1140.1654,-63.694415)"
         id="g236-3-9-2">
        <path
           inkscape:connector-curvature="0"
           id="path238-2-5-6"
           style="fill:#040606;fill-opacity:1;fill-rule:nonzero;stroke:none"
           d="M 0,0 C -2.368,-0.765 4.611,-10.303 15.828,-13.788 21.472,-15.496 8.997,1.881 0,0" />
      </g>
      <g
         transform="translate(1151.1789,-87.380411)"
         id="g240-8-4-8">
        <path
           inkscape:connector-curvature="0"
           id="path242-1-9-4"
           style="fill:#7c7f80;fill-opacity:1;fill-rule:nonzero;stroke:none"
           d="m 0,0 c 3.402,3.597 79.511,-12.641 79.511,-12.641 l 3.509,-9.514 c 0,0 -52.251,4.669 -57.316,5.217 C 20.638,-16.39 1.749,-11.334 0,0" />
      </g>
      <g
         transform="translate(1154.2195,-83.818211)"
         id="g244-4-0-4">
        <path
           inkscape:connector-curvature="0"
           id="path246-5-9-5"
           style="fill:#060707;fill-opacity:1;fill-rule:nonzero;stroke:none"
           d="m 0,0 h -0.002 c -2.315,0 -4.094,-0.251 -5.249,-1.472 l -1.023,-1.082 0.227,-1.472 c 2.12,-13.734 23.263,-18.945 28.383,-19.499 5.036,-0.545 55.238,-5.031 57.373,-5.222 l 4.789,-0.428 -1.664,4.511 -3.51,9.514 -0.58,1.572 -1.639,0.35 C 74.574,-12.688 14.935,0 0,0 M -0.002,-3.042 C 14.779,-3.041 76.47,-16.203 76.47,-16.203 l 3.51,-9.514 c 0,0 -52.251,4.668 -57.317,5.216 -5.066,0.549 -23.954,5.605 -25.704,16.939 0.339,0.358 1.403,0.52 3.039,0.52" />
      </g>
      <g
         transform="translate(1154.2699,-89.167318)"
         id="g248-4-5-3">
        <path
           inkscape:connector-curvature="0"
           id="path250-2-7-9"
           style="fill:#040606;fill-opacity:1;fill-rule:nonzero;stroke:none"
           d="M 0,0 C -2.23,-1.105 6.076,-9.513 17.683,-11.311 23.517,-12.17 8.623,3.183 0,0" />
      </g>
      <g
         transform="translate(1356.3993,-28.338815)"
         id="g252-9-6-55">
        <path
           inkscape:connector-curvature="0"
           id="path254-7-2-3"
           style="fill:#7c7f80;fill-opacity:1;fill-rule:nonzero;stroke:none"
           d="m 0,0 c -4.472,2.197 -70.792,-39.378 -70.792,-39.378 v -10.141 c 0,0 47.791,22.464 52.391,24.731 C -13.801,-22.52 2.3,-11.239 0,0" />
      </g>
      <g
         transform="translate(1355.9331,-25.212612)"
         id="g256-8-4-2">
        <path
           inkscape:connector-curvature="0"
           id="path258-6-8-9"
           style="fill:#060707;fill-opacity:1;fill-rule:nonzero;stroke:none"
           d="m 0,0 c -1.628,0 -5.441,0 -39.477,-20.156 -16.503,-9.772 -32.307,-19.672 -32.465,-19.771 l -1.426,-0.894 v -1.684 -10.14 -4.791 l 4.336,2.038 c 1.953,0.918 47.869,22.502 52.442,24.756 4.649,2.291 22.826,14.498 20.037,28.126 l -0.3,1.462 -1.34,0.658 C 1.273,-0.133 0.665,0 0,0 m 0,-3.042 c 0.194,0 0.351,-0.028 0.466,-0.084 2.3,-11.239 -13.8,-22.52 -18.401,-24.788 -4.6,-2.267 -52.391,-24.731 -52.391,-24.731 v 10.14 c 0,0 62.954,39.463 70.326,39.463" />
      </g>
      <g
         transform="translate(1354.0992,-31.085218)"
         id="g260-6-3-4">
        <path
           inkscape:connector-curvature="0"
           id="path262-7-7-4"
           style="fill:#040606;fill-opacity:1;fill-rule:nonzero;stroke:none"
           d="M 0,0 C 2.495,-0.264 -2.428,-11.028 -12.778,-16.732 -17.996,-19.557 -9.266,0.002 0,0" />
      </g>
      <g
         transform="translate(1346.5859,-61.302912)"
         id="g264-2-4-6">
        <path
           inkscape:connector-curvature="0"
           id="path266-2-4-1"
           style="fill:#7c7f80;fill-opacity:1;fill-rule:nonzero;stroke:none"
           d="m 0,0 c -3.925,3.057 -77.412,-24.194 -77.412,-24.194 l -2.089,-9.926 c 0,0 51.411,12.3 56.381,13.587 C -18.15,-19.247 -0.064,-11.468 0,0" />
      </g>
      <g
         transform="translate(1345.3931,-58.021609)"
         id="g268-2-2-9">
        <path
           inkscape:connector-curvature="0"
           id="path270-2-2-7"
           style="fill:#060707;fill-opacity:1;fill-rule:nonzero;stroke:none"
           d="m 0,0 c -10.571,0 -70.48,-22.103 -77.277,-24.623 l -1.573,-0.583 -0.346,-1.643 -2.089,-9.926 -0.99,-4.704 4.674,1.119 c 2.101,0.502 51.496,12.321 56.436,13.6 5.021,1.3 25.322,9.561 25.4,23.462 l 0.008,1.497 -1.181,0.92 C 2.048,-0.091 0.829,0 0,0 m 0,-3.042 c 0.579,0 0.984,-0.077 1.193,-0.239 -0.064,-11.468 -18.15,-19.247 -23.12,-20.534 -4.97,-1.287 -56.381,-13.587 -56.381,-13.587 l 2.089,9.927 c 0,0 65.889,24.433 76.219,24.433" />
      </g>
      <g
         transform="translate(1343.7685,-63.525011)"
         id="g272-0-9-5">
        <path
           inkscape:connector-curvature="0"
           id="path274-8-0-5"
           style="fill:#040606;fill-opacity:1;fill-rule:nonzero;stroke:none"
           d="M 0,0 C 2.388,-0.765 -4.649,-10.303 -15.956,-13.788 -21.646,-15.496 -9.07,1.881 0,0" />
      </g>
      <g
         transform="translate(1332.6656,-87.21101)"
         id="g276-3-3-9">
        <path
           inkscape:connector-curvature="0"
           id="path278-8-7-7"
           style="fill:#7c7f80;fill-opacity:1;fill-rule:nonzero;stroke:none"
           d="m 0,0 c -3.429,3.597 -80.157,-12.641 -80.157,-12.641 l -3.538,-9.514 c 0,0 52.676,4.669 57.783,5.217 C -20.805,-16.39 -1.763,-11.334 0,0" />
      </g>
      <g
         transform="translate(1329.6023,-83.64881)"
         id="g280-7-0-4">
        <path
           inkscape:connector-curvature="0"
           id="path282-7-0-7"
           style="fill:#060707;fill-opacity:1;fill-rule:nonzero;stroke:none"
           d="m 0,0 c -15.046,0 -75.171,-12.687 -77.723,-13.227 l -1.638,-0.346 -0.584,-1.57 -3.538,-9.513 -1.679,-4.516 4.799,0.425 c 2.152,0.191 52.762,4.677 57.839,5.222 5.157,0.553 26.457,5.762 28.593,19.495 L 6.3,-2.548 5.265,-1.463 C 4.107,-0.249 2.323,0 0,0 m 0,-3.042 c 1.65,0 2.721,-0.162 3.063,-0.52 -1.763,-11.334 -20.805,-16.39 -25.912,-16.939 -5.107,-0.548 -57.782,-5.216 -57.782,-5.216 l 3.538,9.514 c 0,0 62.192,13.161 77.093,13.161" />
      </g>
      <g
         transform="translate(1329.5494,-88.998013)"
         id="g284-7-3-5">
        <path
           inkscape:connector-curvature="0"
           id="path286-8-24-5"
           style="fill:#040606;fill-opacity:1;fill-rule:nonzero;stroke:none"
           d="M 0,0 C 2.248,-1.105 -6.125,-9.513 -17.826,-11.311 -23.708,-12.17 -8.693,3.183 0,0" />
      </g>
      <g
         transform="translate(1300.1579,-27.630717)"
         id="g288-8-7-3">
        <path
           inkscape:connector-curvature="0"
           id="path290-9-3-3"
           style="fill:#040606;fill-opacity:1;fill-rule:nonzero;stroke:none"
           d="m 0,0 -2.114,5.493 c 0,0 -32.042,-13.567 -55.166,8.786 -23.231,-22.353 -55.33,-8.786 -55.33,-8.786 L -114.734,0 c 6.253,-11.154 6.591,-16.901 6.422,-32.956 -0.41,-27.158 4.636,-38.416 15.38,-53.744 10.744,-15.327 35.66,-24.168 35.66,-24.168 h 0.076 c 0,0 26.58,10.986 35.495,24.168 8.916,13.183 11.271,21.971 11.271,21.971 0,0 4.206,15.717 4.038,31.773 C -6.561,-16.901 -6.224,-11.154 0,0" />
      </g>
      <g
         transform="translate(1199.7344,-35.509414)"
         id="g292-0-5-2">
        <path
           inkscape:connector-curvature="0"
           id="path294-1-2-8"
           style="fill:#040606;fill-opacity:1;fill-rule:nonzero;stroke:none"
           d="m 0,0 c 2.16,-7.382 2.224,-14.458 2.111,-25.183 -0.38,-25.188 4.059,-34.332 13.569,-47.898 6.189,-8.829 19.621,-15.842 27.292,-19.097 9.431,4.366 22.849,12.131 27.467,18.959 7.678,11.353 9.895,18.955 9.916,19.032 0.015,0.057 3.828,14.587 3.677,29.005 -0.112,10.725 -0.049,17.798 2.103,25.18 -3.04,-0.426 -6.398,-0.705 -9.972,-0.706 -12.344,0 -23.605,3.421 -33.032,9.969 C 33.673,2.714 22.383,-0.707 10.011,-0.708 6.421,-0.708 3.051,-0.427 0,0 M 45.213,-112.989 H 41.43 l -1.623,0.575 c -2.858,1.015 -28.279,10.413 -40.504,27.852 -11.999,17.118 -17.632,30.407 -17.19,59.635 0.164,15.605 -0.202,19.096 -5.146,27.915 l -2.302,4.106 7.542,19.505 9.501,-4.017 c 0.038,-0.016 8.105,-3.29 18.302,-3.29 10.441,10e-4 19.256,3.39 26.2,10.072 l 6.95,6.687 6.935,-6.703 c 6.901,-6.673 15.673,-10.056 26.068,-10.056 10.16,10e-4 18.21,3.272 18.29,3.306 l 9.467,3.904 7.519,-19.405 -2.283,-4.092 c -4.925,-8.825 -5.289,-12.318 -5.126,-27.978 0.181,-17.225 -4.189,-33.766 -4.376,-34.462 -0.287,-1.07 -3.068,-10.824 -12.648,-24.989 -10.303,-15.233 -36.953,-26.565 -39.958,-27.807 z" />
      </g>
      <g
         transform="translate(1242.8864,-6.3076082)"
         id="g296-6-3-0">
        <path
           inkscape:connector-curvature="0"
           id="path298-14-5-7"
           style="fill:#b3a154;fill-opacity:1;fill-rule:nonzero;stroke:none"
           d="m 0,0 -3.524,-3.391 c -7.895,-7.596 -17.859,-11.448 -29.617,-11.448 -11.389,0 -20.136,3.642 -20.223,3.679 l -4.817,2.036 -1.886,-4.878 -2.124,-5.493 -0.861,-2.226 1.167,-2.081 c 5.728,-10.218 5.936,-15.093 5.775,-30.424 -0.209,-13.837 0.944,-23.985 3.74,-32.881 2.794,-8.892 7.04,-15.956 12.558,-23.826 11.541,-16.465 37.036,-25.653 38.116,-26.036 l 0.823,-0.292 H 0 0.076 1.082 l 0.931,0.384 c 1.142,0.473 28.099,11.732 37.758,26.014 9.286,13.73 11.863,23.106 11.968,23.498 0.18,0.671 4.383,16.58 4.21,33.139 -0.161,15.335 0.047,20.211 5.75,30.432 l 1.158,2.075 -0.854,2.217 -2.114,5.493 -1.882,4.891 -4.826,-2.043 c -0.078,-0.033 -8.927,-3.678 -20.17,-3.678 -11.719,0 -21.643,3.849 -29.495,11.44 z m -0.008,-7.044 c 10.445,-10.097 22.709,-12.865 33.019,-12.865 12.513,0 22.146,4.079 22.146,4.079 l 2.115,-5.493 c -6.225,-11.154 -6.561,-16.901 -6.393,-32.956 0.168,-16.056 -4.037,-31.773 -4.037,-31.773 0,0 -2.355,-8.789 -11.271,-21.971 -8.916,-13.182 -35.495,-24.168 -35.495,-24.168 H 0 c 0,0 -24.916,8.84 -35.661,24.168 -10.744,15.328 -15.789,26.586 -15.379,53.744 0.169,16.055 -0.169,21.802 -6.422,32.956 l 2.123,5.493 c 0,0 9.649,-4.079 22.198,-4.079 10.336,0 22.64,2.769 33.133,12.865" />
      </g>
      <g
         transform="translate(1302.7263,-80.562011)"
         id="g300-8-7-8">
        <path
           inkscape:connector-curvature="0"
           id="path302-8-4-4"
           style="fill:#040606;fill-opacity:1;fill-rule:nonzero;stroke:none"
           d="m 0,0 c 0,0 7.183,-1.859 10.309,2.366 3.127,4.225 2.451,6.169 2.451,6.169 0,0 2.366,2.535 -0.507,6.845 -2.873,4.309 -6.084,4.478 -6.084,4.478 0,0 -1.606,4.394 -10.563,9.295 0.676,0.423 1.183,3.212 1.183,3.212 0,0 -1.268,3.802 -10.732,6.506 -7.69,4.563 -19.858,8.282 -19.858,8.282 0,0 -2.028,5.07 -16.394,7.267 -14.365,2.197 -18.59,2.704 -18.59,2.704 0,0 -1.014,-3.127 0.845,-5.662 -3.211,0.592 -16.225,3.38 -16.225,3.38 0,0 -2.112,-5.746 -0.591,-8.703 0,0 -25.351,-1.268 -24.168,-37.435 0,0 -1.521,-43.981 36.843,-60.524 0.169,20.807 13.859,23.512 13.859,23.512 0,0 20.618,5.239 17.576,-13.69 0,0 32.28,-3.211 34.308,22.14 C -2.62,-6.338 0,0 0,0" />
      </g>
      <g
         transform="translate(1222.3641,-30.451811)"
         id="g304-6-0-9">
        <path
           inkscape:connector-curvature="0"
           id="path306-9-1-3"
           style="fill:#262628;fill-opacity:1;fill-rule:nonzero;stroke:none"
           d="m 0,0 c 0,0 16.394,-2.873 22.647,-3.211 6.253,-0.338 13.52,-5.239 15.717,-7.436 2.197,-2.197 -0.338,5.915 -3.042,7.436 -2.704,1.521 11.831,-2.197 20.788,-7.098 l -2.197,-0.713 c 0,0 13.689,-2.329 18.928,-7.4 -1.521,-1.859 -3.38,-3.38 -3.38,-3.38 0,0 6.423,-2.535 10.986,-6.929 H 78.25 c 0,0 5.746,-2.197 9.633,-6.929 -3.549,-1.835 -9.971,1.183 -9.971,1.183 0,0 -5.217,-2.535 -2.778,-7.605 7.003,2.197 7.003,-1.352 7.003,-1.352 0,0 -2.366,-7.71 -12,-4.024 -9.633,3.686 -20.956,8.756 -28.224,3.347 -7.267,-5.408 -11.999,-10.985 -11.999,-10.985 0,0 8.45,-15.183 24.675,-20.45 10.14,-2.028 14.534,2.705 14.534,2.705 0,0 -2.366,-13.69 -21.125,-13.69 -6.085,15.211 -23.323,18.591 -23.323,18.591 0,0 -5.746,10.478 -0.761,21.632 -6.506,-7.436 -4.757,-17.914 -4.757,-17.914 L 5.746,-54.42 c 0,0 -0.169,8.45 3.718,16.394 3.887,7.943 3.718,14.196 3.718,14.196 0,0 10.944,-4.394 16.732,4.056 -12.337,-3.718 -19.943,2.704 -19.943,2.704 0,0 -13.351,3.55 -9.971,17.07" />
      </g>
      <g
         transform="translate(1311.9371,-71.182211)"
         id="g308-4-3-4">
        <path
           inkscape:connector-curvature="0"
           id="path310-8-9-0"
           style="fill:#181819;fill-opacity:1;fill-rule:nonzero;stroke:none"
           d="m 0,0 -3.549,-1.648 c 0,0 -1.268,-3.422 -2.155,-4.309 C -6.591,-6.845 -0.634,-5.197 0,0" />
      </g>
      <g
         transform="translate(1256.9258,-50.648015)"
         id="g312-9-5-7">
        <path
           inkscape:connector-curvature="0"
           id="path314-5-5-5"
           style="fill:#040606;fill-opacity:1;fill-rule:nonzero;stroke:none"
           d="m 0,0 c 0,0 11.408,5.45 18.506,0 3.549,-3.676 4.456,-2.939 7.732,-3.296 3.276,-0.357 7.352,0.254 3.93,-3.549 8.746,-2.915 8.746,-5.704 8.746,-5.704 0,0 -2.536,-6.971 -0.761,-9.506 1.775,-2.535 -5.45,3.169 -7.098,7.478 -1.648,4.31 -10.521,0.127 -10.521,0.127 0,0 -5.957,-2.155 -10.647,1.901 5.957,0.127 9.57,1.036 9.57,2.42 0,1.383 -7.669,-5.589 -14.387,5.946 5.958,-1.014 6.972,1.648 12.042,0.507 0,0 -1.541,4.167 -17.112,3.676" />
      </g>
      <g
         transform="translate(1225.1104,-33.662914)"
         id="g316-1-4-2">
        <path
           inkscape:connector-curvature="0"
           id="path318-7-97-2"
           style="fill:#040606;fill-opacity:1;fill-rule:nonzero;stroke:none"
           d="m 0,0 c 0,0 8.239,-4.183 13.309,-4.563 5.07,-0.38 11.028,-0.887 15.337,-5.451 1.902,-4.549 -9.506,-5.83 -9.506,-5.83 0,0 -15.337,3.802 -19.14,15.844" />
      </g>
      <g
         transform="translate(1272.6433,-56.351915)"
         id="g320-5-9-3">
        <path
           inkscape:connector-curvature="0"
           id="path322-2-0-2"
           style="fill:#eaed21;fill-opacity:1;fill-rule:nonzero;stroke:none"
           d="m 0,0 c 0,0 -3.549,0.127 -4.563,-0.634 -1.014,-0.76 2.028,-3.422 5.577,-2.408 0,0 -2.408,1.014 -1.014,3.042" />
      </g>
      <g
         transform="translate(1226.2512,-124.92601)"
         id="g324-3-64-9">
        <path
           inkscape:connector-curvature="0"
           id="path326-0-9-3"
           style="fill:#262628;fill-opacity:1;fill-rule:nonzero;stroke:none"
           d="m 0,0 c 0,0 -8.871,12.253 -4.435,24.506 3.294,8.171 14.829,3.887 14.829,3.887 0,0 -13.048,5.761 -14.829,8.873 0,10.58 8.998,28.039 8.998,28.039 0,0 2.689,4.156 -4.233,9.607 -6.921,5.45 -7.935,10.769 -7.935,10.769 0,0 -24.884,-4.22 -18.253,-46.641 C -19.828,11.367 0,0 0,0" />
      </g>
      <g
         transform="translate(1268.3894,-67.379508)"
         id="g328-1-6-4">
        <path
           inkscape:connector-curvature="0"
           id="path330-8-7-0"
           style="fill:#040606;fill-opacity:1;fill-rule:nonzero;stroke:none"
           d="M 0,0 C 0,0 -10.703,-4.817 -17.548,-15.971 -10.957,0 -7.408,0 -7.408,0 c 0,0 3.641,3.311 7.408,0" />
      </g>
      <g
         transform="translate(1359.3855,-95.39561)"
         id="g332-6-3-4">
        <path
           inkscape:connector-curvature="0"
           id="path334-8-3-8"
           style="fill:#ee252b;fill-opacity:1;fill-rule:nonzero;stroke:none"
           d="m 0,0 c 0,0 -7.352,-9.003 -16.225,0 -8.872,9.003 -10.52,8.496 -10.52,8.496 0,0 -4.69,2.662 -11.028,-1.775 -6.338,-4.436 -8.873,-1.521 -8.873,-1.521 0,0 -3.675,2.916 1.014,5.324 2.691,0.38 4.31,-1.141 4.31,-1.141 0,0 -1.859,4.402 -8.45,4.673 -6.591,0.271 -11.155,-6.095 -11.155,-6.095 0,0 -4.711,-7.641 -12.168,-1.578 2.457,-2.085 5.556,-1.07 8.028,0.254 2.471,1.324 2.535,4.732 2.535,4.732 0.791,2.787 -5.413,-1.968 -5.413,-1.968 0,0 -1.163,2.199 -10.727,2.559 -9.564,0.361 -11.268,4.547 -11.07,7.437 -2.925,0 -6,-4.225 -6,-4.225 0,0 -2.379,-10.548 13.943,-17.746 11.831,-6.507 21.126,-3.803 21.126,-3.803 0,0 4.817,3.114 8.535,-2.119 0.084,7.866 -9.127,7.528 -9.127,7.528 0,0 6.93,4.056 13.352,-0.676 6.422,-4.733 8.655,-7.521 12.989,-8.197 4.334,-0.676 8.644,-0.507 12.869,3.295 0,0 -7.775,-3.295 -11.155,0.93 -2.366,4.479 2.958,5.616 2.958,5.616 0,0 2.789,0.637 6.76,-2.489 3.972,-3.127 8.112,-5.155 10.732,-5.409 C -10.14,-8.151 -3.634,-7.313 0,0" />
      </g>
      <g
         transform="translate(1336.7809,-93.913414)"
         id="g336-0-6-3">
        <path
           inkscape:connector-curvature="0"
           id="path338-6-6-6"
           style="fill:#e6ec25;fill-opacity:1;fill-rule:nonzero;stroke:none"
           d="m 0,0 c -1.268,1.775 -3.127,4.648 -7.859,5.577 -3.887,0.93 -6.76,-2.535 -11.915,-4.478 -3.802,-1.522 -6.549,1.605 -7.267,3.126 -0.718,1.521 -0.507,4.056 2.451,5.915 -5.334,1.874 -6.423,0 -12.929,-5.915 -6.507,-5.915 -11.915,-3.126 -11.915,-3.126 0,0 -0.761,-5.662 5.408,-6.676 6.169,-1.014 7.014,1.859 12.168,-0.592 0,0 -1.859,2.958 -9.633,3.296 -1.024,0.044 0.863,1.216 3.465,2.619 7.858,2.536 13.013,-1.228 13.013,-1.228 0,0 6.253,-4.687 10.986,-4.856 -5.071,2.958 -0.93,6 -0.93,6 0,0 6.507,3.549 13.436,-2.282 C 5.408,-8.45 10.225,-6.507 10.225,-6.507 5.493,-6.591 1.268,-1.775 0,0" />
      </g>
      <g
         transform="translate(1285.8257,-93.490918)"
         id="g340-4-5-9">
        <path
           inkscape:connector-curvature="0"
           id="path342-2-6-1"
           style="fill:#ffffff;fill-opacity:1;fill-rule:nonzero;stroke:none"
           d="m 0,0 c 0,0 2.873,-7.605 -2.535,-9.718 -5.408,-2.112 -7.943,1.352 -7.943,1.352 V -5.2 c 0,0 -3.042,-1.567 -4.648,0 -1.606,1.566 0,3.341 0,3.341 0,0 -2.873,-1.268 -4.31,-0.254 -1.436,1.014 -1.183,3.212 -1.183,3.212 0,0 -5.859,1.014 -6.098,5.492 4.746,-0.994 10.577,-2.028 10.577,-2.028 l -0.676,-2.788 h 5.155 l -0.676,-1.944 5.154,-0.254 -1.267,-3.464 c 0,0 5.83,0.507 8.45,3.887" />
      </g>
      <g
         transform="translate(1271.5447,-75.795815)"
         id="g344-9-5-9">
        <path
           inkscape:connector-curvature="0"
           id="path346-2-6-3"
           style="fill:#ffffff;fill-opacity:1;fill-rule:nonzero;stroke:none"
           d="m 0,0 3.465,-2.654 2.619,1.183 3.887,-3.718 3.211,1.437 1.099,-2.282 3.38,-0.507 -1.521,-4.985 c 0,0 2.366,-1.014 8.155,3.042 3.546,0.397 3.844,-1.521 3.844,-1.521 0,0 4.673,1.886 5.953,4.563 0,0.929 -3.84,0.591 -3.84,0.591 0,0 -5.662,-2.366 -12.253,0.676 C 11.408,-1.133 7.267,0.001 6.084,-0.355 4.901,-0.71 2.873,1.555 0,0" />
      </g>
      <g
         transform="translate(1242.0282,-100.53731)"
         id="g376-2-9-7">
        <path
           inkscape:connector-curvature="0"
           id="path378-4-6-3"
           style="fill:#262628;fill-opacity:1;fill-rule:nonzero;stroke:none"
           d="M 0,0 C 0,0 -7.829,-2.08 -11.015,-26.565 -12.012,-21.347 -16.918,1.976 0,0" />
      </g>
    </g>
  </g>
</svg>
