<?xml version="1.0" encoding="UTF-8" standalone="no"?>
<!-- Created with Inkscape (http://www.inkscape.org/) -->

<svg
   xmlns:dc="http://purl.org/dc/elements/1.1/"
   xmlns:cc="http://creativecommons.org/ns#"
   xmlns:rdf="http://www.w3.org/1999/02/22-rdf-syntax-ns#"
   xmlns:svg="http://www.w3.org/2000/svg"
   xmlns="http://www.w3.org/2000/svg"
   xmlns:sodipodi="http://sodipodi.sourceforge.net/DTD/sodipodi-0.dtd"
   xmlns:inkscape="http://www.inkscape.org/namespaces/inkscape"
   version="1.1"
   id="svg2"
   xml:space="preserve"
   width="394.88724"
   height="469.97986"
   viewBox="0 0 394.88724 469.97986"
   sodipodi:docname="HOG Ingolstadt Chapter transparent.svg"
   inkscape:version="0.92.3 (2405546, 2018-03-11)"><metadata
     id="metadata8"><rdf:RDF><cc:Work
         rdf:about=""><dc:format>image/svg+xml</dc:format><dc:type
           rdf:resource="http://purl.org/dc/dcmitype/StillImage" /><dc:title /></cc:Work></rdf:RDF></metadata><defs
     id="defs6"><clipPath
       clipPathUnits="userSpaceOnUse"
       id="clipPath18"><path
         d="M 0,283.465 H 240.945 V 0 H 0 Z"
         id="path16"
         inkscape:connector-curvature="0" /></clipPath><clipPath
       clipPathUnits="userSpaceOnUse"
       id="clipPath46"><path
         d="m 51.319,216.123 21.8,-17.675 c 8.816,10.955 26.497,19.271 46.901,19.271 v 0 c 19.899,0 37.226,-8.636 46.25,-19.15 v 0 l 22.527,17.868 c -12.568,13.881 -41.511,28.202 -68.163,28.202 v 0 c -26.806,0 -56.801,-14.501 -69.315,-28.516"
         id="path44"
         inkscape:connector-curvature="0" /></clipPath><clipPath
       clipPathUnits="userSpaceOnUse"
       id="clipPath74"><path
         d="M 0,283.465 H 240.945 V 0 H 0 Z"
         id="path72"
         inkscape:connector-curvature="0" /></clipPath><clipPath
       clipPathUnits="userSpaceOnUse"
       id="clipPath106"><path
         d="m 120.52,62.437 c -19.898,0 -37.227,8.636 -46.25,19.15 v 0 L 52.333,63.283 C 64.901,49.402 93.254,35.517 119.905,35.517 v 0 c 26.808,0 57.309,14.501 69.823,28.515 v 0 L 167.443,82.393 C 158.626,71.438 140.924,62.437 120.52,62.437"
         id="path104"
         inkscape:connector-curvature="0" /></clipPath><clipPath
       clipPathUnits="userSpaceOnUse"
       id="clipPath198"><path
         d="M 0,283.465 H 240.945 V 0 H 0 Z"
         id="path196"
         inkscape:connector-curvature="0" /></clipPath></defs><sodipodi:namedview
     pagecolor="#ffffff"
     bordercolor="#666666"
     borderopacity="1"
     objecttolerance="10"
     gridtolerance="10"
     guidetolerance="10"
     inkscape:pageopacity="0"
     inkscape:pageshadow="2"
     inkscape:window-width="3440"
     inkscape:window-height="1369"
     id="namedview4"
     showgrid="false"
     inkscape:zoom="1.2488314"
     inkscape:cx="-30.104323"
     inkscape:cy="231.65974"
     inkscape:window-x="-8"
     inkscape:window-y="535"
     inkscape:window-maximized="1"
     inkscape:current-layer="g10" /><g
     id="g10"
     inkscape:groupmode="layer"
     inkscape:label="WILDCATS PATCH 10x8,5"
     transform="matrix(1.3333333,0,0,-1.3333333,-58.556423,490.9899)"><g
       id="g1487"
       transform="matrix(1.2586647,0,0,1.2586647,41.151101,13.391123)"
       inkscape:export-xdpi="120.83"
       inkscape:export-ydpi="120.83"><g
         id="g12"><g
           clip-path="url(#clipPath18)"
           id="g14"><g
             transform="translate(222.0628,141.5675)"
             id="g20"><path
               inkscape:connector-curvature="0"
               id="path22"
               style="fill:#040606;fill-opacity:1;fill-rule:nonzero;stroke:none"
               d="m 0,0 c 0,-70.424 -45.139,-127.515 -100.82,-127.515 -55.681,0 -100.82,57.091 -100.82,127.515 0,70.424 45.139,127.515 100.82,127.515 C -45.139,127.515 0,70.424 0,0" /></g><g
             transform="translate(37.1392,170.7165)"
             id="g24"><path
               inkscape:connector-curvature="0"
               id="path26"
               style="fill:#040606;fill-opacity:1;fill-rule:nonzero;stroke:none"
               d="M 0,0 C 4.425,17.428 15.851,33.89 27.997,45.181 L 3.49,63.923 C -10.343,51.982 -19.596,36.023 -25.817,19.276 l 20.038,7.32 z" /></g><g
             transform="translate(40.4742,239.8645)"
             id="g28"><path
               inkscape:connector-curvature="0"
               id="path30"
               style="fill:#b3a154;fill-opacity:1;fill-rule:nonzero;stroke:none"
               d="M 0,0 -2.496,-2.154 C -15.445,-13.332 -25.693,-28.912 -32.954,-48.46 l -3.06,-8.238 8.254,3.016 15.67,5.724 4.791,-22.051 3.657,-16.83 4.238,16.693 c 3.803,14.974 13.832,31.127 26.828,43.208 l 3.52,3.273 -3.818,2.92 L 2.619,-2.003 Z M 0.155,-5.225 24.662,-23.967 C 12.516,-35.258 1.09,-51.72 -3.335,-69.148 l -5.779,26.596 -20.038,-7.32 c 6.221,16.748 15.474,32.706 29.307,44.647" /></g><g
             transform="translate(203.961,170.7165)"
             id="g32"><path
               inkscape:connector-curvature="0"
               id="path34"
               style="fill:#040606;fill-opacity:1;fill-rule:nonzero;stroke:none"
               d="m 0,0 c -4.445,17.428 -15.924,33.89 -28.126,45.181 l 24.62,18.742 C 10.391,51.982 19.686,36.023 25.936,19.276 l -20.131,7.32 z" /></g><g
             transform="translate(200.6096,239.855)"
             id="g36"><path
               inkscape:connector-curvature="0"
               id="path38"
               style="fill:#b3a154;fill-opacity:1;fill-rule:nonzero;stroke:none"
               d="m 0,0 -2.611,-1.988 -24.62,-18.742 -3.843,-2.925 3.545,-3.279 c 13.056,-12.082 23.131,-28.234 26.95,-43.207 l 4.237,-16.612 3.656,16.75 4.816,22.063 15.771,-5.735 8.259,-3.003 -3.073,8.233 C 25.792,-28.896 15.498,-13.317 2.489,-2.139 Z m -0.154,-5.215 c 13.897,-11.941 23.191,-27.9 29.441,-44.648 l -20.13,7.32 -5.806,-26.595 c -4.445,17.427 -15.923,33.89 -28.126,45.181 l 24.621,18.742" /></g></g></g><g
         id="g40"><g
           clip-path="url(#clipPath46)"
           id="g42"><g
             transform="translate(120.0769,98.1477)"
             id="g48"><path
               inkscape:connector-curvature="0"
               id="path50"
               style="fill:#ee252b;fill-opacity:1;fill-rule:nonzero;stroke:none"
               d="m 0,0 c -34.837,0 -63.18,26.98 -63.18,60.143 0,33.162 28.343,60.142 63.18,60.142 34.838,0 63.18,-26.98 63.18,-60.142 C 63.18,26.98 34.838,0 0,0 m 0,124.912 c -37.578,0 -68.041,-28.998 -68.041,-64.769 0,-35.772 30.463,-64.77 68.041,-64.77 37.578,0 68.041,28.998 68.041,64.77 0,35.771 -30.463,64.769 -68.041,64.769" /></g><g
             transform="translate(168.1887,112.4909)"
             id="g52"><path
               inkscape:connector-curvature="0"
               id="path54"
               style="fill:#ffffff;fill-opacity:1;fill-rule:nonzero;stroke:none"
               d="m 0,0 c -12.851,-12.233 -29.938,-18.971 -48.112,-18.971 -18.174,0 -35.261,6.738 -48.112,18.971 -12.851,12.233 -19.929,28.499 -19.929,45.8 0,17.3 7.078,33.565 19.929,45.799 12.851,12.233 29.938,18.97 48.112,18.97 18.174,0 35.261,-6.737 48.112,-18.97 C 12.851,79.365 19.929,63.1 19.929,45.8 19.929,28.499 12.851,12.234 0,0 m 3.438,94.871 c -13.77,13.107 -32.077,20.326 -51.55,20.326 -19.473,0 -37.78,-7.219 -51.549,-20.326 -13.77,-13.108 -21.353,-30.535 -21.353,-49.072 0,-18.536 7.583,-35.964 21.353,-49.071 13.769,-13.107 32.076,-20.326 51.549,-20.326 19.473,0 37.78,7.219 51.55,20.326 13.769,13.107 21.352,30.535 21.352,49.071 0,18.537 -7.583,35.964 -21.352,49.072" /></g><g
             transform="translate(178.5013,102.6748)"
             id="g56"><path
               inkscape:connector-curvature="0"
               id="path58"
               style="fill:#ee252b;fill-opacity:1;fill-rule:nonzero;stroke:none"
               d="m 0,0 c -15.606,-14.856 -36.355,-23.037 -58.424,-23.037 -22.07,0 -42.819,8.181 -58.425,23.037 -15.605,14.855 -24.2,34.606 -24.2,55.616 0,21.009 8.595,40.76 24.2,55.615 15.606,14.855 36.355,23.037 58.425,23.037 22.069,0 42.818,-8.182 58.424,-23.037 C 15.605,96.375 24.2,76.624 24.2,55.616 24.2,34.607 15.605,14.856 0,0 m 3.438,114.503 c -16.525,15.73 -38.495,24.392 -61.862,24.392 -23.369,0 -45.338,-8.662 -61.862,-24.392 -16.524,-15.729 -25.624,-36.642 -25.624,-58.887 0,-22.246 9.1,-43.159 25.624,-58.888 16.523,-15.73 38.493,-24.392 61.862,-24.392 23.367,0 45.337,8.662 61.862,24.392 16.523,15.73 25.623,36.643 25.623,58.888 0,22.244 -9.1,43.157 -25.623,58.887" /></g><g
             transform="translate(171.6262,109.2188)"
             id="g60"><path
               inkscape:connector-curvature="0"
               id="path62"
               style="fill:#ee252b;fill-opacity:1;fill-rule:nonzero;stroke:none"
               d="m 0,0 c -13.77,-13.107 -32.077,-20.326 -51.549,-20.326 -19.473,0 -37.781,7.219 -51.55,20.326 -13.769,13.107 -21.352,30.535 -21.352,49.072 0,18.537 7.583,35.964 21.352,49.071 13.769,13.107 32.077,20.326 51.55,20.326 19.472,0 37.779,-7.219 51.549,-20.326 C 13.77,85.035 21.353,67.608 21.353,49.072 21.353,30.535 13.77,13.108 0,0 m 3.438,101.415 c -14.688,13.981 -34.216,21.681 -54.987,21.681 -20.772,0 -40.3,-7.7 -54.987,-21.681 -14.688,-13.981 -22.776,-32.57 -22.776,-52.343 0,-19.773 8.088,-38.363 22.776,-52.344 14.687,-13.982 34.215,-21.682 54.987,-21.682 20.771,0 40.299,7.7 54.987,21.682 14.687,13.982 22.776,32.571 22.776,52.344 0,19.772 -8.089,38.361 -22.776,52.343" /></g><g
             transform="translate(175.0638,105.9468)"
             id="g64"><path
               inkscape:connector-curvature="0"
               id="path66"
               style="fill:#ffffff;fill-opacity:1;fill-rule:nonzero;stroke:none"
               d="m 0,0 c -14.688,-13.982 -34.216,-21.682 -54.987,-21.682 -20.771,0 -40.299,7.7 -54.987,21.682 -14.687,13.981 -22.776,32.571 -22.776,52.344 0,19.773 8.089,38.362 22.776,52.343 14.688,13.982 34.216,21.681 54.987,21.681 20.771,0 40.299,-7.699 54.987,-21.681 C 14.687,90.705 22.776,72.116 22.776,52.344 22.776,32.571 14.687,13.982 0,0 m 3.438,107.959 c -15.607,14.855 -36.355,23.037 -58.425,23.037 -22.07,0 -42.819,-8.182 -58.424,-23.037 -15.606,-14.855 -24.2,-34.606 -24.2,-55.615 0,-21.01 8.594,-40.761 24.2,-55.616 15.605,-14.856 36.354,-23.037 58.424,-23.037 22.07,0 42.818,8.181 58.425,23.037 15.605,14.856 24.199,34.607 24.199,55.616 0,21.008 -8.594,40.759 -24.199,55.615" /></g></g></g><g
         id="g68"><g
           clip-path="url(#clipPath74)"
           id="g70"><g
             transform="translate(203.8461,113.09)"
             id="g76"><path
               inkscape:connector-curvature="0"
               id="path78"
               style="fill:#060707;fill-opacity:1;fill-rule:nonzero;stroke:none"
               d="M 0,0 C -4.425,-17.428 -15.851,-33.89 -27.997,-45.181 L -3.49,-63.923 c 13.833,11.941 23.086,27.9 29.307,44.647 l -20.038,-7.32 z" /></g><g
             transform="translate(204.1531,130.7808)"
             id="g80"><path
               inkscape:connector-curvature="0"
               id="path82"
               style="fill:#b3a154;fill-opacity:1;fill-rule:nonzero;stroke:none"
               d="M 0,0 -4.238,-16.693 C -8.041,-31.667 -18.069,-47.82 -31.066,-59.901 l -3.52,-3.273 3.818,-2.92 24.507,-18.742 2.619,-2.003 2.496,2.155 c 12.949,11.178 23.197,26.757 30.458,46.305 l 3.06,8.238 -8.254,-3.015 -15.67,-5.725 -4.791,22.051 z m -0.307,-17.691 5.779,-26.596 20.038,7.321 C 19.289,-53.714 10.036,-69.673 -3.797,-81.614 l -24.507,18.742 c 12.146,11.291 23.572,27.754 27.997,45.181" /></g><g
             transform="translate(37.0243,113.09)"
             id="g84"><path
               inkscape:connector-curvature="0"
               id="path86"
               style="fill:#040606;fill-opacity:1;fill-rule:nonzero;stroke:none"
               d="M 0,0 C 4.445,-17.428 15.924,-33.89 28.126,-45.181 L 3.506,-63.923 c -13.897,11.941 -23.192,27.9 -29.442,44.647 l 20.131,-7.32 z" /></g><g
             transform="translate(36.7173,130.704)"
             id="g88"><path
               inkscape:connector-curvature="0"
               id="path90"
               style="fill:#b3a154;fill-opacity:1;fill-rule:nonzero;stroke:none"
               d="m 0,0 -3.656,-16.749 -4.816,-22.064 -15.771,5.735 -8.259,3.004 3.073,-8.234 c 7.295,-19.548 17.59,-35.128 30.598,-46.306 l 2.489,-2.138 2.612,1.987 24.62,18.742 3.842,2.925 -3.544,3.28 C 18.132,-47.737 8.057,-31.585 4.237,-16.611 Z m 0.307,-17.614 c 4.445,-17.428 15.924,-33.89 28.126,-45.181 L 3.813,-81.537 c -13.897,11.941 -23.192,27.899 -29.442,44.647 l 20.131,-7.32 5.805,26.596" /></g><g
             transform="translate(102.819,242.5842)"
             id="g92"><path
               inkscape:connector-curvature="0"
               id="path94"
               style="fill:#3f84bf;fill-opacity:1;fill-rule:nonzero;stroke:none"
               d="m 0,0 c -21.184,-4.481 -41.646,-15.614 -51.332,-26.461 l 22.285,-18.361 c 6.978,8.669 19.499,16.894 34.541,19.623 z" /></g><g
             transform="translate(167.4428,82.3936)"
             id="g96"><path
               inkscape:connector-curvature="0"
               id="path98"
               style="fill:#ffffff;fill-opacity:1;fill-rule:nonzero;stroke:none"
               d="m 0,0 c -8.817,-10.955 -26.519,-19.957 -46.922,-19.957 -19.899,0 -37.227,8.637 -46.251,19.15 v 0 l -21.937,-18.304 c 12.568,-13.88 40.922,-27.766 67.573,-27.766 26.807,0 57.308,14.501 69.822,28.516 z" /></g></g></g><g
         id="g100"><g
           clip-path="url(#clipPath106)"
           id="g102"><g
             transform="translate(87.0351,67.9677)"
             id="g108"><path
               inkscape:connector-curvature="0"
               id="path110"
               style="fill:#3e84bf;fill-opacity:1;fill-rule:nonzero;stroke:none"
               d="M 0,0 -5.716,9.548 -11.432,0 -5.716,-9.548 Z" /></g><g
             transform="translate(92.7511,77.5155)"
             id="g112"><path
               inkscape:connector-curvature="0"
               id="path114"
               style="fill:#3e84bf;fill-opacity:1;fill-rule:nonzero;stroke:none"
               d="M 0,0 -5.716,-9.548 0,-19.096 5.716,-9.548 Z" /></g><g
             transform="translate(109.899,67.9677)"
             id="g116"><path
               inkscape:connector-curvature="0"
               id="path118"
               style="fill:#3e84bf;fill-opacity:1;fill-rule:nonzero;stroke:none"
               d="M 0,0 -5.716,9.548 -11.432,0 -5.716,-9.548 Z" /></g><g
             transform="translate(121.3309,66.6882)"
             id="g120"><path
               inkscape:connector-curvature="0"
               id="path122"
               style="fill:#3e84bf;fill-opacity:1;fill-rule:nonzero;stroke:none"
               d="M 0,0 -5.625,9.395 -11.249,0 l 5.242,-8.756 -5.424,-9.06 5.716,-9.548 5.716,9.548 -5.333,8.909 z" /></g><g
             transform="translate(132.7628,67.9677)"
             id="g124"><path
               inkscape:connector-curvature="0"
               id="path126"
               style="fill:#3e84bf;fill-opacity:1;fill-rule:nonzero;stroke:none"
               d="M 0,0 -5.716,9.548 -11.432,0 -5.716,-9.548 0,0 5.716,-9.548 11.432,0 5.716,9.548 Z" /></g><g
             transform="translate(144.1947,67.9677)"
             id="g128"><path
               inkscape:connector-curvature="0"
               id="path130"
               style="fill:#3e84bf;fill-opacity:1;fill-rule:nonzero;stroke:none"
               d="M 0,0 5.716,-9.548 11.432,0 5.716,9.548 Z" /></g><g
             transform="translate(155.6267,67.9677)"
             id="g132"><path
               inkscape:connector-curvature="0"
               id="path134"
               style="fill:#3e84bf;fill-opacity:1;fill-rule:nonzero;stroke:none"
               d="M 0,0 5.716,-9.548 11.432,0 5.716,9.548 Z" /></g><g
             transform="translate(167.0586,67.9677)"
             id="g136"><path
               inkscape:connector-curvature="0"
               id="path138"
               style="fill:#3e84bf;fill-opacity:1;fill-rule:nonzero;stroke:none"
               d="M 0,0 5.716,-9.548 11.432,0 5.716,9.548 Z" /></g><g
             transform="translate(98.4683,48.8721)"
             id="g140"><path
               inkscape:connector-curvature="0"
               id="path142"
               style="fill:#3e84bf;fill-opacity:1;fill-rule:nonzero;stroke:none"
               d="M 0,0 5.716,-9.548 11.432,0 5.716,9.548 Z" /></g><g
             transform="translate(121.3321,48.8721)"
             id="g144"><path
               inkscape:connector-curvature="0"
               id="path146"
               style="fill:#3e84bf;fill-opacity:1;fill-rule:nonzero;stroke:none"
               d="M 0,0 5.716,-9.548 11.432,0 5.716,9.548 Z" /></g><g
             transform="translate(132.7641,48.8721)"
             id="g148"><path
               inkscape:connector-curvature="0"
               id="path150"
               style="fill:#3e84bf;fill-opacity:1;fill-rule:nonzero;stroke:none"
               d="M 0,0 5.716,-9.548 11.432,0 5.716,9.548 Z" /></g><g
             transform="translate(144.196,48.8721)"
             id="g152"><path
               inkscape:connector-curvature="0"
               id="path154"
               style="fill:#3e84bf;fill-opacity:1;fill-rule:nonzero;stroke:none"
               d="M 0,0 5.716,-9.548 11.432,0 5.716,9.548 Z" /></g><g
             transform="translate(155.6279,48.8721)"
             id="g156"><path
               inkscape:connector-curvature="0"
               id="path158"
               style="fill:#3e84bf;fill-opacity:1;fill-rule:nonzero;stroke:none"
               d="M 0,0 5.716,-9.548 11.432,0 5.716,9.548 Z" /></g><g
             transform="translate(167.0598,48.8721)"
             id="g160"><path
               inkscape:connector-curvature="0"
               id="path162"
               style="fill:#3e84bf;fill-opacity:1;fill-rule:nonzero;stroke:none"
               d="M 0,0 5.716,-9.548 11.432,0 5.716,9.548 Z" /></g><g
             transform="translate(69.8873,96.611)"
             id="g164"><path
               inkscape:connector-curvature="0"
               id="path166"
               style="fill:#3e84bf;fill-opacity:1;fill-rule:nonzero;stroke:none"
               d="M 0,0 -5.716,-9.548 0,-19.096 5.716,-9.548 Z" /></g><g
             transform="translate(172.7746,96.611)"
             id="g168"><path
               inkscape:connector-curvature="0"
               id="path170"
               style="fill:#3e84bf;fill-opacity:1;fill-rule:nonzero;stroke:none"
               d="M 0,0 -5.716,-9.548 0,-19.096 5.716,-9.548 Z" /></g><g
             transform="translate(184.2065,77.5155)"
             id="g172"><path
               inkscape:connector-curvature="0"
               id="path174"
               style="fill:#3e84bf;fill-opacity:1;fill-rule:nonzero;stroke:none"
               d="M 0,0 -5.716,-9.548 0,-19.096 5.716,-9.548 Z" /></g><g
             transform="translate(92.7511,39.3243)"
             id="g176"><path
               inkscape:connector-curvature="0"
               id="path178"
               style="fill:#3e84bf;fill-opacity:1;fill-rule:nonzero;stroke:none"
               d="M 0,0 5.716,9.548 0,19.096 -5.716,9.548 Z" /></g><g
             transform="translate(75.6032,48.8721)"
             id="g180"><path
               inkscape:connector-curvature="0"
               id="path182"
               style="fill:#3e84bf;fill-opacity:1;fill-rule:nonzero;stroke:none"
               d="M 0,0 5.716,-9.548 11.432,0 5.716,9.548 Z" /></g><g
             transform="translate(64.1713,48.8721)"
             id="g184"><path
               inkscape:connector-curvature="0"
               id="path186"
               style="fill:#3e84bf;fill-opacity:1;fill-rule:nonzero;stroke:none"
               d="M 0,0 5.716,-9.548 11.432,0 5.716,9.548 Z" /></g><g
             transform="translate(69.8873,77.5155)"
             id="g188"><path
               inkscape:connector-curvature="0"
               id="path190"
               style="fill:#3e84bf;fill-opacity:1;fill-rule:nonzero;stroke:none"
               d="M 0,0 -5.715,-9.547 -11.431,0 l -5.716,-9.548 5.716,-9.548 5.716,9.547 5.715,-9.547 5.716,9.548 z" /></g></g></g><g
         id="g192"><g
           clip-path="url(#clipPath198)"
           id="g194"><g
             transform="translate(42.9093,202.7304)"
             id="g200"><path
               inkscape:connector-curvature="0"
               id="path202"
               style="fill:#040606;fill-opacity:1;fill-rule:nonzero;stroke:none"
               d="m 0,0 c 14.541,25.187 43.736,42.389 77.387,42.389 32.818,0 61.397,-16.361 76.28,-40.533 v 0 l 27.817,19.936 C 160.757,53.706 122.356,75.14 78.401,75.14 34.189,75.14 -4.408,53.456 -25.047,21.233 Z" /></g><g
             transform="translate(121.3107,281.9268)"
             id="g204"><path
               inkscape:connector-curvature="0"
               id="path206"
               style="fill:#b3a154;fill-opacity:1;fill-rule:nonzero;stroke:none"
               d="m 0,0 c -22.003,0 -43.605,-5.306 -62.469,-15.345 -18.36,-9.771 -33.712,-23.751 -44.395,-40.431 l -1.914,-2.987 2.706,-2.294 25.048,-21.233 3.706,-3.142 2.429,4.208 c 14.373,24.895 42.68,40.36 73.875,40.36 30.26,0 58.165,-14.792 72.826,-38.603 l 2.28,-3.705 3.536,2.535 27.817,19.936 3.149,2.257 -2.11,3.249 C 95.755,-38.675 80.423,-24.837 62.147,-15.177 43.363,-5.248 21.873,0 0,0 m 0,-4.056 c 43.955,0 82.355,-21.435 103.082,-53.348 L 75.266,-77.34 v -10e-4 c -14.883,24.173 -43.462,40.533 -76.28,40.533 -33.651,0 -62.846,-17.201 -77.387,-42.388 l -25.048,21.233 C -82.809,-25.74 -44.212,-4.056 0,-4.056" /></g><g
             transform="translate(15.2003,150.0098)"
             id="g208"><path
               inkscape:connector-curvature="0"
               id="path210"
               style="fill:#7c7f80;fill-opacity:1;fill-rule:nonzero;stroke:none"
               d="m 0,0 c 3.894,3.057 76.788,-24.194 76.788,-24.194 l 2.073,-9.926 c 0,0 -50.997,12.3 -55.927,13.587 C 18.003,-19.247 0.064,-11.468 0,0" /></g><g
             transform="translate(16.3841,153.2912)"
             id="g212"><path
               inkscape:connector-curvature="0"
               id="path214"
               style="fill:#060707;fill-opacity:1;fill-rule:nonzero;stroke:none"
               d="m 0,0 h -0.001 c -0.828,0 -2.047,-0.092 -3.062,-0.889 l -1.171,-0.92 0.008,-1.489 c 0.077,-13.897 20.225,-22.16 25.208,-23.46 4.901,-1.28 53.898,-13.098 55.982,-13.601 l 4.674,-1.127 -0.983,4.706 -2.073,9.927 -0.342,1.64 -1.57,0.587 C 69.928,-22.105 10.5,0 0,0 m -0.001,-3.042 c 10.247,10e-4 75.605,-24.433 75.605,-24.433 l 2.073,-9.927 c 0,0 -50.997,12.3 -55.927,13.587 -4.93,1.287 -22.87,9.066 -22.934,20.534 0.207,0.162 0.609,0.239 1.183,0.239" /></g><g
             transform="translate(198.076,81.0762)"
             id="g216"><path
               inkscape:connector-curvature="0"
               id="path218"
               style="fill:#060707;fill-opacity:1;fill-rule:nonzero;stroke:none"
               d="m 0,0 c -14.541,-25.187 -43.736,-42.389 -77.387,-42.389 -32.818,0 -61.397,16.361 -76.28,40.533 v 0 l -27.817,-19.936 c 20.727,-31.914 59.128,-53.348 103.083,-53.348 44.212,0 82.809,21.684 103.448,53.907 z" /></g><g
             transform="translate(196.9925,87.3121)"
             id="g220"><path
               inkscape:connector-curvature="0"
               id="path222"
               style="fill:#b3a154;fill-opacity:1;fill-rule:nonzero;stroke:none"
               d="m 0,0 -2.429,-4.208 c -14.372,-24.895 -42.68,-40.36 -73.875,-40.36 -30.26,0 -58.165,14.791 -72.825,38.603 l -2.281,3.704 -3.536,-2.534 -27.817,-19.936 -3.149,-2.257 2.11,-3.249 c 10.729,-16.52 26.061,-30.359 44.337,-40.019 18.784,-9.928 40.274,-15.176 62.147,-15.176 22.003,0 43.605,5.306 62.47,15.345 18.359,9.77 33.711,23.751 44.394,40.43 l 1.914,2.988 -2.706,2.294 -25.048,21.233 z m 1.083,-6.236 25.048,-21.233 c -20.64,-32.223 -59.237,-53.907 -103.449,-53.907 -43.954,0 -82.355,21.435 -103.082,53.348 l 27.816,19.936 h 0.001 c 14.882,-24.172 43.461,-40.533 76.279,-40.533 33.652,0 62.847,17.202 77.387,42.389" /></g><g
             transform="translate(5.466,182.9739)"
             id="g224"><path
               inkscape:connector-curvature="0"
               id="path226"
               style="fill:#7c7f80;fill-opacity:1;fill-rule:nonzero;stroke:none"
               d="m 0,0 c 4.436,2.197 70.222,-39.378 70.222,-39.378 v -10.141 c 0,0 -47.406,22.464 -51.969,24.731 C 13.689,-22.52 -2.282,-11.239 0,0" /></g><g
             transform="translate(5.9294,186.1001)"
             id="g228"><path
               inkscape:connector-curvature="0"
               id="path230"
               style="fill:#060707;fill-opacity:1;fill-rule:nonzero;stroke:none"
               d="m 0,0 h -0.001 -0.002 c -0.666,0 -1.275,-0.135 -1.81,-0.4 l -1.335,-0.661 -0.297,-1.46 c -2.765,-13.619 15.269,-25.825 19.88,-28.117 4.537,-2.254 50.084,-23.838 52.021,-24.756 l 4.345,-2.059 v 4.808 10.14 1.677 l -1.417,0.895 c -0.157,0.099 -15.832,9.999 -32.201,19.772 C 5.413,0 1.62,0 0,0 m -0.001,-3.042 c 7.312,0.004 69.759,-39.463 69.759,-39.463 v -10.14 c 0,0 -47.406,22.464 -51.969,24.731 -4.563,2.268 -20.534,13.549 -18.252,24.788 0.114,0.056 0.269,0.084 0.462,0.084" /></g><g
             transform="translate(7.7475,180.2276)"
             id="g232"><path
               inkscape:connector-curvature="0"
               id="path234"
               style="fill:#040606;fill-opacity:1;fill-rule:nonzero;stroke:none"
               d="M 0,0 C -2.475,-0.264 2.408,-11.028 12.675,-16.732 17.851,-19.557 9.192,0.002 0,0" /></g><g
             transform="translate(17.995,147.7877)"
             id="g236"><path
               inkscape:connector-curvature="0"
               id="path238"
               style="fill:#040606;fill-opacity:1;fill-rule:nonzero;stroke:none"
               d="M 0,0 C -2.368,-0.765 4.611,-10.303 15.828,-13.788 21.472,-15.496 8.997,1.881 0,0" /></g><g
             transform="translate(29.0085,124.1017)"
             id="g240"><path
               inkscape:connector-curvature="0"
               id="path242"
               style="fill:#7c7f80;fill-opacity:1;fill-rule:nonzero;stroke:none"
               d="m 0,0 c 3.402,3.597 79.511,-12.641 79.511,-12.641 l 3.509,-9.514 c 0,0 -52.251,4.669 -57.316,5.217 C 20.638,-16.39 1.749,-11.334 0,0" /></g><g
             transform="translate(32.0491,127.6639)"
             id="g244"><path
               inkscape:connector-curvature="0"
               id="path246"
               style="fill:#060707;fill-opacity:1;fill-rule:nonzero;stroke:none"
               d="m 0,0 h -0.002 c -2.315,0 -4.094,-0.251 -5.249,-1.472 l -1.023,-1.082 0.227,-1.472 c 2.12,-13.734 23.263,-18.945 28.383,-19.499 5.036,-0.545 55.238,-5.031 57.373,-5.222 l 4.789,-0.428 -1.664,4.511 -3.51,9.514 -0.58,1.572 -1.639,0.35 C 74.574,-12.688 14.935,0 0,0 M -0.002,-3.042 C 14.779,-3.041 76.47,-16.203 76.47,-16.203 l 3.51,-9.514 c 0,0 -52.251,4.668 -57.317,5.216 -5.066,0.549 -23.954,5.605 -25.704,16.939 0.339,0.358 1.403,0.52 3.039,0.52" /></g><g
             transform="translate(32.0995,122.3148)"
             id="g248"><path
               inkscape:connector-curvature="0"
               id="path250"
               style="fill:#040606;fill-opacity:1;fill-rule:nonzero;stroke:none"
               d="M 0,0 C -2.23,-1.105 6.076,-9.513 17.683,-11.311 23.517,-12.17 8.623,3.183 0,0" /></g><g
             transform="translate(234.2289,183.1433)"
             id="g252"><path
               inkscape:connector-curvature="0"
               id="path254"
               style="fill:#7c7f80;fill-opacity:1;fill-rule:nonzero;stroke:none"
               d="m 0,0 c -4.472,2.197 -70.792,-39.378 -70.792,-39.378 v -10.141 c 0,0 47.791,22.464 52.391,24.731 C -13.801,-22.52 2.3,-11.239 0,0" /></g><g
             transform="translate(233.7627,186.2695)"
             id="g256"><path
               inkscape:connector-curvature="0"
               id="path258"
               style="fill:#060707;fill-opacity:1;fill-rule:nonzero;stroke:none"
               d="m 0,0 c -1.628,0 -5.441,0 -39.477,-20.156 -16.503,-9.772 -32.307,-19.672 -32.465,-19.771 l -1.426,-0.894 v -1.684 -10.14 -4.791 l 4.336,2.038 c 1.953,0.918 47.869,22.502 52.442,24.756 4.649,2.291 22.826,14.498 20.037,28.126 l -0.3,1.462 -1.34,0.658 C 1.273,-0.133 0.665,0 0,0 m 0,-3.042 c 0.194,0 0.351,-0.028 0.466,-0.084 2.3,-11.239 -13.8,-22.52 -18.401,-24.788 -4.6,-2.267 -52.391,-24.731 -52.391,-24.731 v 10.14 c 0,0 62.954,39.463 70.326,39.463" /></g><g
             transform="translate(231.9288,180.3969)"
             id="g260"><path
               inkscape:connector-curvature="0"
               id="path262"
               style="fill:#040606;fill-opacity:1;fill-rule:nonzero;stroke:none"
               d="M 0,0 C 2.495,-0.264 -2.428,-11.028 -12.778,-16.732 -17.996,-19.557 -9.266,0.002 0,0" /></g><g
             transform="translate(224.4155,150.1792)"
             id="g264"><path
               inkscape:connector-curvature="0"
               id="path266"
               style="fill:#7c7f80;fill-opacity:1;fill-rule:nonzero;stroke:none"
               d="m 0,0 c -3.925,3.057 -77.412,-24.194 -77.412,-24.194 l -2.089,-9.926 c 0,0 51.411,12.3 56.381,13.587 C -18.15,-19.247 -0.064,-11.468 0,0" /></g><g
             transform="translate(223.2227,153.4605)"
             id="g268"><path
               inkscape:connector-curvature="0"
               id="path270"
               style="fill:#060707;fill-opacity:1;fill-rule:nonzero;stroke:none"
               d="m 0,0 c -10.571,0 -70.48,-22.103 -77.277,-24.623 l -1.573,-0.583 -0.346,-1.643 -2.089,-9.926 -0.99,-4.704 4.674,1.119 c 2.101,0.502 51.496,12.321 56.436,13.6 5.021,1.3 25.322,9.561 25.4,23.462 l 0.008,1.497 -1.181,0.92 C 2.048,-0.091 0.829,0 0,0 m 0,-3.042 c 0.579,0 0.984,-0.077 1.193,-0.239 -0.064,-11.468 -18.15,-19.247 -23.12,-20.534 -4.97,-1.287 -56.381,-13.587 -56.381,-13.587 l 2.089,9.927 c 0,0 65.889,24.433 76.219,24.433" /></g><g
             transform="translate(221.5981,147.9571)"
             id="g272"><path
               inkscape:connector-curvature="0"
               id="path274"
               style="fill:#040606;fill-opacity:1;fill-rule:nonzero;stroke:none"
               d="M 0,0 C 2.388,-0.765 -4.649,-10.303 -15.956,-13.788 -21.646,-15.496 -9.07,1.881 0,0" /></g><g
             transform="translate(210.4952,124.2711)"
             id="g276"><path
               inkscape:connector-curvature="0"
               id="path278"
               style="fill:#7c7f80;fill-opacity:1;fill-rule:nonzero;stroke:none"
               d="m 0,0 c -3.429,3.597 -80.157,-12.641 -80.157,-12.641 l -3.538,-9.514 c 0,0 52.676,4.669 57.783,5.217 C -20.805,-16.39 -1.763,-11.334 0,0" /></g><g
             transform="translate(207.4319,127.8333)"
             id="g280"><path
               inkscape:connector-curvature="0"
               id="path282"
               style="fill:#060707;fill-opacity:1;fill-rule:nonzero;stroke:none"
               d="m 0,0 c -15.046,0 -75.171,-12.687 -77.723,-13.227 l -1.638,-0.346 -0.584,-1.57 -3.538,-9.513 -1.679,-4.516 4.799,0.425 c 2.152,0.191 52.762,4.677 57.839,5.222 5.157,0.553 26.457,5.762 28.593,19.495 L 6.3,-2.548 5.265,-1.463 C 4.107,-0.249 2.323,0 0,0 m 0,-3.042 c 1.65,0 2.721,-0.162 3.063,-0.52 -1.763,-11.334 -20.805,-16.39 -25.912,-16.939 -5.107,-0.548 -57.782,-5.216 -57.782,-5.216 l 3.538,9.514 c 0,0 62.192,13.161 77.093,13.161" /></g><g
             transform="translate(207.379,122.4841)"
             id="g284"><path
               inkscape:connector-curvature="0"
               id="path286"
               style="fill:#040606;fill-opacity:1;fill-rule:nonzero;stroke:none"
               d="M 0,0 C 2.248,-1.105 -6.125,-9.513 -17.826,-11.311 -23.708,-12.17 -8.693,3.183 0,0" /></g><g
             transform="translate(177.9875,183.8514)"
             id="g288"><path
               inkscape:connector-curvature="0"
               id="path290"
               style="fill:#040606;fill-opacity:1;fill-rule:nonzero;stroke:none"
               d="m 0,0 -2.114,5.493 c 0,0 -32.042,-13.567 -55.166,8.786 -23.231,-22.353 -55.33,-8.786 -55.33,-8.786 L -114.734,0 c 6.253,-11.154 6.591,-16.901 6.422,-32.956 -0.41,-27.158 4.636,-38.416 15.38,-53.744 10.744,-15.327 35.66,-24.168 35.66,-24.168 h 0.076 c 0,0 26.58,10.986 35.495,24.168 8.916,13.183 11.271,21.971 11.271,21.971 0,0 4.206,15.717 4.038,31.773 C -6.561,-16.901 -6.224,-11.154 0,0" /></g><g
             transform="translate(77.564,175.9727)"
             id="g292"><path
               inkscape:connector-curvature="0"
               id="path294"
               style="fill:#040606;fill-opacity:1;fill-rule:nonzero;stroke:none"
               d="m 0,0 c 2.16,-7.382 2.224,-14.458 2.111,-25.183 -0.38,-25.188 4.059,-34.332 13.569,-47.898 6.189,-8.829 19.621,-15.842 27.292,-19.097 9.431,4.366 22.849,12.131 27.467,18.959 7.678,11.353 9.895,18.955 9.916,19.032 0.015,0.057 3.828,14.587 3.677,29.005 -0.112,10.725 -0.049,17.798 2.103,25.18 -3.04,-0.426 -6.398,-0.705 -9.972,-0.706 -12.344,0 -23.605,3.421 -33.032,9.969 C 33.673,2.714 22.383,-0.707 10.011,-0.708 6.421,-0.708 3.051,-0.427 0,0 M 45.213,-112.989 H 41.43 l -1.623,0.575 c -2.858,1.015 -28.279,10.413 -40.504,27.852 -11.999,17.118 -17.632,30.407 -17.19,59.635 0.164,15.605 -0.202,19.096 -5.146,27.915 l -2.302,4.106 7.542,19.505 9.501,-4.017 c 0.038,-0.016 8.105,-3.29 18.302,-3.29 10.441,10e-4 19.256,3.39 26.2,10.072 l 6.95,6.687 6.935,-6.703 c 6.901,-6.673 15.673,-10.056 26.068,-10.056 10.16,10e-4 18.21,3.272 18.29,3.306 l 9.467,3.904 7.519,-19.405 -2.283,-4.092 c -4.925,-8.825 -5.289,-12.318 -5.126,-27.978 0.181,-17.225 -4.189,-33.766 -4.376,-34.462 -0.287,-1.07 -3.068,-10.824 -12.648,-24.989 -10.303,-15.233 -36.953,-26.565 -39.958,-27.807 z" /></g><g
             transform="translate(120.716,205.1745)"
             id="g296"><path
               inkscape:connector-curvature="0"
               id="path298"
               style="fill:#b3a154;fill-opacity:1;fill-rule:nonzero;stroke:none"
               d="m 0,0 -3.524,-3.391 c -7.895,-7.596 -17.859,-11.448 -29.617,-11.448 -11.389,0 -20.136,3.642 -20.223,3.679 l -4.817,2.036 -1.886,-4.878 -2.124,-5.493 -0.861,-2.226 1.167,-2.081 c 5.728,-10.218 5.936,-15.093 5.775,-30.424 -0.209,-13.837 0.944,-23.985 3.74,-32.881 2.794,-8.892 7.04,-15.956 12.558,-23.826 11.541,-16.465 37.036,-25.653 38.116,-26.036 l 0.823,-0.292 H 0 0.076 1.082 l 0.931,0.384 c 1.142,0.473 28.099,11.732 37.758,26.014 9.286,13.73 11.863,23.106 11.968,23.498 0.18,0.671 4.383,16.58 4.21,33.139 -0.161,15.335 0.047,20.211 5.75,30.432 l 1.158,2.075 -0.854,2.217 -2.114,5.493 -1.882,4.891 -4.826,-2.043 c -0.078,-0.033 -8.927,-3.678 -20.17,-3.678 -11.719,0 -21.643,3.849 -29.495,11.44 z m -0.008,-7.044 c 10.445,-10.097 22.709,-12.865 33.019,-12.865 12.513,0 22.146,4.079 22.146,4.079 l 2.115,-5.493 c -6.225,-11.154 -6.561,-16.901 -6.393,-32.956 0.168,-16.056 -4.037,-31.773 -4.037,-31.773 0,0 -2.355,-8.789 -11.271,-21.971 -8.916,-13.182 -35.495,-24.168 -35.495,-24.168 H 0 c 0,0 -24.916,8.84 -35.661,24.168 -10.744,15.328 -15.789,26.586 -15.379,53.744 0.169,16.055 -0.169,21.802 -6.422,32.956 l 2.123,5.493 c 0,0 9.649,-4.079 22.198,-4.079 10.336,0 22.64,2.769 33.133,12.865" /></g><g
             transform="translate(180.5559,130.9201)"
             id="g300"><path
               inkscape:connector-curvature="0"
               id="path302"
               style="fill:#040606;fill-opacity:1;fill-rule:nonzero;stroke:none"
               d="m 0,0 c 0,0 7.183,-1.859 10.309,2.366 3.127,4.225 2.451,6.169 2.451,6.169 0,0 2.366,2.535 -0.507,6.845 -2.873,4.309 -6.084,4.478 -6.084,4.478 0,0 -1.606,4.394 -10.563,9.295 0.676,0.423 1.183,3.212 1.183,3.212 0,0 -1.268,3.802 -10.732,6.506 -7.69,4.563 -19.858,8.282 -19.858,8.282 0,0 -2.028,5.07 -16.394,7.267 -14.365,2.197 -18.59,2.704 -18.59,2.704 0,0 -1.014,-3.127 0.845,-5.662 -3.211,0.592 -16.225,3.38 -16.225,3.38 0,0 -2.112,-5.746 -0.591,-8.703 0,0 -25.351,-1.268 -24.168,-37.435 0,0 -1.521,-43.981 36.843,-60.524 0.169,20.807 13.859,23.512 13.859,23.512 0,0 20.618,5.239 17.576,-13.69 0,0 32.28,-3.211 34.308,22.14 C -2.62,-6.338 0,0 0,0" /></g><g
             transform="translate(100.1937,181.0303)"
             id="g304"><path
               inkscape:connector-curvature="0"
               id="path306"
               style="fill:#262628;fill-opacity:1;fill-rule:nonzero;stroke:none"
               d="m 0,0 c 0,0 16.394,-2.873 22.647,-3.211 6.253,-0.338 13.52,-5.239 15.717,-7.436 2.197,-2.197 -0.338,5.915 -3.042,7.436 -2.704,1.521 11.831,-2.197 20.788,-7.098 l -2.197,-0.713 c 0,0 13.689,-2.329 18.928,-7.4 -1.521,-1.859 -3.38,-3.38 -3.38,-3.38 0,0 6.423,-2.535 10.986,-6.929 H 78.25 c 0,0 5.746,-2.197 9.633,-6.929 -3.549,-1.835 -9.971,1.183 -9.971,1.183 0,0 -5.217,-2.535 -2.778,-7.605 7.003,2.197 7.003,-1.352 7.003,-1.352 0,0 -2.366,-7.71 -12,-4.024 -9.633,3.686 -20.956,8.756 -28.224,3.347 -7.267,-5.408 -11.999,-10.985 -11.999,-10.985 0,0 8.45,-15.183 24.675,-20.45 10.14,-2.028 14.534,2.705 14.534,2.705 0,0 -2.366,-13.69 -21.125,-13.69 -6.085,15.211 -23.323,18.591 -23.323,18.591 0,0 -5.746,10.478 -0.761,21.632 -6.506,-7.436 -4.757,-17.914 -4.757,-17.914 L 5.746,-54.42 c 0,0 -0.169,8.45 3.718,16.394 3.887,7.943 3.718,14.196 3.718,14.196 0,0 10.944,-4.394 16.732,4.056 -12.337,-3.718 -19.943,2.704 -19.943,2.704 0,0 -13.351,3.55 -9.971,17.07" /></g><g
             transform="translate(189.7667,140.2999)"
             id="g308"><path
               inkscape:connector-curvature="0"
               id="path310"
               style="fill:#181819;fill-opacity:1;fill-rule:nonzero;stroke:none"
               d="m 0,0 -3.549,-1.648 c 0,0 -1.268,-3.422 -2.155,-4.309 C -6.591,-6.845 -0.634,-5.197 0,0" /></g><g
             transform="translate(134.7554,160.8341)"
             id="g312"><path
               inkscape:connector-curvature="0"
               id="path314"
               style="fill:#040606;fill-opacity:1;fill-rule:nonzero;stroke:none"
               d="m 0,0 c 0,0 11.408,5.45 18.506,0 3.549,-3.676 4.456,-2.939 7.732,-3.296 3.276,-0.357 7.352,0.254 3.93,-3.549 8.746,-2.915 8.746,-5.704 8.746,-5.704 0,0 -2.536,-6.971 -0.761,-9.506 1.775,-2.535 -5.45,3.169 -7.098,7.478 -1.648,4.31 -10.521,0.127 -10.521,0.127 0,0 -5.957,-2.155 -10.647,1.901 5.957,0.127 9.57,1.036 9.57,2.42 0,1.383 -7.669,-5.589 -14.387,5.946 5.958,-1.014 6.972,1.648 12.042,0.507 0,0 -1.541,4.167 -17.112,3.676" /></g><g
             transform="translate(102.94,177.8192)"
             id="g316"><path
               inkscape:connector-curvature="0"
               id="path318"
               style="fill:#040606;fill-opacity:1;fill-rule:nonzero;stroke:none"
               d="m 0,0 c 0,0 8.239,-4.183 13.309,-4.563 5.07,-0.38 11.028,-0.887 15.337,-5.451 1.902,-4.549 -9.506,-5.83 -9.506,-5.83 0,0 -15.337,3.802 -19.14,15.844" /></g><g
             transform="translate(150.4729,155.1302)"
             id="g320"><path
               inkscape:connector-curvature="0"
               id="path322"
               style="fill:#eaed21;fill-opacity:1;fill-rule:nonzero;stroke:none"
               d="m 0,0 c 0,0 -3.549,0.127 -4.563,-0.634 -1.014,-0.76 2.028,-3.422 5.577,-2.408 0,0 -2.408,1.014 -1.014,3.042" /></g><g
             transform="translate(104.0808,86.5561)"
             id="g324"><path
               inkscape:connector-curvature="0"
               id="path326"
               style="fill:#262628;fill-opacity:1;fill-rule:nonzero;stroke:none"
               d="m 0,0 c 0,0 -8.871,12.253 -4.435,24.506 3.294,8.171 14.829,3.887 14.829,3.887 0,0 -13.048,5.761 -14.829,8.873 0,10.58 8.998,28.039 8.998,28.039 0,0 2.689,4.156 -4.233,9.607 -6.921,5.45 -7.935,10.769 -7.935,10.769 0,0 -24.884,-4.22 -18.253,-46.641 C -19.828,11.367 0,0 0,0" /></g><g
             transform="translate(146.219,144.1026)"
             id="g328"><path
               inkscape:connector-curvature="0"
               id="path330"
               style="fill:#040606;fill-opacity:1;fill-rule:nonzero;stroke:none"
               d="M 0,0 C 0,0 -10.703,-4.817 -17.548,-15.971 -10.957,0 -7.408,0 -7.408,0 c 0,0 3.641,3.311 7.408,0" /></g><g
             transform="translate(237.2151,116.0865)"
             id="g332"><path
               inkscape:connector-curvature="0"
               id="path334"
               style="fill:#ee252b;fill-opacity:1;fill-rule:nonzero;stroke:none"
               d="m 0,0 c 0,0 -7.352,-9.003 -16.225,0 -8.872,9.003 -10.52,8.496 -10.52,8.496 0,0 -4.69,2.662 -11.028,-1.775 -6.338,-4.436 -8.873,-1.521 -8.873,-1.521 0,0 -3.675,2.916 1.014,5.324 2.691,0.38 4.31,-1.141 4.31,-1.141 0,0 -1.859,4.402 -8.45,4.673 -6.591,0.271 -11.155,-6.095 -11.155,-6.095 0,0 -4.711,-7.641 -12.168,-1.578 2.457,-2.085 5.556,-1.07 8.028,0.254 2.471,1.324 2.535,4.732 2.535,4.732 0.791,2.787 -5.413,-1.968 -5.413,-1.968 0,0 -1.163,2.199 -10.727,2.559 -9.564,0.361 -11.268,4.547 -11.07,7.437 -2.925,0 -6,-4.225 -6,-4.225 0,0 -2.379,-10.548 13.943,-17.746 11.831,-6.507 21.126,-3.803 21.126,-3.803 0,0 4.817,3.114 8.535,-2.119 0.084,7.866 -9.127,7.528 -9.127,7.528 0,0 6.93,4.056 13.352,-0.676 6.422,-4.733 8.655,-7.521 12.989,-8.197 4.334,-0.676 8.644,-0.507 12.869,3.295 0,0 -7.775,-3.295 -11.155,0.93 -2.366,4.479 2.958,5.616 2.958,5.616 0,0 2.789,0.637 6.76,-2.489 3.972,-3.127 8.112,-5.155 10.732,-5.409 C -10.14,-8.151 -3.634,-7.313 0,0" /></g><g
             transform="translate(214.6105,117.5687)"
             id="g336"><path
               inkscape:connector-curvature="0"
               id="path338"
               style="fill:#e6ec25;fill-opacity:1;fill-rule:nonzero;stroke:none"
               d="m 0,0 c -1.268,1.775 -3.127,4.648 -7.859,5.577 -3.887,0.93 -6.76,-2.535 -11.915,-4.478 -3.802,-1.522 -6.549,1.605 -7.267,3.126 -0.718,1.521 -0.507,4.056 2.451,5.915 -5.334,1.874 -6.423,0 -12.929,-5.915 -6.507,-5.915 -11.915,-3.126 -11.915,-3.126 0,0 -0.761,-5.662 5.408,-6.676 6.169,-1.014 7.014,1.859 12.168,-0.592 0,0 -1.859,2.958 -9.633,3.296 -1.024,0.044 0.863,1.216 3.465,2.619 7.858,2.536 13.013,-1.228 13.013,-1.228 0,0 6.253,-4.687 10.986,-4.856 -5.071,2.958 -0.93,6 -0.93,6 0,0 6.507,3.549 13.436,-2.282 C 5.408,-8.45 10.225,-6.507 10.225,-6.507 5.493,-6.591 1.268,-1.775 0,0" /></g><g
             transform="translate(163.6553,117.9912)"
             id="g340"><path
               inkscape:connector-curvature="0"
               id="path342"
               style="fill:#ffffff;fill-opacity:1;fill-rule:nonzero;stroke:none"
               d="m 0,0 c 0,0 2.873,-7.605 -2.535,-9.718 -5.408,-2.112 -7.943,1.352 -7.943,1.352 V -5.2 c 0,0 -3.042,-1.567 -4.648,0 -1.606,1.566 0,3.341 0,3.341 0,0 -2.873,-1.268 -4.31,-0.254 -1.436,1.014 -1.183,3.212 -1.183,3.212 0,0 -5.859,1.014 -6.098,5.492 4.746,-0.994 10.577,-2.028 10.577,-2.028 l -0.676,-2.788 h 5.155 l -0.676,-1.944 5.154,-0.254 -1.267,-3.464 c 0,0 5.83,0.507 8.45,3.887" /></g><g
             transform="translate(149.3743,135.6863)"
             id="g344"><path
               inkscape:connector-curvature="0"
               id="path346"
               style="fill:#ffffff;fill-opacity:1;fill-rule:nonzero;stroke:none"
               d="m 0,0 3.465,-2.654 2.619,1.183 3.887,-3.718 3.211,1.437 1.099,-2.282 3.38,-0.507 -1.521,-4.985 c 0,0 2.366,-1.014 8.155,3.042 3.546,0.397 3.844,-1.521 3.844,-1.521 0,0 4.673,1.886 5.953,4.563 0,0.929 -3.84,0.591 -3.84,0.591 0,0 -5.662,-2.366 -12.253,0.676 C 11.408,-1.133 7.267,0.001 6.084,-0.355 4.901,-0.71 2.873,1.555 0,0" /></g><g
             transform="translate(83.427,220.6934)"
             id="g348"><path
               inkscape:connector-curvature="0"
               id="path350"
               style="fill:#ffffff;fill-opacity:1;fill-rule:nonzero;stroke:none"
               d="M 0,0 5.033,-0.312 1.145,2.898 2.997,7.588 -1.258,4.883 -5.146,8.094 -3.888,3.211 -8.143,0.506 -3.11,0.193 -1.852,-4.69 Z" /></g><g
             transform="translate(97.7397,221.6855)"
             id="g352"><path
               inkscape:connector-curvature="0"
               id="path354"
               style="fill:#ffffff;fill-opacity:1;fill-rule:nonzero;stroke:none"
               d="M 0,0 4.783,-1.596 1.852,2.507 4.848,6.562 0.04,5.042 -2.891,9.145 -2.931,4.103 -7.739,2.582 -2.956,0.986 -2.996,-4.056 Z" /></g><g
             transform="translate(73.7033,209.4288)"
             id="g356"><path
               inkscape:connector-curvature="0"
               id="path358"
               style="fill:#ffffff;fill-opacity:1;fill-rule:nonzero;stroke:none"
               d="M 0,0 5.042,0.061 0.927,2.975 2.426,7.789 -1.616,4.776 -5.731,7.69 -4.115,2.914 -8.158,-0.099 -3.116,-0.038 -1.5,-4.814 Z" /></g><g
             transform="translate(204.8539,62.1265)"
             id="g360"><path
               inkscape:connector-curvature="0"
               id="path362"
               style="fill:#3e84bf;fill-opacity:1;fill-rule:nonzero;stroke:none"
               d="M 0,0 V 0 L -10.883,2.318 -7.785,-8.37 3.098,-10.689 0.002,-0.001 v 0 z" /></g><g
             transform="translate(44.0968,53.3788)"
             id="g364"><path
               inkscape:connector-curvature="0"
               id="path366"
               style="fill:#3e84bf;fill-opacity:1;fill-rule:nonzero;stroke:none"
               d="M 0,0 V 0 L 4.181,10.312 -6.884,9.126 -11.065,-1.187 -0.002,-0.001 v 0 z" /></g><g
             transform="translate(36.1969,221.5596)"
             id="g368"><path
               inkscape:connector-curvature="0"
               id="path370"
               style="fill:#3e84bf;fill-opacity:1;fill-rule:nonzero;stroke:none"
               d="M 0,0 V 0 L 10.883,-2.318 7.785,8.37 -3.098,10.689 -0.002,0.001 v 0 z" /></g><g
             transform="translate(196.9541,230.3073)"
             id="g372"><path
               inkscape:connector-curvature="0"
               id="path374"
               style="fill:#3e84bf;fill-opacity:1;fill-rule:nonzero;stroke:none"
               d="M 0,0 V 0 L -4.181,-10.312 6.884,-9.126 11.065,1.187 0.002,0.001 v 0 z" /></g><g
             transform="translate(119.8578,110.9448)"
             id="g376"><path
               inkscape:connector-curvature="0"
               id="path378"
               style="fill:#262628;fill-opacity:1;fill-rule:nonzero;stroke:none"
               d="M 0,0 C 0,0 -7.829,-2.08 -11.015,-26.565 -12.012,-21.347 -16.918,1.976 0,0" /></g><g
             transform="translate(186.7375,71.3661)"
             id="g380"><path
               inkscape:connector-curvature="0"
               id="path382"
               style="fill:#b3a154;fill-opacity:1;fill-rule:nonzero;stroke:none"
               d="m 0,0 -2.359,-2.864 -6.337,5.218 2.359,2.865 z" /></g><g
             transform="translate(56.8829,67.2072)"
             id="g384"><path
               inkscape:connector-curvature="0"
               id="path386"
               style="fill:#b3a154;fill-opacity:1;fill-rule:nonzero;stroke:none"
               d="M 0,0 -2.34,2.88 4.03,8.057 6.371,5.178 Z" /></g><g
             transform="translate(51.3421,211.6462)"
             id="g388"><path
               inkscape:connector-curvature="0"
               id="path390"
               style="fill:#b3a154;fill-opacity:1;fill-rule:nonzero;stroke:none"
               d="m 0,0 2.39,2.838 8.419,-7.09 -2.39,-2.838 z" /></g><g
             transform="translate(185.951,214.2345)"
             id="g392"><path
               inkscape:connector-curvature="0"
               id="path394"
               style="fill:#b3a154;fill-opacity:1;fill-rule:nonzero;stroke:none"
               d="m 0,0 2.34,-2.88 -6.37,-5.177 -2.341,2.879 z" /></g><g
             transform="translate(54.4283,228.7535)"
             id="g396"><path
               inkscape:connector-curvature="0"
               id="path398"
               style="fill:#b3a154;fill-opacity:1;fill-rule:nonzero;stroke:none"
               d="m 0,0 -1.883,2.147 c 0.11,0.066 0.206,0.137 0.291,0.21 0.084,0.074 0.163,0.143 0.237,0.208 0.494,0.434 0.619,0.886 0.374,1.356 -0.071,0.146 -0.498,0.665 -1.282,1.558 -0.679,0.774 -1.103,1.237 -1.272,1.387 -0.483,0.381 -0.983,0.569 -1.499,0.563 0.105,0.538 -0.017,1.071 -0.368,1.598 -0.034,0.06 -0.412,0.502 -1.136,1.328 -0.709,0.808 -1.138,1.266 -1.288,1.373 -0.404,0.271 -0.86,0.185 -1.365,-0.259 -0.074,-0.064 -0.149,-0.138 -0.226,-0.22 -0.077,-0.082 -0.149,-0.169 -0.219,-0.259 l -1.883,2.147 6.284,5.51 1.883,-2.147 -1.01,-0.886 c -0.337,-0.296 -0.137,-0.864 0.602,-1.706 0.074,-0.085 0.161,-0.179 0.262,-0.284 0.102,-0.105 0.217,-0.22 0.346,-0.345 0.029,-0.034 0.066,-0.076 0.11,-0.127 0.044,-0.05 0.098,-0.123 0.162,-0.215 l 0.332,-0.38 C -1.883,11.799 -1.206,11.44 -0.515,11.48 -0.62,10.941 -0.459,10.367 -0.036,9.755 -0.002,9.696 0.377,9.253 1.101,8.428 1.721,7.721 2.073,7.329 2.158,7.254 2.727,6.711 3.138,6.55 3.391,6.771 L 4.401,7.658 6.284,5.51 Z" /></g><g
             transform="translate(65.938,254.3687)"
             id="g400"><path
               inkscape:connector-curvature="0"
               id="path402"
               style="fill:#b3a154;fill-opacity:1;fill-rule:nonzero;stroke:none"
               d="M 0,0 C 0.02,-0.197 0.34,-0.814 0.96,-1.853 1.409,-2.603 1.702,-3.067 1.841,-3.245 2.235,-3.713 2.693,-3.988 3.214,-4.068 3.129,-4.145 3.094,-4.414 3.109,-4.875 3.137,-5.276 3.196,-5.58 3.287,-5.786 l 3.81,-6.374 -4.381,-2.618 -9.018,8.663 4.206,-7.038 c 0.287,-0.48 0.677,-0.627 1.167,-0.437 0.262,0.078 0.503,0.209 0.72,0.391 l 1.465,-2.451 -4.831,-2.888 -1.465,2.452 c 0.084,0.024 0.162,0.057 0.234,0.1 0.072,0.043 0.138,0.083 0.198,0.118 0.493,0.295 0.644,0.724 0.453,1.289 -0.068,0.168 -0.383,0.723 -0.947,1.665 -0.264,0.443 -0.477,0.792 -0.638,1.048 -0.161,0.256 -0.276,0.428 -0.345,0.517 -0.476,0.603 -0.957,0.877 -1.445,0.82 0.213,0.545 0.2,1.112 -0.037,1.7 -0.023,0.065 -0.31,0.559 -0.861,1.482 -0.644,1.076 -1.018,1.648 -1.124,1.716 -0.328,0.248 -0.835,0.128 -1.521,-0.361 l -1.466,2.451 6.039,3.61 8.39,-8.021 -3.792,6.346 c -0.39,0.653 -0.936,0.692 -1.637,0.117 L -5.004,0.963 -0.317,3.764 1.148,1.312 C 0.344,0.857 -0.039,0.42 0,0" /></g><g
             transform="translate(86.5284,254.4503)"
             id="g404"><path
               inkscape:connector-curvature="0"
               id="path406"
               style="fill:#b3a154;fill-opacity:1;fill-rule:nonzero;stroke:none"
               d="M 0,0 C -0.341,-0.247 -0.437,-0.57 -0.288,-0.968 L 1.685,-6.25 -0.911,-7.22 c -0.181,0.323 -0.433,0.558 -0.757,0.705 -0.767,-1.188 -1.602,-1.952 -2.507,-2.29 -2.019,-0.755 -3.875,-0.35 -5.565,1.214 -0.429,0.389 -1.083,1.338 -1.961,2.848 -0.795,1.326 -1.498,2.149 -2.111,2.469 0.363,0.709 0.382,1.777 0.057,3.208 -0.903,3.935 0.134,6.459 3.111,7.571 1.364,0.51 2.559,0.514 3.583,0.012 -0.015,0.161 -0.089,0.397 -0.219,0.707 l 2.734,1.022 2.34,-6.264 -3.226,-1.205 c -0.92,2.382 -2.029,3.331 -3.327,2.846 -1.233,-0.461 -1.471,-1.704 -0.715,-3.727 0.437,-1.168 0.919,-1.82 1.448,-1.955 -0.209,-0.84 -0.111,-1.802 0.294,-2.887 0.351,-0.938 0.786,-1.643 1.306,-2.115 0.52,-0.472 1.075,-0.597 1.665,-0.376 1.062,0.396 1.327,1.308 0.794,2.735 -0.275,0.734 -0.714,0.989 -1.317,0.764 -0.066,-0.025 -0.129,-0.055 -0.191,-0.089 -0.061,-0.036 -0.121,-0.076 -0.179,-0.121 L -6.653,0.527 -0.24,2.923 0.748,0.279 Z" /></g><g
             transform="translate(97.6919,259.6222)"
             id="g408"><path
               inkscape:connector-curvature="0"
               id="path410"
               style="fill:#b3a154;fill-opacity:1;fill-rule:nonzero;stroke:none"
               d="M 0,0 C 0.408,0.695 0.501,1.614 0.28,2.758 -0.106,4.759 -0.953,5.634 -2.259,5.381 -3.537,5.134 -3.977,3.977 -3.577,1.91 c 0.115,-0.594 0.219,-0.985 0.312,-1.172 0.172,-0.377 0.498,-0.771 0.976,-1.18 -0.241,-0.229 -0.382,-0.639 -0.425,-1.229 -0.043,-0.59 -0.014,-1.149 0.089,-1.677 0.195,-1.011 0.539,-1.795 1.031,-2.35 0.492,-0.555 1.054,-0.771 1.687,-0.649 1.292,0.249 1.726,1.474 1.301,3.673 C 1.101,-1.156 0.636,-0.265 0,0 M 5.876,-0.521 C 5.98,-3.348 5.576,-5.499 4.663,-6.973 3.816,-8.275 2.465,-9.105 0.61,-9.464 c 0.11,0.021 0,0.017 -0.329,-0.013 -0.33,-0.029 -0.881,-0.072 -1.654,-0.131 -1.076,-0.116 -2.203,0.405 -3.382,1.567 -1.153,1.166 -1.961,2.581 -2.425,4.245 -0.139,0.497 -0.369,0.987 -0.691,1.472 -0.04,0.061 -0.128,0.146 -0.263,0.257 -0.136,0.11 -0.317,0.234 -0.543,0.373 0.378,0.551 0.564,1.396 0.558,2.534 -0.017,1.567 0,2.47 0.055,2.708 C -7.547,6.404 -5.859,8.108 -3,8.66 0.616,9.359 3.253,7.478 4.914,3.016 5.015,2.717 5.208,2.378 5.495,2.001 5.804,1.583 6.042,1.31 6.209,1.182 6.104,0.843 5.993,0.275 5.876,-0.521" /></g><g
             transform="translate(107.1548,252.1935)"
             id="g412"><path
               inkscape:connector-curvature="0"
               id="path414"
               style="fill:#b3a154;fill-opacity:1;fill-rule:nonzero;stroke:none"
               d="m 0,0 -0.169,2.851 1.53,0.091 C 1.808,2.968 1.996,3.585 1.924,4.793 L 1.888,5.396 1.848,5.731 C 1.793,6.647 1.745,7.217 1.704,7.439 1.574,8.216 1.291,8.727 0.856,8.97 1.383,9.54 1.62,10.283 1.565,11.2 1.559,11.312 1.542,11.474 1.515,11.686 1.488,11.897 1.472,12.059 1.465,12.17 l -0.026,0.436 c 0.008,0.113 0.009,0.214 0.003,0.304 -0.006,0.111 -0.011,0.19 -0.013,0.235 -0.063,1.05 -0.36,1.56 -0.89,1.529 l -1.405,-0.084 -0.169,2.851 8.679,0.516 0.168,-2.852 C 7.671,15.119 7.545,15.123 7.433,15.117 7.321,15.11 7.216,15.104 7.119,15.098 6.434,15.057 6.034,14.832 5.918,14.421 5.849,14.169 5.847,13.485 5.914,12.367 5.964,11.517 6.017,10.982 6.072,10.761 6.221,10.142 6.522,9.666 6.977,9.334 6.866,9.305 6.698,9.082 6.47,8.664 6.268,8.293 6.172,8.007 6.184,7.806 L 6.449,3.345 C 6.506,3.326 6.584,3.313 6.683,3.308 6.781,3.302 6.907,3.305 7.061,3.314 7.536,3.342 7.946,3.523 8.291,3.858 8.715,4.265 8.907,4.814 8.866,5.508 L 8.719,7.99 11.905,8.179 12.347,0.733 Z" /></g><g
             transform="translate(132.4644,253.3214)"
             id="g416"><path
               inkscape:connector-curvature="0"
               id="path418"
               style="fill:#b3a154;fill-opacity:1;fill-rule:nonzero;stroke:none"
               d="m 0,0 c -0.984,-0.774 -2.092,-1.126 -3.32,-1.056 -1.399,0.079 -2.639,0.71 -3.721,1.894 -0.055,-0.199 -0.086,-0.399 -0.098,-0.6 -0.013,-0.224 -0.004,-0.437 0.028,-0.641 l -3.166,0.18 0.298,5.267 3.586,-0.204 C -6.355,3.267 -5.549,2.436 -3.969,2.346 -2.738,2.276 -2.1,2.655 -2.053,3.483 -2.002,4.377 -2.432,4.85 -3.34,4.902 -4.109,4.945 -4.574,4.657 -4.734,4.039 -4.975,4.77 -5.275,5.258 -5.641,5.504 c -0.242,0.17 -0.613,0.292 -1.115,0.366 -0.277,0.038 -0.51,0.085 -0.695,0.141 -0.188,0.055 -0.334,0.108 -0.444,0.159 -1.398,0.82 -2.029,2.427 -1.892,4.82 0.129,2.259 0.877,3.955 2.246,5.089 1.074,0.902 2.262,1.318 3.562,1.244 1.313,-0.075 2.436,-0.666 3.37,-1.774 0.066,0.176 0.099,0.522 0.101,1.038 L 2.197,16.433 1.871,10.73 -1.168,10.903 c -0.002,1.212 -0.199,2.053 -0.592,2.524 -0.344,0.401 -0.912,0.624 -1.709,0.67 -1.146,0.065 -1.746,-0.395 -1.802,-1.379 -0.061,-1.073 0.439,-1.64 1.501,-1.7 0.461,-0.027 0.866,0.197 1.215,0.671 0.168,-0.75 0.604,-1.246 1.305,-1.488 C -1.1,10.147 -0.896,10.08 -0.641,9.998 -0.387,9.917 -0.08,9.809 0.277,9.677 1.014,9.096 1.527,8.495 1.814,7.873 2.109,7.138 2.221,6.133 2.148,4.858 2.023,2.667 1.307,1.047 0,0" /></g><g
             transform="translate(147.3619,260.6725)"
             id="g420"><path
               inkscape:connector-curvature="0"
               id="path422"
               style="fill:#b3a154;fill-opacity:1;fill-rule:nonzero;stroke:none"
               d="M 0,0 0.555,2.938 C 0.578,3.139 0.548,3.373 0.463,3.64 0.378,3.906 0.28,4.05 0.17,4.071 L -0.325,4.165 -1.092,0.104 c -0.016,-0.089 -0.004,-0.211 0.038,-0.367 0.042,-0.156 0.098,-0.315 0.167,-0.476 0.069,-0.161 0.137,-0.311 0.203,-0.448 0.067,-0.139 0.128,-0.247 0.185,-0.326 -0.465,-0.049 -0.834,-0.492 -1.105,-1.33 -0.027,-0.063 -0.144,-0.646 -0.351,-1.746 -0.217,-1.145 -0.318,-1.798 -0.306,-1.96 0.037,-0.554 0.394,-0.894 1.068,-1.022 0.096,-0.018 0.192,-0.036 0.289,-0.054 0.095,-0.019 0.201,-0.027 0.315,-0.026 l -0.529,-2.806 -7.779,1.468 0.529,2.806 c 0.687,-0.129 1.055,-0.188 1.099,-0.173 0.512,-0.006 0.836,0.241 0.974,0.74 l 0.336,1.783 c 0.199,1.056 0.306,1.697 0.32,1.922 0.022,0.566 -0.143,1.053 -0.494,1.461 0.656,0.606 1.011,1.052 1.065,1.338 L -4.32,4.85 C -4.34,4.899 -4.432,4.939 -4.597,4.971 -5.105,5.067 -5.41,4.851 -5.51,4.322 L -6.114,1.12 -9.251,1.711 -7.948,8.612 4.412,6.28 3.116,-0.588 Z" /></g><g
             transform="translate(160.1792,259.3766)"
             id="g424"><path
               inkscape:connector-curvature="0"
               id="path426"
               style="fill:#b3a154;fill-opacity:1;fill-rule:nonzero;stroke:none"
               d="m 0,0 -2.73,-3.77 2.431,-0.869 z m -3.426,-12.263 0.962,2.689 c 0.203,-0.096 0.369,-0.162 0.498,-0.196 0.129,-0.034 0.231,-0.053 0.304,-0.055 0.388,0.004 0.677,0.269 0.865,0.797 0.113,0.316 0.154,0.682 0.124,1.097 l -3.974,1.421 c -0.332,-0.428 -0.542,-0.769 -0.633,-1.022 -0.219,-0.612 -0.091,-1.003 0.384,-1.172 l 0.909,-0.325 -0.961,-2.69 -6.072,2.171 0.962,2.689 c 0.066,-0.023 0.152,-0.054 0.257,-0.092 0.119,-0.042 0.254,-0.103 0.405,-0.18 0.375,-0.158 0.816,0.017 1.325,0.526 0.139,0.14 0.311,0.34 0.515,0.6 0.205,0.26 0.435,0.582 0.692,0.966 0.667,0.951 1.064,1.605 1.192,1.964 0.136,0.38 0.144,0.734 0.024,1.062 0.557,-0.104 1.315,0.458 2.275,1.685 0.81,1.018 1.34,1.876 1.588,2.572 -0.134,0.333 -0.292,0.533 -0.477,0.599 L -3.409,3.253 -2.447,5.942 7.262,2.471 6.3,-0.219 C 6.123,-0.132 5.969,-0.064 5.837,-0.017 5.718,0.025 5.632,0.056 5.58,0.075 5.274,0.136 4.979,0.099 4.692,-0.036 4.429,-1.107 4.288,-2.188 4.271,-3.275 4.238,-4.739 4.462,-5.568 4.942,-5.763 4.651,-5.993 4.405,-6.392 4.201,-6.961 4.051,-7.384 3.923,-8.218 3.819,-9.465 c -0.113,-1.316 -0.097,-2.059 0.05,-2.231 0.141,-0.145 0.515,-0.326 1.121,-0.543 l -0.961,-2.69 z" /></g><g
             transform="translate(177.608,245.2608)"
             id="g428"><path
               inkscape:connector-curvature="0"
               id="path430"
               style="fill:#b3a154;fill-opacity:1;fill-rule:nonzero;stroke:none"
               d="m 0,0 c 0.159,0.506 0.192,1.048 0.101,1.628 0.722,0.086 1.42,0.685 2.092,1.797 0.428,0.71 0.692,1.362 0.789,1.957 0.109,0.72 -0.035,1.2 -0.43,1.439 L 1.06,7.722 -1.112,4.127 C -1.379,3.686 -1.454,3.143 -1.337,2.497 -1.468,2.471 -1.703,2.338 -2.044,2.099 -2.385,1.86 -2.596,1.673 -2.677,1.54 l -2.328,-3.854 1.6,-0.967 c 0.383,-0.231 0.861,-0.102 1.436,0.388 0.469,0.397 0.907,0.931 1.312,1.602 C -0.333,-0.754 -0.113,-0.324 0,0 M 3.433,-3.212 C 3.094,-3.61 2.762,-3.998 2.435,-4.376 2.107,-4.754 1.781,-5.146 1.455,-5.551 0.741,-6.271 -0.018,-6.755 -0.82,-7.002 -1.731,-7.263 -2.444,-7.238 -2.959,-6.927 l -9.311,5.626 1.478,2.445 1.384,-0.837 c 0.384,-0.231 0.887,0.171 1.513,1.206 l 0.313,0.517 0.156,0.299 c 0.532,0.881 0.851,1.448 0.954,1.7 0.218,0.523 0.24,1.033 0.067,1.531 0.533,0.07 0.985,0.332 1.359,0.788 0.069,0.088 0.183,0.256 0.34,0.501 0.156,0.245 0.362,0.579 0.617,1.001 0.058,0.096 0.156,0.245 0.296,0.449 0.139,0.204 0.237,0.353 0.296,0.45 0.51,0.843 0.531,1.406 0.063,1.689 l -1.276,0.77 1.478,2.445 9.255,-5.594 C 7.581,7.118 7.392,4.354 5.454,-0.233 5.315,-0.542 5.299,-0.99 5.402,-1.576 4.801,-1.841 4.145,-2.386 3.433,-3.212" /></g><g
             transform="translate(193.0445,236.8385)"
             id="g432"><path
               inkscape:connector-curvature="0"
               id="path434"
               style="fill:#b3a154;fill-opacity:1;fill-rule:nonzero;stroke:none"
               d="M 0,0 2.03,2.195 C 2.156,2.353 2.255,2.567 2.324,2.839 2.394,3.11 2.388,3.284 2.306,3.359 L 1.936,3.702 -0.87,0.667 C -0.932,0.602 -0.985,0.492 -1.032,0.337 -1.08,0.183 -1.117,0.019 -1.145,-0.155 -1.172,-0.328 -1.193,-0.491 -1.21,-0.643 -1.227,-0.795 -1.232,-0.92 -1.227,-1.017 c -0.419,0.205 -0.967,0.026 -1.643,-0.54 -0.056,-0.04 -0.464,-0.471 -1.224,-1.293 -0.791,-0.856 -1.224,-1.355 -1.3,-1.498 -0.262,-0.49 -0.141,-0.968 0.363,-1.434 0.071,-0.066 0.143,-0.133 0.216,-0.199 0.071,-0.066 0.156,-0.13 0.253,-0.189 l -1.939,-2.097 -5.812,5.375 1.939,2.097 c 0.514,-0.476 0.794,-0.719 0.84,-0.731 0.43,-0.277 0.836,-0.24 1.217,0.11 l 1.232,1.332 c 0.73,0.79 1.16,1.276 1.292,1.459 0.318,0.468 0.438,0.968 0.357,1.5 0.877,0.166 1.415,0.354 1.613,0.569 l 2.737,2.96 c 0.01,0.052 -0.047,0.135 -0.17,0.249 -0.381,0.352 -0.753,0.33 -1.118,-0.065 l -2.213,-2.393 -2.344,2.168 4.768,5.156 9.236,-8.54 -4.745,-5.132 z" /></g><g
             transform="translate(59.8628,28.4063)"
             id="g436"><path
               inkscape:connector-curvature="0"
               id="path438"
               style="fill:#b3a154;fill-opacity:1;fill-rule:nonzero;stroke:none"
               d="m 0,0 c -1.542,-0.058 -3.02,0.352 -4.434,1.229 -0.721,0.448 -1.217,0.861 -1.49,1.241 -1.322,1.784 -1.789,3.641 -1.402,5.57 0.066,0.44 0.49,1.624 1.27,3.55 0.538,1.352 0.711,2.345 0.52,2.976 0.718,0.217 1.49,0.763 2.315,1.637 0.175,0.193 0.415,0.45 0.72,0.774 0.303,0.323 0.679,0.723 1.125,1.199 1.244,1.307 2.584,2.042 4.022,2.204 1.235,0.139 2.396,-0.13 3.483,-0.805 1.034,-0.64 1.77,-1.716 2.209,-3.223 0.081,0.07 0.264,0.334 0.547,0.791 l 3.1,-1.924 -4.232,-6.82 -3.67,2.278 c 1.633,2.632 1.872,4.307 0.716,5.024 C 4.228,16.055 3.619,16.028 2.971,15.622 2.323,15.215 1.717,14.558 1.153,13.649 0.522,12.633 0.284,11.717 0.438,10.902 -0.4,10.614 -1.202,9.854 -1.966,8.62 -3.282,6.501 -3.334,5.066 -2.124,4.315 -1.431,3.885 -0.712,3.951 0.033,4.514 0.561,4.909 1.229,5.729 2.04,6.974 L 6.118,4.443 5.834,3.986 C 4.265,1.457 2.32,0.128 0,0" /></g><g
             transform="translate(90.6812,32.5206)"
             id="g440"><path
               inkscape:connector-curvature="0"
               id="path442"
               style="fill:#b3a154;fill-opacity:1;fill-rule:nonzero;stroke:none"
               d="m 0,0 c -0.093,0.048 -0.192,0.092 -0.297,0.131 -0.615,0.228 -1.087,0.061 -1.414,-0.499 -0.117,-0.175 -0.372,-0.791 -0.764,-1.847 -0.178,-0.479 -0.313,-0.852 -0.403,-1.119 -0.091,-0.268 -0.147,-0.451 -0.167,-0.553 -0.205,-0.825 -0.14,-1.477 0.194,-1.957 -0.563,-0.227 -1.035,-0.694 -1.417,-1.398 -0.169,-0.32 -0.451,-1.007 -0.843,-2.063 -0.393,-1.056 -0.619,-1.71 -0.678,-1.961 -0.136,-0.686 0.096,-1.141 0.696,-1.364 0.195,-0.072 0.433,-0.12 0.715,-0.143 l -1.138,-3.059 -7.693,2.86 1.138,3.06 c 0.749,-0.279 1.236,-0.119 1.459,0.481 l 1.365,3.671 -3.644,1.356 -1.338,-3.6 c -0.241,-0.647 0.021,-1.114 0.786,-1.398 l -1.138,-3.06 -7.626,2.836 1.138,3.06 c 0.095,-0.064 0.189,-0.112 0.278,-0.146 0.091,-0.033 0.173,-0.063 0.248,-0.092 0.615,-0.228 1.101,-0.068 1.46,0.482 0.118,0.228 0.397,0.93 0.834,2.107 0.018,0.048 0.044,0.119 0.08,0.216 0.045,0.119 0.097,0.236 0.157,0.352 l 0.227,0.611 c 0.419,1.128 0.426,2.04 0.019,2.738 0.497,0.006 0.967,0.419 1.408,1.238 0.042,0.067 0.268,0.652 0.678,1.755 0.5,1.344 0.742,2.087 0.727,2.23 -0.014,0.469 -0.491,0.838 -1.433,1.105 l 1.138,3.06 7.626,-2.835 -1.138,-3.06 c -0.756,0.308 -1.272,0.09 -1.548,-0.653 l -1.205,-3.239 3.644,-1.356 1.326,3.564 c 0.097,0.263 0.032,0.548 -0.196,0.851 -0.13,0.157 -0.269,0.264 -0.419,0.32 -0.045,0.016 -0.122,0.017 -0.229,0.003 L -6.25,5.744 1.443,2.884 0.306,-0.176 C 0.195,-0.107 0.093,-0.049 0,0" /></g><g
             transform="translate(102.1016,27.9571)"
             id="g444"><path
               inkscape:connector-curvature="0"
               id="path446"
               style="fill:#b3a154;fill-opacity:1;fill-rule:nonzero;stroke:none"
               d="M 0,0 -2.245,-4.822 0.673,-5.27 Z m -1.18,-14.504 0.495,3.227 c 0.249,-0.065 0.45,-0.102 0.602,-0.112 0.152,-0.01 0.27,-0.009 0.353,0.004 0.434,0.089 0.7,0.449 0.797,1.082 0.058,0.38 0.025,0.799 -0.098,1.258 L -3.8,-8.313 c -0.279,-0.554 -0.442,-0.982 -0.488,-1.286 -0.113,-0.733 0.116,-1.143 0.685,-1.231 l 1.091,-0.167 -0.494,-3.227 -7.283,1.118 0.495,3.225 c 0.079,-0.012 0.181,-0.027 0.308,-0.047 0.142,-0.022 0.306,-0.06 0.492,-0.114 0.455,-0.096 0.912,0.196 1.373,0.877 0.126,0.187 0.275,0.449 0.448,0.786 0.173,0.336 0.361,0.747 0.566,1.234 0.542,1.211 0.846,2.033 0.912,2.463 0.07,0.455 0.001,0.855 -0.205,1.197 0.648,0.004 1.377,0.799 2.186,2.384 0.688,1.319 1.096,2.396 1.224,3.231 -0.222,0.346 -0.444,0.535 -0.665,0.568 L -4.531,2.909 -4.037,6.136 7.611,4.35 7.117,1.124 C 6.898,1.183 6.711,1.225 6.553,1.249 6.411,1.271 6.308,1.286 6.245,1.296 5.889,1.299 5.565,1.192 5.273,0.979 5.209,-0.28 5.286,-1.522 5.503,-2.747 5.785,-4.396 6.216,-5.278 6.797,-5.393 6.521,-5.714 6.332,-6.215 6.227,-6.898 c -0.078,-0.506 -0.04,-1.47 0.114,-2.893 0.159,-1.5 0.339,-2.331 0.541,-2.491 0.19,-0.133 0.649,-0.255 1.377,-0.366 l -0.495,-3.227 z" /></g><g
             transform="translate(126.1197,27.6143)"
             id="g448"><path
               inkscape:connector-curvature="0"
               id="path450"
               style="fill:#b3a154;fill-opacity:1;fill-rule:nonzero;stroke:none"
               d="m 0,0 c -0.301,0.73 -0.619,1.09 -0.955,1.076 l -1.99,-0.08 0.23,-5.794 1.848,0.074 c 0.416,0.017 0.754,0.351 1.015,1.002 0.219,0.572 0.313,1.203 0.286,1.895 C 0.412,-1.266 0.268,-0.656 0,0 M 5.531,-3.161 C 5.352,-4.296 5.191,-5.058 5.047,-5.447 4.799,-6.099 4.326,-6.681 3.627,-7.195 2.881,-7.738 2.268,-8.019 1.787,-8.038 l -4.461,-0.178 0.102,-2.532 c 0.015,-0.359 0.121,-0.7 0.318,-1.025 0.195,-0.326 0.406,-0.484 0.631,-0.475 l 1.535,0.061 0.131,-3.261 -9.641,-0.386 -0.13,3.262 c 1.154,-0.031 1.831,0.252 2.031,0.849 0.089,0.183 0.105,0.991 0.048,2.424 -0.024,0.588 -0.047,1.055 -0.068,1.4 -0.023,0.344 -0.044,0.581 -0.065,0.709 -0.159,0.761 -0.468,1.287 -0.927,1.576 0.447,0.402 0.72,0.99 0.817,1.762 0.013,0.078 -0.004,0.705 -0.051,1.881 C -7.995,-0.666 -8.049,0.087 -8.105,0.29 -8.237,0.771 -8.678,0.997 -9.429,0.968 -9.558,0.962 -9.689,0.95 -9.824,0.933 -9.96,0.914 -10.107,0.889 -10.266,0.857 l -0.13,3.261 11.367,0.455 C 1.514,4.595 2.18,4.353 2.969,3.847 3.74,3.391 4.291,2.823 4.623,2.145 L 5.428,0.024 C 5.768,-0.858 6.023,-1.271 6.197,-1.213 5.879,-1.636 5.656,-2.285 5.531,-3.161" /></g><g
             transform="translate(146.7828,27.2032)"
             id="g452"><path
               inkscape:connector-curvature="0"
               id="path454"
               style="fill:#b3a154;fill-opacity:1;fill-rule:nonzero;stroke:none"
               d="m 0,0 -0.718,3.341 c -0.064,0.222 -0.2,0.454 -0.407,0.698 -0.208,0.243 -0.375,0.352 -0.5,0.325 l -0.563,-0.121 0.992,-4.618 c 0.021,-0.101 0.089,-0.224 0.202,-0.369 0.113,-0.147 0.241,-0.289 0.386,-0.428 0.144,-0.14 0.282,-0.266 0.414,-0.382 0.131,-0.116 0.244,-0.203 0.338,-0.261 -0.468,-0.258 -0.661,-0.888 -0.576,-1.891 0,-0.079 0.135,-0.744 0.404,-1.995 0.279,-1.302 0.462,-2.035 0.546,-2.2 0.285,-0.568 0.811,-0.769 1.578,-0.604 l 0.328,0.07 c 0.109,0.024 0.224,0.061 0.345,0.114 l 0.684,-3.192 -8.846,-1.899 -0.685,3.191 c 0.782,0.168 1.194,0.27 1.235,0.305 0.542,0.221 0.775,0.624 0.697,1.21 l -0.434,2.027 c -0.258,1.201 -0.43,1.924 -0.515,2.168 -0.228,0.605 -0.617,1.045 -1.167,1.321 0.422,0.927 0.599,1.554 0.529,1.88 L -6.7,3.195 C -6.743,3.238 -6.857,3.24 -7.045,3.2 -7.624,3.076 -7.849,2.713 -7.72,2.112 l 0.783,-3.641 -3.568,-0.766 -1.684,7.847 14.055,3.017 1.677,-7.808 z" /></g><g
             transform="translate(164.7574,33.3653)"
             id="g456"><path
               inkscape:connector-curvature="0"
               id="path458"
               style="fill:#b3a154;fill-opacity:1;fill-rule:nonzero;stroke:none"
               d="m 0,0 -0.997,2.496 c -0.2,0.499 -0.631,0.823 -1.293,0.972 -0.506,0.101 -0.878,0.104 -1.115,0.01 l -1.516,-0.606 1.781,-4.458 2.608,1.042 1.425,-3.565 -2.608,-1.042 1.738,-4.351 2.229,0.891 c 0.803,0.32 0.781,1.538 -0.064,3.654 -0.019,0.048 -0.062,0.154 -0.128,0.321 -0.077,0.191 -0.179,0.425 -0.308,0.704 l 3.231,1.291 2.893,-7.238 -13.64,-5.45 -1.211,3.031 1.582,0.632 c 0.372,0.148 0.414,0.689 0.127,1.622 l -0.626,1.569 c -0.485,1.213 -0.749,1.852 -0.792,1.917 -0.393,0.725 -0.884,1.135 -1.473,1.231 0.322,0.486 0.406,1.072 0.254,1.756 -0.065,0.249 -0.284,0.838 -0.654,1.764 -0.503,1.26 -0.877,1.98 -1.12,2.159 -0.443,0.374 -1.204,0.317 -2.285,-0.169 L -13.173,3.214 0.533,8.69 3.454,1.38 Z" /></g><g
             transform="translate(180.0064,45.9073)"
             id="g460"><path
               inkscape:connector-curvature="0"
               id="path462"
               style="fill:#b3a154;fill-opacity:1;fill-rule:nonzero;stroke:none"
               d="m 0,0 c -0.486,0.264 -0.885,0.295 -1.192,0.095 l -1.811,-1.179 2.64,-4.055 1.871,1.218 C 1.789,-3.738 1.883,-3.326 1.79,-2.684 1.726,-2.146 1.533,-1.629 1.212,-1.136 0.891,-0.643 0.486,-0.264 0,0 m 10.392,-12.112 c -0.322,-0.21 -0.837,-0.195 -1.548,0.046 -0.683,0.227 -1.192,0.598 -1.527,1.114 l -1.781,2.735 c -0.224,0.343 -0.574,0.588 -1.052,0.736 -0.477,0.146 -0.824,0.15 -1.038,0.01 L 1.757,-8.57 3.328,-10.983 c 0.419,-0.644 0.798,-0.963 1.137,-0.955 0.068,0.012 0.418,0.194 1.049,0.544 l 1.781,-2.735 -7.401,-4.819 -1.782,2.735 c 1.007,0.565 1.445,1.154 1.311,1.771 -0.018,0.202 -0.417,0.903 -1.199,2.105 -0.657,1.008 -1.082,1.617 -1.276,1.827 -0.485,0.51 -1.011,0.762 -1.582,0.758 0.332,0.429 0.299,1.064 -0.095,1.907 -0.03,0.074 -0.378,0.624 -1.049,1.655 -0.712,1.093 -1.145,1.713 -1.297,1.859 -0.359,0.346 -0.854,0.314 -1.484,-0.096 -0.107,-0.07 -0.214,-0.147 -0.322,-0.232 -0.106,-0.085 -0.22,-0.182 -0.34,-0.29 l -1.781,2.735 9.654,6.285 C -0.57,4.577 0.369,4.777 1.471,4.669 2.925,4.517 4.221,3.817 5.356,2.571 5.481,2.408 5.776,2.264 6.24,2.139 6.304,1.63 6.363,1.142 6.42,0.675 6.476,0.207 6.515,-0.233 6.536,-0.647 6.643,-2.044 6.436,-2.942 5.914,-3.344 6.387,-3.219 6.909,-3.215 7.481,-3.331 8.407,-3.492 9.087,-3.905 9.52,-4.57 l 1.424,-2.188 c 0.182,-0.279 0.469,-0.398 0.862,-0.356 0.271,0.023 0.466,0.075 0.587,0.154 0.067,0.043 0.114,0.089 0.14,0.137 l 1.78,-2.736 z" /></g></g></g></g></g></svg>