<?xml version="1.0" encoding="UTF-8" standalone="no"?>
<!-- Created with Inkscape (http://www.inkscape.org/) -->

<svg
   width="10mm"
   height="10.00008mm"
   viewBox="0 0 10 10.00008"
   version="1.1"
   id="svg20928"
   inkscape:version="1.2.1 (9c6d41e410, 2022-07-14)"
   sodipodi:docname="instagram.svg"
   xmlns:inkscape="http://www.inkscape.org/namespaces/inkscape"
   xmlns:sodipodi="http://sodipodi.sourceforge.net/DTD/sodipodi-0.dtd"
   xmlns="http://www.w3.org/2000/svg"
   xmlns:svg="http://www.w3.org/2000/svg">
  <sodipodi:namedview
     id="namedview20930"
     pagecolor="#505050"
     bordercolor="#eeeeee"
     borderopacity="1"
     inkscape:showpageshadow="0"
     inkscape:pageopacity="0"
     inkscape:pagecheckerboard="0"
     inkscape:deskcolor="#505050"
     inkscape:document-units="mm"
     showgrid="false"
     inkscape:zoom="0.96301207"
     inkscape:cx="122.53221"
     inkscape:cy="-161.47253"
     inkscape:window-width="1377"
     inkscape:window-height="1259"
     inkscape:window-x="1826"
     inkscape:window-y="637"
     inkscape:window-maximized="0"
     inkscape:current-layer="layer1" />
  <defs
     id="defs20925" />
  <g
     inkscape:label="Layer 1"
     inkscape:groupmode="layer"
     id="layer1"
     transform="translate(-36.761332,-191.16832)">
    <path
       d="m 41.761292,192.06956 c 1.33499,0 1.49332,0.005 2.02082,0.0291 1.35499,0.0617 1.9879,0.70458 2.04957,2.04956 0.0242,0.52709 0.0288,0.68542 0.0288,2.02042 0,1.33541 -0.005,1.49331 -0.0288,2.02039 -0.062,1.34374 -0.69332,1.98791 -2.04957,2.04958 -0.5275,0.0241 -0.685,0.0291 -2.02082,0.0291 -1.335,0 -1.49333,-0.005 -2.02041,-0.0291 -1.35832,-0.062 -1.98789,-0.70792 -2.04956,-2.04999 -0.0241,-0.52708 -0.0291,-0.685 -0.0291,-2.02041 0,-1.33498 0.005,-1.4929 0.0291,-2.0204 0.062,-1.34457 0.69332,-1.9879 2.04956,-2.04957 0.52751,-0.0238 0.68541,-0.0288 2.02041,-0.0288 z m 0,-0.90124 c -1.35791,0 -1.52791,0.006 -2.06124,0.0301 -1.81582,0.0833 -2.82498,1.09083 -2.90832,2.90831 -0.0246,0.53375 -0.0304,0.70374 -0.0304,2.06166 0,1.35791 0.006,1.52832 0.0301,2.06165 0.0833,1.81582 1.09083,2.82498 2.90831,2.90832 0.53376,0.0243 0.70376,0.0301 2.06166,0.0301 1.35791,0 1.52832,-0.006 2.06165,-0.0301 1.81417,-0.0833 2.82581,-1.09083 2.90791,-2.90832 0.0246,-0.53333 0.0304,-0.70374 0.0304,-2.06165 0,-1.35792 -0.006,-1.52791 -0.0301,-2.06123 -0.0817,-1.81417 -1.09042,-2.82499 -2.9079,-2.90832 -0.53375,-0.0246 -0.70417,-0.0304 -2.06207,-0.0304 z m 0,2.43249 c -1.41791,0 -2.56748,1.14957 -2.56748,2.56748 0,1.41791 1.14957,2.5679 2.56748,2.5679 1.41792,0 2.56748,-1.14958 2.56748,-2.5679 0,-1.41791 -1.14956,-2.56748 -2.56748,-2.56748 z m 0,4.23413 c -0.92042,0 -1.66666,-0.74582 -1.66666,-1.66665 0,-0.92041 0.74624,-1.66665 1.66666,-1.66665 0.92041,0 1.66665,0.74624 1.66665,1.66665 0,0.92083 -0.74624,1.66665 -1.66665,1.66665 z m 2.66915,-4.93539 c -0.33167,0 -0.60042,0.26876 -0.60042,0.6 0,0.33126 0.26875,0.6 0.60042,0.6 0.33124,0 0.59957,-0.26874 0.59957,-0.6 0,-0.33124 -0.26833,-0.6 -0.59957,-0.6 z"
       id="path2322"
       style="stroke-width:0.416663;fill:#b3a154;fill-opacity:1" />
  </g>
</svg>
