<?xml version="1.0" encoding="UTF-8" standalone="no"?>
<!-- Created with Inkscape (http://www.inkscape.org/) -->

<svg
   width="362.67117mm"
   height="197.29395mm"
   viewBox="0 0 362.67117 197.29395"
   version="1.1"
   id="svg378"
   sodipodi:docname="activitiesofficer.svg"
   inkscape:version="1.2.1 (9c6d41e410, 2022-07-14)"
   xmlns:inkscape="http://www.inkscape.org/namespaces/inkscape"
   xmlns:sodipodi="http://sodipodi.sourceforge.net/DTD/sodipodi-0.dtd"
   xmlns="http://www.w3.org/2000/svg"
   xmlns:svg="http://www.w3.org/2000/svg">
  <sodipodi:namedview
     id="namedview380"
     pagecolor="#505050"
     bordercolor="#eeeeee"
     borderopacity="1"
     inkscape:showpageshadow="0"
     inkscape:pageopacity="0"
     inkscape:pagecheckerboard="0"
     inkscape:deskcolor="#505050"
     inkscape:document-units="mm"
     showgrid="false"
     inkscape:zoom="0.085119045"
     inkscape:cx="587.4126"
     inkscape:cy="-569.79022"
     inkscape:window-width="1377"
     inkscape:window-height="1259"
     inkscape:window-x="1804"
     inkscape:window-y="626"
     inkscape:window-maximized="0"
     inkscape:current-layer="layer1" />
  <defs
     id="defs375" />
  <g
     inkscape:label="Layer 1"
     inkscape:groupmode="layer"
     id="layer1"
     transform="translate(349.18874,-706.42648)">
    <g
       id="g10958"
       transform="translate(-1243.3567,-442.94581)">
      <path
         style="fill:#241c17;stroke:none;stroke-width:0.264583"
         d="m 1065.5596,1149.3922 c -51.5723,0.6866 -99.42864,22.5697 -137.84794,56.3919 -7.9002,6.9549 -15.5734,14.0298 -23.0188,21.4723 -3.1945,3.1932 -7.5994,6.3005 -9.4021,10.5833 -1.7715,4.2088 -0.9166,9.0707 -0.9166,13.4938 0,9.3665 0.2646,18.6759 0.2646,28.0458 0,12.8207 0.1949,25.5889 1.004,38.3646 0.2793,4.4106 -0.1067,8.8265 0.4712,13.2292 0.4344,3.3073 0.32,6.9823 0.376,10.3187 0.028,1.6801 0.2948,4.0905 1.8674,5.0906 1.9828,1.2621 4.5168,-2.0267 5.8064,-3.1618 4.9972,-4.4 9.4755,-10.1044 13.83,-15.158 18.1467,-21.0597 41.6555,-38.3312 66.3387,-50.9254 11.5388,-5.8872 24.22504,-10.2581 36.77714,-13.3961 4.5238,-1.1308 8.9005,-1.8351 13.7583,-2.5252 13.3606,-1.8978 26.705,-3.7007 40.2167,-3.3017 37.2589,1.0999 74.9723,10.7897 107.1562,29.985 19.0977,11.3905 35.1632,25.7989 51.8584,40.2746 4.3603,3.7835 8.5778,7.7337 12.9646,11.4855 1.2409,1.0637 3.6353,3.6672 5.2943,3.5798 3.4078,-0.1772 3.72,-3.1406 4.1169,-5.916 0.8996,-6.2786 -0.1508,-12.9964 -0.1508,-19.3146 0,-8.3696 -0.7726,-16.7749 -0.7726,-25.1354 0,-11.4261 -0.209,-22.7301 -1.2991,-34.1313 -0.4842,-5.0564 -0.9366,-10.0393 -1.5558,-15.0812 -0.3571,-2.8941 -0.8043,-6.2127 -2.4526,-8.7313 -11.6311,-17.7803 -28.9481,-30.2805 -46.3074,-41.9814 -6.3606,-4.2879 -12.6074,-8.817 -19.3146,-12.5593 -36.5416,-20.3858 -77.1919,-31.5539 -119.0625,-30.9964"
         id="path365-4-2-0-9-3-9-3"
         sodipodi:nodetypes="csssssscsccsccsccccccsscccccc" />
      <path
         id="path436-8-8-6-4-4-3-4"
         style="fill:#f0d3b6;fill-opacity:1;stroke:none;stroke-width:0.264583px;stroke-linecap:butt;stroke-linejoin:miter;stroke-opacity:1"
         d="m 1071.5806,1160.1553 c -61.0749,0.6842 -119.18384,29.4682 -160.45854,76.4181 -8.0032,9.1036 -6.7322,10.536 -6.6058,18.2619 0.1265,7.7259 0.3887,70.7161 0.3887,70.7161 79.4977,-89.7656 238.48724,-109.3094 338.47344,1.4402 -0.5525,-0.034 -0.7864,-49.9767 -0.8046,-73.6203 -0.01,-10.3976 -3.0429,-15.6027 -8.1598,-20.9817 -46.1642,-48.529 -105.46,-72.877 -162.8334,-72.2343 z m 4.671,11.1089 c 59.8351,-0.1564 117.5209,27.0445 157.7547,76.1886 l -1.1658,55.5625 c -85.5049,-78.7795 -207.8014,-90.3692 -318.22144,-3.4969 v -50.8998 c 47.3183,-52.9187 105.42384,-77.2075 161.63254,-77.3544 z"
         sodipodi:nodetypes="sssccssssccccs" />
      <g
         aria-label="ACTIVITIES OFFICER"
         transform="rotate(-129.06422,908.2275,703.54436)"
         id="text8150-4-0-6-7-9"
         style="font-size:37.6382px;line-height:1.25;font-family:Argentum;-inkscape-font-specification:Argentum;letter-spacing:0px;word-spacing:0px;fill:#f0d3b6;stroke-width:0.940955">
        <path
           d="m 449.39058,379.37503 0.231,-4.84629 6.20481,-1.63614 0.41999,-8.81145 -6.02632,-2.10873 0.22574,-4.73615 26.50215,9.87387 -0.22487,4.7178 z m 11.03828,-7.69817 10.13068,-2.55295 -9.84368,-3.46821 z"
           style="font-weight:bold;font-stretch:condensed;font-family:Arial;-inkscape-font-specification:'Arial Bold Condensed'"
           id="path845" />
        <path
           d="m 456.84055,397.14649 -2.27426,4.03448 q -4.3294,-1.64846 -6.06562,-4.2769 -1.71804,-2.6258 -1.22537,-6.02699 0.61914,-4.27423 4.29585,-6.45284 4.24395,-2.50499 10.70076,-1.5697 6.82058,0.98798 10.23123,4.62032 2.95934,3.15843 2.30596,7.66911 -0.53219,3.67401 -3.40047,5.78403 -2.038,1.50607 -5.66688,1.81606 l -0.64087,-4.54959 q 2.22499,-0.10481 3.55264,-1.19382 1.34319,-1.06818 1.58821,-2.75969 0.35041,-2.41903 -1.53812,-4.25245 -1.88852,-1.83342 -6.74477,-2.53686 -5.03813,-0.72979 -7.38219,0.45339 -2.34406,1.18319 -2.68919,3.56584 -0.25293,1.74607 0.90858,3.2142 1.17969,1.47077 4.04451,2.46141 z"
           style="font-weight:bold;font-stretch:condensed;font-family:Arial;-inkscape-font-specification:'Arial Bold Condensed'"
           id="path847" />
        <path
           d="m 444.44629,408.57253 21.77689,5.17974 1.51821,-6.38288 4.43404,1.05466 -4.06129,17.07466 -4.43405,-1.05466 1.51395,-6.36501 -21.7769,-5.17974 z"
           style="font-weight:bold;font-stretch:condensed;font-family:Arial;-inkscape-font-specification:'Arial Bold Condensed'"
           id="path849" />
        <path
           d="m 440.99312,421.87711 25.78985,7.7952 -1.28679,4.25726 -25.78985,-7.7952 z"
           style="font-weight:bold;font-stretch:condensed;font-family:Arial;-inkscape-font-specification:'Arial Bold Condensed'"
           id="path851" />
        <path
           d="m 436.5434,435.52143 27.99803,2.03766 -1.69063,4.52811 -20.63477,-1.74064 16.79068,12.03648 -1.65849,4.44202 -22.47617,-16.82717 z"
           style="font-weight:bold;font-stretch:condensed;font-family:Arial;-inkscape-font-specification:'Arial Bold Condensed'"
           id="path853" />
        <path
           d="m 431.05863,449.27936 24.58881,11.01233 -1.81786,4.059 -24.58882,-11.01233 z"
           style="font-weight:bold;font-stretch:condensed;font-family:Arial;-inkscape-font-specification:'Arial Bold Condensed'"
           id="path855" />
        <path
           d="m 425.20978,461.65726 19.84571,10.35427 3.03487,-5.81685 4.04084,2.10826 -8.1185,15.56047 -4.04083,-2.10826 3.02637,-5.80055 -19.84571,-10.35426 z"
           style="font-weight:bold;font-stretch:condensed;font-family:Arial;-inkscape-font-specification:'Arial Bold Condensed'"
           id="path857" />
        <path
           d="m 418.60505,473.71179 23.10072,13.865 -2.28877,3.81335 -23.10071,-13.865 z"
           style="font-weight:bold;font-stretch:condensed;font-family:Arial;-inkscape-font-specification:'Arial Bold Condensed'"
           id="path859" />
        <path
           d="m 414.14906,481.22594 22.17826,15.29726 -9.30775,13.49455 -3.75185,-2.5878 6.78255,-9.83347 -4.91673,-3.39128 -6.30256,9.13756 -3.73672,-2.57737 6.30256,-9.13756 -6.03624,-4.16345 -7.01212,10.1663 -3.73671,-2.57737 z"
           style="font-weight:bold;font-stretch:condensed;font-family:Arial;-inkscape-font-specification:'Arial Bold Condensed'"
           id="path861" />
        <path
           d="m 409.76597,502.78128 -2.38608,3.68002 q -4.44308,-2.73289 -7.04903,0.40634 -1.29123,1.55548 -1.22474,3.11544 0.0806,1.5717 1.2826,2.56947 0.70703,0.58693 1.46021,0.68668 0.75317,0.0997 1.5925,-0.27833 0.85346,-0.36635 3.63368,-2.19055 2.48408,-1.6401 4.10699,-2.01261 1.62291,-0.37252 3.38619,0.0642 1.76568,0.46256 3.22217,1.67162 1.69689,1.40862 2.42052,3.29912 0.71189,1.90463 0.27789,3.83732 -0.43401,1.9327 -2.08914,3.92654 -2.48856,2.99783 -5.51162,3.33064 -3.02306,0.33282 -6.13134,-2.08024 l 2.66862,-3.58879 q 1.85642,1.15889 3.14318,0.96115 1.28675,-0.19775 2.43712,-1.58354 1.15038,-1.38579 1.19275,-2.61652 0.0424,-1.23074 -0.82021,-1.94679 -0.84844,-0.70431 -1.99166,-0.50683 -1.14322,0.19747 -3.86687,2.06863 -2.89761,1.9656 -4.68273,2.41843 -1.78271,0.4787 -3.60256,-0.005 -1.8057,-0.47189 -3.67227,-2.02137 -2.70087,-2.24205 -3.15402,-5.43666 -0.46489,-3.18047 2.46974,-6.71565 5.18842,-6.25019 12.88811,-1.05275 z"
           style="font-weight:bold;font-stretch:condensed;font-family:Arial;-inkscape-font-specification:'Arial Bold Condensed'"
           id="path863" />
        <path
           d="m 392.762,529.18461 q 3.26321,3.54064 4.32753,6.78353 1.06326,3.26885 0.40778,5.94737 -0.65547,2.67853 -3.06095,4.89551 -3.48658,3.21339 -8.12946,2.56886 -4.6564,-0.63208 -9.19001,-5.55114 -4.58343,-4.97312 -4.83722,-9.91275 -0.23866,-4.35374 3.26144,-7.57958 3.52713,-3.25075 7.82208,-2.68544 4.90257,0.65513 9.39881,5.53364 z m -3.25392,3.24889 q -3.15111,-3.41902 -6.03023,-3.93961 -2.86666,-0.50707 -4.78563,1.26153 -1.93249,1.78107 -1.64592,4.64107 0.29902,2.87352 3.53731,6.38713 3.17602,3.44605 5.9388,3.94889 2.74928,0.51529 4.74933,-1.32805 2.00006,-1.84333 1.72489,-4.66386 -0.27517,-2.82052 -3.48855,-6.3071 z"
           style="font-weight:bold;font-stretch:condensed;font-family:Arial;-inkscape-font-specification:'Arial Bold Condensed'"
           id="path865" />
        <path
           d="m 365.18233,536.05905 16.34877,21.41492 -12.03676,9.18922 -2.76569,-3.62271 8.5017,-6.49045 -3.86973,-5.06888 -7.34769,5.60944 -2.76568,-3.62271 7.34768,-5.60944 -6.94767,-9.10061 z"
           style="font-weight:bold;font-stretch:condensed;font-family:Arial;-inkscape-font-specification:'Arial Bold Condensed'"
           id="path867" />
        <path
           d="m 350.07974,547.35511 14.54744,22.67716 -12.74624,8.17673 -2.46096,-3.83624 9.00281,-5.77531 -3.44336,-5.36765 -7.78077,4.99137 -2.46096,-3.83624 7.78077,-4.99138 -6.18216,-9.63702 z"
           style="font-weight:bold;font-stretch:condensed;font-family:Arial;-inkscape-font-specification:'Arial Bold Condensed'"
           id="path869" />
        <path
           d="m 334.20119,557.21022 13.17133,23.50314 -3.87978,2.17426 -13.17133,-23.50314 z"
           style="font-weight:bold;font-stretch:condensed;font-family:Arial;-inkscape-font-specification:'Arial Bold Condensed'"
           id="path871" />
        <path
           d="m 318.10318,576.56282 -4.61861,0.34301 q -1.02735,-4.51726 0.1982,-7.41919 1.23344,-2.88533 4.33753,-4.36028 3.90086,-1.85355 7.752,-6.3e-4 4.43718,2.14419 7.23722,8.03697 2.9578,6.22477 1.82464,11.07683 -0.98882,4.21374 -5.10547,6.16983 -3.35308,1.59326 -6.69907,0.37524 -2.38311,-0.86166 -4.65236,-3.71041 l 3.43173,-3.05494 q 1.3204,1.79391 2.96266,2.29544 1.63356,0.52602 3.1773,-0.20752 2.20772,-1.04903 2.68713,-3.6371 0.4794,-2.58808 -1.62655,-7.02012 -2.18482,-4.59803 -4.4688,-5.89339 -2.28398,-1.29536 -4.45851,-0.2621 -1.59354,0.75719 -2.17182,2.53767 -0.5704,1.79708 0.19278,4.73069 z"
           style="font-weight:bold;font-stretch:condensed;font-family:Arial;-inkscape-font-specification:'Arial Bold Condensed'"
           id="path873" />
        <path
           d="m 306.38715,570.88504 9.23759,25.30905 -15.3995,5.62069 -1.56271,-4.28147 11.22162,-4.0958 -2.0479,-5.61081 -10.42747,3.80594 -1.5564,-4.26421 10.42746,-3.80594 -2.51418,-6.88834 -11.60143,4.23442 -1.5564,-4.26421 z"
           style="font-weight:bold;font-stretch:condensed;font-family:Arial;-inkscape-font-specification:'Arial Bold Condensed'"
           id="path875" />
        <path
           d="m 286.98504,577.78262 6.82753,26.06274 -9.08462,2.37985 q -3.48452,0.91282 -5.16417,0.59291 -1.675,-0.30214 -3.09142,-1.79291 -1.41178,-1.47298 -2.04516,-3.89081 -0.80105,-3.05784 0.18552,-5.31109 0.9688,-2.2486 3.54533,-3.43651 -1.6475,-0.63231 -2.86622,-1.58593 -1.21406,-0.93583 -3.57959,-3.58383 l -3.92758,-4.40459 5.13788,-1.34595 4.61462,4.85155 q 2.49462,2.63318 3.29934,3.23929 0.80938,0.62389 1.55946,0.73137 0.75474,0.12525 2.24811,-0.26596 l 0.8889,-0.23286 -2.85023,-10.88022 z m -0.36227,16.16735 -3.20006,0.83831 q -2.9334,0.76844 -3.66821,1.22691 -0.73016,0.47625 -1.02303,1.38889 -0.29286,0.91264 0.0471,2.21045 0.32601,1.24446 1.0194,1.86074 0.69805,0.63406 1.62592,0.69496 0.65569,0.0372 3.55352,-0.72192 l 3.37785,-0.88487 z"
           style="font-weight:bold;font-stretch:condensed;font-family:Arial;-inkscape-font-specification:'Arial Bold Condensed'"
           id="path877" />
      </g>
    </g>
  </g>
</svg>
