<?xml version="1.0" encoding="UTF-8" standalone="no"?>
<!-- Created with Inkscape (http://www.inkscape.org/) -->

<svg
   width="362.67117mm"
   height="197.29395mm"
   viewBox="0 0 362.67117 197.29395"
   version="1.1"
   id="svg378"
   sodipodi:docname="assistantdirector.svg"
   inkscape:version="1.2.1 (9c6d41e410, 2022-07-14)"
   xmlns:inkscape="http://www.inkscape.org/namespaces/inkscape"
   xmlns:sodipodi="http://sodipodi.sourceforge.net/DTD/sodipodi-0.dtd"
   xmlns="http://www.w3.org/2000/svg"
   xmlns:svg="http://www.w3.org/2000/svg">
  <sodipodi:namedview
     id="namedview380"
     pagecolor="#505050"
     bordercolor="#eeeeee"
     borderopacity="1"
     inkscape:showpageshadow="0"
     inkscape:pageopacity="0"
     inkscape:pagecheckerboard="0"
     inkscape:deskcolor="#505050"
     inkscape:document-units="mm"
     showgrid="false"
     inkscape:zoom="0.085119045"
     inkscape:cx="581.53848"
     inkscape:cy="-558.04197"
     inkscape:window-width="3440"
     inkscape:window-height="1369"
     inkscape:window-x="-8"
     inkscape:window-y="535"
     inkscape:window-maximized="1"
     inkscape:current-layer="layer1" />
  <defs
     id="defs375" />
  <g
     inkscape:label="Layer 1"
     inkscape:groupmode="layer"
     id="layer1"
     transform="translate(349.18874,-706.42648)">
    <g
       id="g11041"
       transform="translate(-414.9703,-568.83561)">
      <path
         style="fill:#241c17;stroke:none;stroke-width:0.264583"
         d="m 237.17317,1275.282 c -51.5723,0.6866 -99.42859,22.5697 -137.847894,56.3919 -7.9002,6.9549 -15.5734,14.0298 -23.0188,21.4723 -3.1945,3.1932 -7.5994,6.3005 -9.4021,10.5833 -1.7715,4.2087 -0.9166,9.0707 -0.9166,13.4938 0,9.3665 0.2646,18.6758 0.2646,28.0458 0,12.8206 0.1949,25.5889 1.004,38.3646 0.2793,4.4106 -0.1067,8.8265 0.4712,13.2291 0.4344,3.3073 0.32,6.9824 0.376,10.3188 0.028,1.6801 0.2948,4.0905 1.8674,5.0906 1.9828,1.262 4.5168,-2.0267 5.8064,-3.1618 4.9972,-4.4 9.4755,-10.1044 13.83,-15.158 18.146704,-21.0597 41.655504,-38.3312 66.338704,-50.9254 11.53879,-5.8872 24.22499,-10.2581 36.77709,-13.3961 4.5238,-1.1308 8.9005,-1.8351 13.7583,-2.5252 13.3606,-1.8978 26.705,-3.7007 40.2167,-3.3017 37.2589,1.0999 74.9723,10.7897 107.1562,29.9849 19.09771,11.3906 35.16321,25.799 51.85841,40.2747 4.3603,3.7835 8.5778,7.7337 12.9646,11.4855 1.2409,1.0636 3.6353,3.6671 5.2943,3.5798 3.4078,-0.1772 3.72,-3.1406 4.1169,-5.9161 0.8996,-6.2785 -0.1508,-12.9963 -0.1508,-19.3145 0,-8.3696 -0.7726,-16.7749 -0.7726,-25.1355 0,-11.426 -0.209,-22.73 -1.2991,-34.1312 -0.4842,-5.0565 -0.9366,-10.0394 -1.5558,-15.0813 -0.3571,-2.894 -0.8043,-6.2126 -2.4526,-8.7312 -11.6311,-17.7803 -28.9481,-30.2805 -46.3074,-41.9814 -6.3606,-4.2879 -12.60741,-8.817 -19.31461,-12.5593 -36.5416,-20.3859 -77.1919,-31.5539 -119.0625,-30.9964"
         id="path365-4-2-0-3-3"
         sodipodi:nodetypes="csssssscsccsccsccccccsscccccc" />
      <path
         id="path436-8-8-6-5-4"
         style="fill:#f0d3b6;fill-opacity:1;stroke:none;stroke-width:0.264583px;stroke-linecap:butt;stroke-linejoin:miter;stroke-opacity:1"
         d="m 243.19417,1284.9868 c -61.0749,0.6842 -119.18379,29.4681 -160.458494,76.418 -8.0032,9.1037 -6.7322,10.5361 -6.6058,18.262 0.1265,7.7258 0.3887,70.7161 0.3887,70.7161 79.497704,-89.7656 238.487194,-109.3094 338.473404,1.4402 -0.5525,-0.033 -0.7864,-49.9767 -0.8046,-73.6203 -0.01,-10.3976 -3.0429,-15.6027 -8.1598,-20.9817 -46.16421,-48.529 -105.46001,-72.8771 -162.83341,-72.2343 z m 4.671,11.1089 c 59.8351,-0.1564 117.5209,27.0445 157.75471,76.1886 l -1.1658,55.5625 c -85.50491,-78.7795 -207.80141,-90.3692 -318.221404,-3.497 v -50.8997 c 47.318304,-52.9187 105.423794,-77.2075 161.632494,-77.3544 z"
         sodipodi:nodetypes="sssccssssccccs" />
      <g
         aria-label="ASSISTANT DIRECTOR"
         transform="matrix(-0.62506514,-0.6812234,0.6812234,-0.62506514,139.80528,1933.8366)"
         id="text8150-4-0-6-7"
         style="font-size:37.4703px;line-height:1.25;font-family:Argentum;-inkscape-font-specification:Argentum;letter-spacing:0px;word-spacing:0px;fill:#f0d3b6;stroke-width:0.936758">
        <path
           d="m 449.39762,379.27641 0.22893,-4.82473 6.17679,-1.63016 0.41624,-8.77223 -5.99989,-2.09804 0.22373,-4.71507 26.38603,9.82418 -0.22287,4.6968 z m 10.9874,-7.66619 10.08495,-2.54372 -9.80052,-3.45064 z"
           style="font-weight:bold;font-stretch:condensed;font-family:Arial;-inkscape-font-specification:'Arial Bold Condensed'"
           id="path880" />
        <path
           d="m 457.84271,381.71666 -0.0958,4.36526 q -5.19301,0.01 -5.75795,4.03189 -0.27993,1.993 0.59249,3.2795 0.89053,1.28904 2.43058,1.50535 0.90591,0.12724 1.59603,-0.18229 0.69013,-0.30954 1.20324,-1.06887 0.53124,-0.75679 1.93175,-3.75636 1.246,-2.68872 2.42572,-3.85327 1.17973,-1.16455 2.90167,-1.71714 1.73752,-0.53194 3.6037,-0.26982 2.17418,0.30537 3.77611,1.52805 1.59938,1.2408 2.24288,3.10484 0.64349,1.86405 0.28468,4.41871 -0.5395,3.84106 -2.92592,5.70448 -2.38642,1.86341 -6.28153,1.44566 l 0.38284,-4.43581 q 2.17867,0.0104 3.1651,-0.83026 0.98643,-0.84066 1.23581,-2.61625 0.24939,-1.77558 -0.35858,-2.84018 -0.60797,-1.0646 -1.71318,-1.21984 -1.08709,-0.15268 -1.95209,0.61265 -0.865,0.76534 -2.19304,3.7751 -1.42596,3.18075 -2.70106,4.49819 -1.25953,1.33809 -3.05394,1.88051 -1.7763,0.54496 -4.16791,0.20905 -3.46057,-0.48605 -5.51566,-2.95482 -2.05762,-2.45065 -1.42143,-6.9802 1.1248,-8.00825 10.36549,-7.63413 z"
           style="font-weight:bold;font-stretch:condensed;font-family:Arial;-inkscape-font-specification:'Arial Bold Condensed'"
           id="path882" />
        <path
           d="m 454.75068,402.77064 -0.48483,4.33932 q -5.17316,-0.45365 -6.09466,3.50216 -0.4566,1.96009 0.29757,3.31928 0.772,1.36335 2.28661,1.71618 0.89095,0.20754 1.60593,-0.0392 0.71498,-0.24674 1.29379,-0.95727 0.59663,-0.70639 2.25914,-3.56907 1.48088,-2.56685 2.75978,-3.62151 1.27891,-1.05467 3.04329,-1.45145 1.77804,-0.37482 3.61339,0.0527 2.13828,0.49811 3.62475,1.85882 1.48232,1.37853 1.95696,3.29254 0.47465,1.91402 -0.11063,4.42649 -0.87999,3.77762 -3.42313,5.42072 -2.54313,1.64311 -6.38545,0.87955 l 0.77702,-4.38397 q 2.16906,0.2047 3.22654,-0.54461 1.05749,-0.74931 1.46428,-2.49557 0.40679,-1.74626 -0.10379,-2.86085 -0.51058,-1.11459 -1.59754,-1.3678 -1.06914,-0.24905 -1.99896,0.43607 -0.92982,0.68513 -2.52105,3.56441 -1.70402,3.04087 -3.09156,4.23931 -1.37387,1.2204 -3.20953,1.60058 -1.81783,0.38433 -4.16993,-0.16358 -3.40342,-0.79283 -5.23008,-3.43508 -1.83081,-2.62443 -0.79309,-7.07917 1.8347,-7.87598 11.00518,-6.67903 z"
           style="font-weight:bold;font-stretch:condensed;font-family:Arial;-inkscape-font-specification:'Arial Bold Condensed'"
           id="path884" />
        <path
           d="m 441.06453,421.63164 25.6838,7.7306 -1.27613,4.23976 -25.6838,-7.7306 z"
           style="font-weight:bold;font-stretch:condensed;font-family:Arial;-inkscape-font-specification:'Arial Bold Condensed'"
           id="path886" />
        <path
           d="m 447.17801,431.95042 -1.03064,4.24294 q -5.07401,-1.10533 -6.48922,2.70187 -0.70122,1.88645 -0.12531,3.33024 0.59306,1.45016 2.05077,1.99201 0.85748,0.31874 1.59796,0.16457 0.74048,-0.15417 1.40464,-0.78566 0.6813,-0.62511 2.69307,-3.25412 1.79412,-2.35856 3.19633,-3.24272 1.40221,-0.88415 3.20264,-1.05422 1.8112,-0.14656 3.5776,0.51005 2.05795,0.76497 3.36007,2.30303 1.29574,1.55521 1.52409,3.51393 0.22835,1.95872 -0.6705,4.37681 -1.35145,3.6357 -4.08225,4.9434 -2.7308,1.30769 -6.44543,0.0635 l 1.32613,-4.25022 q 2.12564,0.47783 3.26954,-0.13148 1.14389,-0.60931 1.76862,-2.28996 0.62473,-1.68066 0.25946,-2.85095 -0.36527,-1.1703 -1.41139,-1.55916 -1.02897,-0.38249 -2.03809,0.17933 -1.00913,0.56181 -2.95229,3.21632 -2.07552,2.8005 -3.6037,3.8135 -1.51741,1.03653 -3.38643,1.1811 -1.85188,0.15095 -4.11562,-0.69052 -3.27556,-1.21758 -4.75278,-4.06995 -1.48359,-2.83523 0.11011,-7.12261 2.81766,-7.58011 11.76262,-5.23107 z"
           style="font-weight:bold;font-stretch:condensed;font-family:Arial;-inkscape-font-specification:'Arial Bold Condensed'"
           id="path888" />
        <path
           d="m 429.12992,453.56603 20.16959,9.47577 2.77738,-5.91177 4.10678,1.92938 -7.42969,15.81442 -4.10678,-1.92939 2.7696,-5.89522 -20.16958,-9.47577 z"
           style="font-weight:bold;font-stretch:condensed;font-family:Arial;-inkscape-font-specification:'Arial Bold Condensed'"
           id="path890" />
        <path
           d="m 414.27403,481.20873 2.41448,-4.18339 6.23707,1.38169 4.38996,-7.60615 -4.37134,-4.61431 2.3596,-4.0883 18.95025,20.82366 -2.35046,4.07246 z m 13.27892,-1.7787 10.12935,2.36067 -7.12955,-7.55821 z"
           style="font-weight:bold;font-stretch:condensed;font-family:Arial;-inkscape-font-specification:'Arial Bold Condensed'"
           id="path892" />
        <path
           d="m 412.90834,483.19586 21.87327,15.52352 -2.49901,3.52121 -19.81686,-3.02584 14.60705,10.36666 -2.39312,3.37201 -21.87327,-15.52352 2.58372,-3.64057 19.38897,2.90165 -14.26388,-10.12312 z"
           style="font-weight:bold;font-stretch:condensed;font-family:Arial;-inkscape-font-specification:'Arial Bold Condensed'"
           id="path894" />
        <path
           d="m 396.66636,504.85111 16.96163,14.45357 4.23639,-4.97151 3.4536,2.94293 -11.33265,13.29914 -3.45359,-2.94293 4.22452,-4.95759 -16.96162,-14.45357 z"
           style="font-weight:bold;font-stretch:condensed;font-family:Arial;-inkscape-font-specification:'Arial Bold Condensed'"
           id="path896" />
        <path
           d="m 399.72571,541.20196 -5.98638,5.46413 q -2.27022,2.07217 -3.88756,2.60709 -1.61851,0.56077 -3.68923,0.24616 -2.07071,-0.31461 -4.37624,-1.72778 -2.30552,-1.41318 -4.90807,-4.26448 -2.34354,-2.56752 -3.50161,-5.00327 -1.14574,-2.42223 -1.26529,-4.34439 -0.11954,-1.92216 0.63266,-3.64914 0.75103,-1.70114 2.73748,-3.5143 l 6.16205,-5.62447 z m -6.32913,-0.36637 -11.97668,-13.12139 -2.45942,2.24486 q -1.58105,1.44312 -2.01238,2.3818 -0.44485,0.95101 -0.34807,1.95263 0.0956,1.02747 0.9824,2.5961 0.88681,1.56863 2.8233,3.69021 2.01051,2.20266 3.48074,3.18922 1.45673,0.99889 2.77142,1.13656 1.30118,0.15 2.42977,-0.45901 0.84952,-0.45338 2.82246,-2.2542 z"
           style="font-weight:bold;font-stretch:condensed;font-family:Arial;-inkscape-font-specification:'Arial Bold Condensed'"
           id="path898" />
        <path
           d="m 365.10501,535.99257 16.72942,20.96536 -3.46086,2.76161 -16.72942,-20.96536 z"
           style="font-weight:bold;font-stretch:condensed;font-family:Arial;-inkscape-font-specification:'Arial Bold Condensed'"
           id="path900" />
        <path
           d="m 358.35357,541.47841 15.30012,22.03011 -7.67898,5.33313 q -2.94536,2.04558 -4.62513,2.32117 -1.66933,0.29061 -3.5036,-0.61849 -1.82383,-0.89408 -3.24321,-2.9378 -1.7951,-2.58471 -1.64368,-5.02882 0.13639,-2.43368 2.13876,-4.42579 -1.75658,-0.0275 -3.22223,-0.50204 -1.45522,-0.45954 -4.57273,-2.12582 l -5.17887,-2.77407 4.3429,-3.01619 5.97411,2.95688 q 3.23314,1.60825 4.19285,1.89958 0.97014,0.30636 1.70816,0.1502 0.74847,-0.14112 2.01077,-1.0178 l 0.75136,-0.52184 -6.38722,-9.19674 z m 5.19278,15.23882 -2.70493,1.87859 q -2.47951,1.72205 -3.00963,2.40208 -0.51968,0.69506 -0.48124,1.64849 0.0385,0.95343 0.80033,2.05043 0.73056,1.05192 1.58967,1.39084 0.86954,0.35395 1.75784,0.0934 0.62573,-0.18955 3.07519,-1.89072 l 2.8552,-1.98296 z"
           style="font-weight:bold;font-stretch:condensed;font-family:Arial;-inkscape-font-specification:'Arial Bold Condensed'"
           id="path902" />
        <path
           d="m 339.99656,553.92716 13.19799,23.35022 -14.20763,8.03043 -2.23268,-3.95011 10.3531,-5.85177 -2.92588,-5.17655 -9.62042,5.43765 -2.22367,-3.93418 9.62041,-5.43764 -3.59208,-6.35521 -10.70351,6.04982 -2.22368,-3.93417 z"
           style="font-weight:bold;font-stretch:condensed;font-family:Arial;-inkscape-font-specification:'Arial Bold Condensed'"
           id="path904" />
        <path
           d="m 313.26376,578.62104 -4.60444,0.23984 q -0.92319,-4.5186 0.36041,-7.37993 1.29108,-2.84463 4.41299,-4.2444 3.92327,-1.75906 7.71555,0.16982 4.36916,2.23166 7.02647,8.15829 2.80702,6.26053 1.57251,11.06484 -1.07682,4.17219 -5.21712,6.02856 -3.37234,1.51204 -6.6758,0.22618 -2.35296,-0.91 -4.5489,-3.79524 l 3.48276,-2.96513 q 1.27474,1.81451 2.89826,2.34979 1.6143,0.55946 3.16691,-0.13668 2.2204,-0.99556 2.75446,-3.56092 0.53405,-2.56536 -1.46454,-7.02285 -2.07345,-4.62445 -4.31821,-5.96393 -2.24476,-1.33949 -4.43177,-0.3589 -1.60269,0.71859 -2.21741,2.47798 -0.60723,1.77608 0.0879,4.71268 z"
           style="font-weight:bold;font-stretch:condensed;font-family:Arial;-inkscape-font-specification:'Arial Bold Condensed'"
           id="path906" />
        <path
           d="m 297.04813,574.29513 7.27562,21.06342 6.17376,-2.13251 1.48141,4.28877 -16.51524,5.70462 -1.48141,-4.28877 6.15647,-2.12654 -7.27563,-21.06343 z"
           style="font-weight:bold;font-stretch:condensed;font-family:Arial;-inkscape-font-specification:'Arial Bold Condensed'"
           id="path908" />
        <path
           d="m 288.46743,591.23194 q 1.14117,4.65575 0.50898,7.99427 -0.64561,3.36064 -2.50535,5.38 -1.85973,2.01937 -5.0228,2.79467 -4.58466,1.12375 -8.32147,-1.67133 -3.75457,-2.79073 -5.34001,-9.25902 -1.60287,-6.53937 0.55196,-10.96693 1.88619,-3.90962 6.48863,-5.03772 4.63798,-1.13682 8.10962,1.42186 3.95806,2.92922 5.53044,9.3442 z m -4.39896,1.26661 q -1.10197,-4.49582 -3.36105,-6.33447 -2.25473,-1.82089 -4.77808,-1.20239 -2.54111,0.62286 -3.66704,3.25354 -1.12158,2.64845 0.0109,7.26866 1.11068,4.53135 3.27691,6.29858 2.14846,1.77158 4.77842,1.12695 2.62996,-0.64463 3.74683,-3.23542 1.11688,-2.59079 -0.007,-7.17545 z"
           style="font-weight:bold;font-stretch:condensed;font-family:Arial;-inkscape-font-specification:'Arial Bold Condensed'"
           id="path910" />
        <path
           d="m 261.14928,584.01777 3.75522,26.55782 -9.25719,1.30895 q -3.55071,0.50206 -5.1749,-0.007 -1.62163,-0.49135 -2.85092,-2.12838 -1.22672,-1.61891 -1.57509,-4.08267 -0.44059,-3.11592 0.79407,-5.2307 1.21653,-2.11221 3.90098,-2.99069 -1.55648,-0.81468 -2.65201,-1.89781 -1.09297,-1.065 -3.12775,-3.95551 l -3.37752,-4.80715 5.23548,-0.74028 4.00552,5.32812 q 2.16415,2.89069 2.89024,3.58258 0.72865,0.71001 1.45803,0.90252 0.73195,0.21063 2.25368,-0.005 l 0.90579,-0.12807 -1.56766,-11.0869 z m -2.21697,15.94589 -3.26085,0.46108 q -2.98911,0.42265 -3.76846,0.79155 -0.77679,0.387 -1.17133,1.25582 -0.39454,0.86882 -0.20754,2.19128 0.17931,1.26811 0.79413,1.95725 0.61739,0.70726 1.52794,0.87416 0.64411,0.11218 3.597,-0.30535 l 3.44201,-0.48669 z"
           style="font-weight:bold;font-stretch:condensed;font-family:Arial;-inkscape-font-specification:'Arial Bold Condensed'"
           id="path912" />
      </g>
    </g>
  </g>
</svg>
