<?xml version="1.0" encoding="UTF-8" standalone="no"?>
<!-- Created with Inkscape (http://www.inkscape.org/) -->

<svg
   width="362.67117mm"
   height="197.29395mm"
   viewBox="0 0 362.67117 197.29395"
   version="1.1"
   id="svg378"
   inkscape:version="1.2.1 (9c6d41e410, 2022-07-14)"
   sodipodi:docname="patch_director.svg"
   xmlns:inkscape="http://www.inkscape.org/namespaces/inkscape"
   xmlns:sodipodi="http://sodipodi.sourceforge.net/DTD/sodipodi-0.dtd"
   xmlns="http://www.w3.org/2000/svg"
   xmlns:svg="http://www.w3.org/2000/svg">
  <sodipodi:namedview
     id="namedview380"
     pagecolor="#505050"
     bordercolor="#eeeeee"
     borderopacity="1"
     inkscape:showpageshadow="0"
     inkscape:pageopacity="0"
     inkscape:pagecheckerboard="0"
     inkscape:deskcolor="#505050"
     inkscape:document-units="mm"
     showgrid="false"
     inkscape:zoom="0.085119045"
     inkscape:cx="581.53848"
     inkscape:cy="-558.04197"
     inkscape:window-width="3440"
     inkscape:window-height="1369"
     inkscape:window-x="-8"
     inkscape:window-y="535"
     inkscape:window-maximized="1"
     inkscape:current-layer="layer1" />
  <defs
     id="defs375" />
  <g
     inkscape:label="Layer 1"
     inkscape:groupmode="layer"
     id="layer1"
     transform="translate(349.18874,-706.42648)">
    <g
       id="g11023"
       transform="translate(-237.79197,-303.06821)">
      <g
         id="g11015">
        <path
           style="fill:#241c17;stroke:none;stroke-width:0.264583"
           d="m 59.99485,1009.5146 c -51.5723,0.6866 -99.4286,22.5697 -137.8479,56.3919 -7.9002,6.9549 -15.5734,14.0298 -23.0188,21.4723 -3.1945,3.1932 -7.5994,6.3005 -9.4021,10.5833 -1.7715,4.2087 -0.9166,9.0707 -0.9166,13.4938 0,9.3665 0.2646,18.6758 0.2646,28.0458 0,12.8206 0.1949,25.5889 1.004,38.3646 0.2793,4.4106 -0.1067,8.8265 0.4712,13.2291 0.4344,3.3073 0.32,6.9824 0.376,10.3188 0.028,1.6801 0.2948,4.0905 1.8674,5.0906 1.9828,1.262 4.5168,-2.0267 5.8064,-3.1618 4.9972,-4.4 9.4755,-10.1044 13.83,-15.158 18.1467,-21.0597 41.6555,-38.3312 66.3387,-50.9254 11.5388,-5.8872 24.225,-10.2581 36.7771,-13.3961 4.5238,-1.1308 8.9005,-1.8351 13.7583,-2.5252 13.3606,-1.8978 26.705,-3.7007 40.2167,-3.3017 37.2589,1.0999 74.9723,10.7897 107.1562,29.9849 19.0977,11.3906 35.1632,25.799 51.8584,40.2747 4.3603,3.7835 8.5778,7.7337 12.9646,11.4855 1.2409,1.0636 3.6353,3.6671 5.2943,3.5798 3.4078,-0.1772 3.72,-3.1406 4.1169,-5.9161 0.8996,-6.2785 -0.1508,-12.9963 -0.1508,-19.3145 0,-8.3696 -0.7726,-16.7749 -0.7726,-25.1355 0,-11.426 -0.209,-22.73 -1.2991,-34.1312 -0.4842,-5.0565 -0.9366,-10.0394 -1.5558,-15.0813 -0.3571,-2.894 -0.8043,-6.2126 -2.4526,-8.7312 -11.6311,-17.7803 -28.9481,-30.2805 -46.3074,-41.9814 -6.3606,-4.2879 -12.6074,-8.817 -19.3146,-12.5593 -36.5416,-20.3859 -77.1919,-31.5539 -119.0625,-30.9964"
           id="path365-4-2-0-3"
           sodipodi:nodetypes="csssssscsccsccsccccccsscccccc" />
        <g
           aria-label="DIRECTOR"
           transform="rotate(-112.12196,466.56989,885.3394)"
           id="text8150-4-0-6"
           style="font-size:41.0796px;line-height:1.25;font-family:Argentum;-inkscape-font-specification:Argentum;letter-spacing:0px;word-spacing:0px;fill:#f0d3b6;stroke-width:1.02699">
          <path
             d="m 479.73653,361.19122 -0.46194,8.87385 q -0.17519,3.36526 -1.02501,5.02829 -0.83083,1.68411 -2.6887,3.03355 -1.85786,1.34945 -4.74505,2.02266 -2.8872,0.67321 -7.1138,0.45318 -3.80594,-0.19812 -6.58551,-1.2065 -2.75954,-1.00733 -4.33328,-2.4149 -1.57375,-1.40757 -2.31704,-3.33431 -0.7243,-1.90566 -0.57102,-4.85025 l 0.4755,-9.13427 z m -5.2201,4.58896 -19.45037,-1.01253 -0.18978,3.6457 q -0.12201,2.34366 0.26446,3.40822 0.38542,1.0846 1.23238,1.79152 0.86596,0.72798 2.76602,1.26878 1.90006,0.54079 5.04497,0.7045 3.2651,0.16998 5.17202,-0.19272 1.90588,-0.34267 3.03762,-1.24786 1.1307,-0.88517 1.54214,-2.22957 0.31359,-1.00803 0.46583,-3.9326 z"
             style="font-weight:bold;font-stretch:condensed;font-family:Arial;-inkscape-font-specification:'Arial Bold Condensed'"
             id="path536" />
          <path
             d="m 448.67716,383.7891 29.17749,3.65566 -0.60345,4.81648 -29.1775,-3.65567 z"
             style="font-weight:bold;font-stretch:condensed;font-family:Arial;-inkscape-font-specification:'Arial Bold Condensed'"
             id="path538" />
          <path
             d="m 447.58415,393.26546 28.83132,5.78318 -2.01583,10.04966 q -0.77319,3.85467 -1.89123,5.34887 -1.09837,1.49815 -3.23872,2.17355 -2.12069,0.67935 -4.79536,0.14285 -3.38266,-0.67852 -5.12024,-2.72506 -1.74152,-2.02688 -1.6729,-5.12272 -1.40903,1.31308 -2.92788,2.05178 -1.49919,0.74264 -5.229,1.79478 l -6.20062,1.7431 1.14007,-5.68366 6.96796,-2.20292 q 3.77709,-1.18587 4.75688,-1.68491 0.99946,-0.49509 1.46403,-1.1793 0.48424,-0.68027 0.81561,-2.33227 l 0.19724,-0.98334 -12.03599,-2.41425 z m 15.68333,8.09669 -0.71007,3.54 q -0.65091,3.245 -0.55309,4.18523 0.11748,0.94417 0.87235,1.66841 0.75488,0.72424 2.19055,1.01222 1.37666,0.27614 2.31312,-0.10885 0.95612,-0.38103 1.46014,-1.26191 0.35046,-0.62528 0.99347,-3.83094 l 0.74953,-3.73667 z"
             style="font-weight:bold;font-stretch:condensed;font-family:Arial;-inkscape-font-specification:'Arial Bold Condensed'"
             id="path540" />
          <path
             d="m 442.50872,417.04757 28.09046,8.69576 -5.29101,17.09188 -4.752,-1.47104 3.85556,-12.45485 -6.22742,-1.92777 -3.5827,11.57342 -4.73284,-1.46511 3.5827,-11.57342 -7.64536,-2.36672 -3.98605,12.87639 -4.73284,-1.46511 z"
             style="font-weight:bold;font-stretch:condensed;font-family:Arial;-inkscape-font-specification:'Arial Bold Condensed'"
             id="path542" />
          <path
             d="m 439.57061,456.88389 -3.52587,3.62205 q -4.10791,-2.9479 -5.20613,-6.20591 -1.07976,-3.25016 0.38951,-6.70133 1.84642,-4.33705 6.334,-5.60941 5.17719,-1.4584 11.72889,1.33087 6.92082,2.94641 9.50553,7.7311 2.24082,4.15866 0.29226,8.73562 -1.58713,3.72802 -5.20255,5.15368 -2.57078,1.02019 -6.48626,0.33427 l 0.59382,-4.97932 q 2.37691,0.51052 4.08175,-0.26791 1.71543,-0.75212 2.44614,-2.46848 1.045,-2.45458 -0.43585,-4.91627 -1.48084,-2.46168 -6.40846,-4.55953 -5.11217,-2.17641 -7.91574,-1.58234 -2.80358,0.59407 -3.83286,3.01174 -0.75428,1.77173 0.0614,3.64504 0.83417,1.88116 3.58039,3.72613 z"
             style="font-weight:bold;font-stretch:condensed;font-family:Arial;-inkscape-font-specification:'Arial Bold Condensed'"
             id="path544" />
          <path
             d="m 423.23485,465.44637 21.4435,11.70711 3.4314,-6.28517 4.36616,2.38372 -9.17922,16.81325 -4.36616,-2.38371 3.42178,-6.26756 -21.4435,-11.70711 z"
             style="font-weight:bold;font-stretch:condensed;font-family:Arial;-inkscape-font-specification:'Arial Bold Condensed'"
             id="path546" />
          <path
             d="m 428.71069,485.61053 q 4.33724,2.96758 6.26278,6.15647 1.93076,3.21677 1.88894,6.22617 -0.0418,3.00941 -2.05796,5.95608 -2.92227,4.27103 -8.01839,4.72149 -5.10745,0.46701 -11.13324,-3.65589 -6.092,-4.1682 -7.57057,-9.36016 -1.31913,-4.57248 1.61447,-8.86006 2.95625,-4.32069 7.66291,-4.77028 5.37494,-0.50273 11.35106,3.58618 z m -2.66611,4.25186 q -4.18826,-2.86564 -7.37802,-2.7149 -3.1732,0.16206 -4.78158,2.51278 -1.61971,2.36727 -0.61512,5.33921 1.02114,2.98326 5.32528,5.92819 4.22136,2.88829 7.28304,2.74714 3.05035,-0.1246 4.7267,-2.57464 1.67634,-2.45005 0.69353,-5.38278 -0.98281,-2.93273 -5.25383,-5.855 z"
             style="font-weight:bold;font-stretch:condensed;font-family:Arial;-inkscape-font-specification:'Arial Bold Condensed'"
             id="path548" />
          <path
             d="m 401.10313,499.68698 22.32531,19.1382 -6.67095,7.78187 q -2.55873,2.98483 -4.26447,3.74186 -1.69052,0.77008 -3.88789,0.31307 -2.18214,-0.44396 -4.25324,-2.2194 -2.61934,-2.24541 -3.13482,-4.88014 -0.52853,-2.6195 1.04461,-5.28674 -1.87107,0.45678 -3.55719,0.35878 -1.67088,-0.085 -5.43904,-0.99023 l -6.2614,-1.51025 3.77281,-4.4011 7.15559,1.48419 q 3.87477,0.81174 4.97346,0.85531 1.11393,0.0566 1.85366,-0.31318 0.75497,-0.35676 1.85157,-1.63598 l 0.65273,-0.76143 -9.31998,-7.98948 z m 9.72426,14.72963 -2.34984,2.74117 q -2.15403,2.51274 -2.52829,3.3808 -0.35903,0.88111 -0.0545,1.88192 0.30453,1.00081 1.41623,1.95381 1.06601,0.91383 2.07115,1.03572 1.02037,0.13495 1.89065,-0.38716 0.61138,-0.37417 2.73929,-2.85645 l 2.4804,-2.89346 z"
             style="font-weight:bold;font-stretch:condensed;font-family:Arial;-inkscape-font-specification:'Arial Bold Condensed'"
             id="path550" />
        </g>
        <path
           id="path436-8-8-6-5"
           style="fill:#f0d3b6;fill-opacity:1;stroke:none;stroke-width:0.264583px;stroke-linecap:butt;stroke-linejoin:miter;stroke-opacity:1"
           d="m 66.01585,1019.2194 c -61.0749,0.6842 -119.1838,29.4681 -160.4585,76.418 -8.0032,9.1037 -6.7322,10.5361 -6.6058,18.262 0.1265,7.7258 0.3887,70.7161 0.3887,70.7161 79.4977,-89.7656 238.4872,-109.3094 338.4734,1.4402 -0.5525,-0.033 -0.7864,-49.9767 -0.8046,-73.6203 -0.01,-10.3976 -3.0429,-15.6027 -8.1598,-20.9817 -46.1642,-48.529 -105.46,-72.8771 -162.8334,-72.2343 z m 4.671,11.1089 c 59.8351,-0.1564 117.5209,27.0445 157.7547,76.1886 l -1.1658,55.5625 c -85.5049,-78.7795 -207.8014,-90.3692 -318.2214,-3.497 v -50.8997 c 47.3183,-52.9187 105.4238,-77.2075 161.6325,-77.3544 z"
           sodipodi:nodetypes="sssccssssccccs" />
      </g>
    </g>
  </g>
</svg>
