<?xml version="1.0" encoding="UTF-8" standalone="no"?>
<!-- Created with Inkscape (http://www.inkscape.org/) -->

<svg
   width="362.67117mm"
   height="197.29395mm"
   viewBox="0 0 362.67117 197.29395"
   version="1.1"
   id="svg378"
   sodipodi:docname="lohofficer.svg"
   inkscape:version="1.2.1 (9c6d41e410, 2022-07-14)"
   xmlns:inkscape="http://www.inkscape.org/namespaces/inkscape"
   xmlns:sodipodi="http://sodipodi.sourceforge.net/DTD/sodipodi-0.dtd"
   xmlns="http://www.w3.org/2000/svg"
   xmlns:svg="http://www.w3.org/2000/svg">
  <sodipodi:namedview
     id="namedview380"
     pagecolor="#505050"
     bordercolor="#eeeeee"
     borderopacity="1"
     inkscape:showpageshadow="0"
     inkscape:pageopacity="0"
     inkscape:pagecheckerboard="0"
     inkscape:deskcolor="#505050"
     inkscape:document-units="mm"
     showgrid="false"
     inkscape:zoom="0.085119045"
     inkscape:cx="587.4126"
     inkscape:cy="-569.79022"
     inkscape:window-width="1377"
     inkscape:window-height="1259"
     inkscape:window-x="1804"
     inkscape:window-y="626"
     inkscape:window-maximized="0"
     inkscape:current-layer="layer1" />
  <defs
     id="defs375" />
  <g
     inkscape:label="Layer 1"
     inkscape:groupmode="layer"
     id="layer1"
     transform="translate(349.18874,-706.42648)">
    <g
       id="g11034"
       transform="translate(-585.46647,-131.25956)">
      <path
         style="fill:#241c17;stroke:none;stroke-width:0.264583"
         d="m 407.66935,837.70595 c -51.5723,0.6866 -99.4286,22.5697 -137.8479,56.3919 -7.9002,6.9549 -15.5734,14.0298 -23.0188,21.4723 -3.1945,3.1932 -7.5994,6.3005 -9.4021,10.5833 -1.7715,4.2088 -0.9166,9.0707 -0.9166,13.4938 0,9.3665 0.2646,18.6759 0.2646,28.0458 0,12.8207 0.1949,25.5889 1.004,38.36465 0.2793,4.4106 -0.1067,8.8265 0.4712,13.2291 0.4344,3.3073 0.32,6.9823 0.376,10.3187 0.028,1.6801 0.2948,4.0905 1.8674,5.0906 1.9828,1.2621 4.5168,-2.0267 5.8064,-3.1618 4.9972,-4.4 9.4755,-10.1044 13.83,-15.1579 18.1467,-21.05975 41.6555,-38.33125 66.3387,-50.92545 11.5388,-5.8872 24.225,-10.2581 36.7771,-13.3961 4.5238,-1.1308 8.9005,-1.8351 13.7583,-2.5252 13.3606,-1.8978 26.705,-3.7007 40.2167,-3.3017 37.2589,1.0999 74.9723,10.7897 107.1562,29.985 19.0977,11.3905 35.1632,25.79895 51.8584,40.27465 4.3603,3.7834 8.5778,7.7336 12.9646,11.4854 1.2409,1.0637 3.6353,3.6672 5.2943,3.5798 3.4078,-0.1772 3.72,-3.1406 4.1169,-5.916 0.8996,-6.2786 -0.1508,-12.9963 -0.1508,-19.3145 0,-8.36965 -0.7726,-16.77495 -0.7726,-25.13545 0,-11.4261 -0.209,-22.7301 -1.2991,-34.1313 -0.4842,-5.0564 -0.9366,-10.0393 -1.5558,-15.0812 -0.3571,-2.8941 -0.8043,-6.2127 -2.4526,-8.7313 -11.6311,-17.7803 -28.9481,-30.2805 -46.3074,-41.9814 -6.3606,-4.2879 -12.6074,-8.817 -19.3146,-12.5593 -36.5416,-20.3858 -77.1919,-31.5539 -119.0625,-30.9964"
         id="path365-4-2-0-9-7"
         sodipodi:nodetypes="csssssscsccsccsccccccsscccccc" />
      <g
         id="g10650"
         transform="matrix(0.84635093,0,0,0.8765727,-387.76887,359.75932)">
        <g
           aria-label="OFFICER"
           transform="rotate(-107.60745,776.27123,345.54853)"
           id="text8150-4-0-6-7-9-1-0-3"
           style="font-size:37.6732px;line-height:1.25;font-family:Argentum;-inkscape-font-specification:Argentum;letter-spacing:0px;word-spacing:0px;fill:#f0d3b6;stroke-width:0.941831">
          <path
             d="m 463.72034,359.28243 q 4.81315,0.24776 7.84499,1.82214 3.04928,1.59368 4.45584,3.96852 1.40657,2.37485 1.23823,5.64485 -0.24398,4.73966 -4.01623,7.52943 -3.77319,2.80814 -10.46016,2.46391 -6.76045,-0.34801 -10.40055,-3.70354 -3.21905,-2.94705 -2.97412,-7.70509 0.24682,-4.79478 3.71473,-7.3976 3.96542,-2.96402 10.59727,-2.62262 z m -0.0527,4.60215 q -4.64781,-0.23926 -7.07169,1.40424 -2.4055,1.64444 -2.53979,4.25309 -0.13523,2.62702 2.07222,4.47209 2.22583,1.84601 7.00223,2.09189 4.68455,0.24114 7.01279,-1.33359 2.3273,-1.55637 2.46726,-4.27525 0.13996,-2.71888 -2.0317,-4.54368 -2.17166,-1.8248 -6.91132,-2.06879 z"
             style="font-weight:bold;font-stretch:condensed;font-family:Arial;-inkscape-font-specification:'Arial Bold Condensed'"
             id="path766" />
          <path
             d="m 448.80872,383.51024 26.68759,3.87352 -2.1772,15.0004 -4.51468,-0.65528 1.53778,-10.59494 -6.31691,-0.91686 -1.32905,9.1568 -4.51468,-0.65527 1.32904,-9.1568 -11.34132,-1.64611 z"
             style="font-weight:bold;font-stretch:condensed;font-family:Arial;-inkscape-font-specification:'Arial Bold Condensed'"
             id="path768" />
          <path
             d="m 445.91244,402.16397 26.27894,6.05386 -3.40271,14.7707 -4.44555,-1.02412 2.40337,-10.4327 -6.22019,-1.43294 -2.07714,9.01658 -4.44555,-1.02412 2.07714,-9.01658 -11.16765,-2.57268 z"
             style="font-weight:bold;font-stretch:condensed;font-family:Arial;-inkscape-font-specification:'Arial Bold Condensed'"
             id="path770" />
          <path
             d="m 441.43965,420.32708 25.8682,7.62025 -1.25792,4.27019 -25.8682,-7.62025 z"
             style="font-weight:bold;font-stretch:condensed;font-family:Arial;-inkscape-font-specification:'Arial Bold Condensed'"
             id="path772" />
          <path
             d="m 443.43894,445.44491 -3.06886,3.47438 q -3.89376,-2.51786 -5.04442,-5.45344 -1.13339,-2.9292 0.0592,-6.15573 1.49872,-4.05474 5.55285,-5.41951 4.67756,-1.5658 10.80279,0.69823 6.47033,2.39158 9.05041,6.65957 2.23727,3.70984 0.65564,7.98888 -1.28826,3.48535 -4.53669,4.95182 -2.30953,1.04865 -5.92658,0.59423 l 0.32282,-4.58744 q 2.19993,0.36208 3.727,-0.42667 1.53794,-0.76512 2.13105,-2.36976 0.84821,-2.29481 -0.61756,-4.48396 -1.46577,-2.18915 -6.07264,-3.89195 -4.77941,-1.76658 -7.32111,-1.09791 -2.5417,0.66867 -3.37716,2.92897 -0.61225,1.6564 0.21814,3.33614 0.84763,1.6861 3.44511,3.25415 z"
             style="font-weight:bold;font-stretch:condensed;font-family:Arial;-inkscape-font-specification:'Arial Bold Condensed'"
             id="path774" />
          <path
             d="m 431.07529,449.567 24.309,11.67496 -7.10373,14.79102 -4.1123,-1.97503 5.17649,-10.77821 -5.38911,-2.58824 -4.81014,10.01544 -4.09572,-1.96706 4.81014,-10.01544 -6.61616,-3.17756 -5.35168,11.143 -4.09572,-1.96706 z"
             style="font-weight:bold;font-stretch:condensed;font-family:Arial;-inkscape-font-specification:'Arial Bold Condensed'"
             id="path776" />
          <path
             d="m 421.9964,468.07045 23.11488,13.89009 -4.84163,8.05709 q -1.85707,3.0904 -3.28365,4.03586 -1.41081,0.95493 -3.46764,0.87784 -2.04107,-0.0676 -4.18543,-1.3562 -2.71197,-1.62967 -3.58113,-3.93321 -0.87863,-2.28778 0.13582,-4.94023 -1.622,0.69926 -3.16163,0.86858 -1.52386,0.17879 -5.06962,-0.0634 l -5.89277,-0.40777 2.73822,-4.55675 6.69734,0.24742 q 3.62785,0.14125 4.62799,0.0126 1.01591,-0.11919 1.62823,-0.56675 0.62808,-0.43809 1.42397,-1.76254 l 0.47374,-0.78837 -9.6496,-5.79859 z m 11.04624,11.83139 -1.70547,2.83812 q -1.56334,2.6016 -1.76897,3.44378 -0.18985,0.85165 0.23861,1.71003 0.42847,0.85837 1.57948,1.55003 1.10371,0.66324 2.03124,0.6197 0.94329,-0.0341 1.65035,-0.6393 0.49559,-0.43187 2.03998,-3.00194 l 1.80022,-2.99579 z"
             style="font-weight:bold;font-stretch:condensed;font-family:Arial;-inkscape-font-specification:'Arial Bold Condensed'"
             id="path778" />
        </g>
        <g
           aria-label="LADIES OF HARLEY"
           transform="rotate(-126.97213,704.90749,414.74487)"
           id="text8150-4-0-6-7-9-1-0-8"
           style="font-size:37.6732px;line-height:1.25;font-family:Argentum;-inkscape-font-specification:Argentum;letter-spacing:0px;word-spacing:0px;fill:#f0d3b6;stroke-width:0.941831">
          <path
             d="m 450.27495,359.60398 26.72476,1.07813 -0.17944,4.448 -22.18486,-0.89498 -0.44786,11.10162 -4.5399,-0.18315 z"
             style="font-weight:bold;font-stretch:condensed;font-family:Arial;-inkscape-font-specification:'Arial Bold Condensed'"
             id="path781" />
          <path
             d="m 446.83054,398.11096 0.62535,-4.81588 6.32329,-1.12661 1.137,-8.75615 -5.84006,-2.59475 0.61114,-4.70642 25.63414,12.00983 -0.60877,4.68819 z m 11.63917,-6.78028 10.31447,-1.72133 -9.53752,-4.26204 z"
             style="font-weight:bold;font-stretch:condensed;font-family:Arial;-inkscape-font-specification:'Arial Bold Condensed'"
             id="path783" />
          <path
             d="m 472.59565,406.45671 -1.82813,7.94133 q -0.69328,3.01161 -1.72525,4.37853 -1.01817,1.38897 -2.91073,2.31238 -1.89256,0.92341 -4.60728,1.0724 -2.71472,0.14898 -6.49716,-0.72175 -3.40599,-0.78407 -5.75614,-2.13677 -2.33223,-1.34857 -3.52982,-2.87009 -1.19759,-1.52152 -1.56259,-3.37991 -0.35119,-1.83634 0.25544,-4.4715 l 1.88177,-8.17437 z m -5.44437,3.31473 -17.40639,-4.00703 -0.75106,3.26258 q -0.48283,2.09737 -0.30304,3.12032 0.17566,1.04088 0.82824,1.81402 0.66637,0.7952 2.2965,1.58574 1.63014,0.79054 4.44456,1.43843 2.92198,0.67266 4.70196,0.64826 1.77586,-0.006 2.94196,-0.64408 1.16197,-0.6197 1.74733,-1.76853 0.4435,-0.86059 1.046,-3.47782 z"
             style="font-weight:bold;font-stretch:condensed;font-family:Arial;-inkscape-font-specification:'Arial Bold Condensed'"
             id="path785" />
          <path
             d="m 440.97607,421.93559 25.81168,7.80956 -1.28917,4.26086 -25.81168,-7.80956 z"
             style="font-weight:bold;font-stretch:condensed;font-family:Arial;-inkscape-font-specification:'Arial Bold Condensed'"
             id="path787" />
          <path
             d="m 438.4888,430.31863 25.26062,9.44103 -5.74447,15.37003 -4.27329,-1.59711 4.186,-11.20014 -5.60007,-2.093 -3.88976,10.40751 -4.25605,-1.59067 3.88975,-10.40752 -6.87516,-2.56955 -4.32767,11.57922 -4.25606,-1.59068 z"
             style="font-weight:bold;font-stretch:condensed;font-family:Arial;-inkscape-font-specification:'Arial Bold Condensed'"
             id="path789" />
          <path
             d="m 439.48618,452.32014 -1.4228,4.153 q -4.97818,-1.57416 -6.74585,2.10715 -0.87588,1.82408 -0.43231,3.32263 0.46014,1.50653 1.86966,2.18334 0.82912,0.39812 1.58468,0.31199 0.75557,-0.0861 1.47869,-0.65716 0.73971,-0.56308 2.99609,-3.00983 2.01357,-2.19605 3.4989,-2.95206 1.48534,-0.756 3.30357,-0.76038 1.82685,0.0202 3.53485,0.84029 1.98989,0.9555 3.15184,2.61535 1.15398,1.67644 1.20212,3.65852 0.0481,1.98208 -1.07456,4.32021 -1.68805,3.51549 -4.54257,4.57312 -2.85453,1.05763 -6.45892,-0.53026 l 1.71931,-4.13306 q 2.08414,0.67425 3.28553,0.16962 1.20139,-0.50464 1.98171,-2.12972 0.78032,-1.62508 0.52245,-2.83042 -0.25787,-1.20533 -1.2694,-1.69105 -0.99495,-0.47774 -2.05703,-0.008 -1.06208,0.4695 -3.25213,2.94811 -2.33601,2.61258 -3.95934,3.48598 -1.61471,0.89794 -3.49927,0.87047 -1.86797,-0.0195 -4.05686,-1.07055 -3.16726,-1.52083 -4.38341,-4.51269 -1.22411,-2.97528 0.76651,-7.1209 3.51942,-7.32946 12.25854,-4.15345 z"
             style="font-weight:bold;font-stretch:condensed;font-family:Arial;-inkscape-font-specification:'Arial Bold Condensed'"
             id="path791" />
          <path
             d="m 429.37534,482.09777 q 4.02584,2.64959 5.84397,5.54185 1.82338,2.91773 1.83462,5.67784 0.0112,2.7601 -1.78886,5.49522 -2.60914,3.96438 -7.27451,4.46139 -4.67548,0.51238 -10.26864,-3.16874 -5.65462,-3.72157 -7.09592,-8.45787 -1.28488,-4.17091 1.33437,-8.15066 2.63948,-4.01048 6.94775,-4.50027 4.92015,-0.54954 10.46722,3.10124 z m -2.37458,3.94258 q -3.88756,-2.55858 -6.80986,-2.3678 -2.90694,0.20088 -4.34298,2.38283 -1.44615,2.19731 -0.47604,4.90582 0.98548,2.71862 4.98059,5.34799 3.91828,2.5788 6.72331,2.39893 2.7949,-0.16451 4.29162,-2.43866 1.49672,-2.27414 0.54723,-4.94705 -0.94949,-2.67292 -4.91387,-5.28206 z"
             style="font-weight:bold;font-stretch:condensed;font-family:Arial;-inkscape-font-specification:'Arial Bold Condensed'"
             id="path793" />
          <path
             d="m 404.24906,495.44439 21.05414,16.85097 -9.47149,11.83397 -3.56168,-2.85064 6.68981,-8.35846 -4.98348,-3.9886 -5.78175,7.22389 -3.56168,-2.85064 5.78174,-7.22389 -8.94729,-7.16109 z"
             style="font-weight:bold;font-stretch:condensed;font-family:Arial;-inkscape-font-specification:'Arial Bold Condensed'"
             id="path795" />
          <path
             d="m 386.54182,516.41723 18.77055,19.3623 -3.19624,3.09855 -7.38786,-7.62077 -6.2868,6.09466 7.38786,7.62077 -3.20944,3.11136 -18.77055,-19.36231 3.20944,-3.11135 8.20732,8.46606 6.2868,-6.09467 -8.20731,-8.46605 z"
             style="font-weight:bold;font-stretch:condensed;font-family:Arial;-inkscape-font-specification:'Arial Bold Condensed'"
             id="path797" />
          <path
             d="m 354.8073,544.21137 3.79556,-3.02943 5.33082,3.5827 6.90102,-5.50806 -2.39788,-5.92362 3.7093,-2.96058 10.09403,26.44723 -3.69492,2.9491 z m 13.08215,3.20936 8.61469,5.92776 -3.89899,-9.6916 z"
             style="font-weight:bold;font-stretch:condensed;font-family:Arial;-inkscape-font-specification:'Arial Bold Condensed'"
             id="path799" />
          <path
             d="m 352.81135,545.52561 14.71327,22.59982 -7.87757,5.12856 q -3.02153,1.96713 -4.71792,2.19354 -1.68636,0.24183 -3.50239,-0.72698 -1.80598,-0.95338 -3.17092,-3.04996 -1.72625,-2.65155 -1.50054,-5.10324 0.21029,-2.44166 2.28254,-4.38341 -1.76448,-0.0805 -3.22313,-0.60148 -1.44861,-0.5056 -4.53147,-2.27395 l -5.12112,-2.94366 4.45522,-2.9005 5.9148,3.1513 q 3.2008,1.71351 4.15651,2.03516 0.96574,0.33707 1.71213,0.20234 0.75642,-0.1193 2.05136,-0.96236 l 0.7708,-0.50181 -6.14223,-9.43458 z m 4.76008,15.47071 -2.77488,1.80654 q -2.54364,1.65599 -3.09685,2.32345 -0.54317,0.68287 -0.53322,1.64219 0.01,0.95932 0.7426,2.08469 0.70255,1.07912 1.55572,1.44557 0.86321,0.38187 1.76376,0.14678 0.63454,-0.17166 3.14735,-1.80758 l 2.92903,-1.9069 z"
             style="font-weight:bold;font-stretch:condensed;font-family:Arial;-inkscape-font-specification:'Arial Bold Condensed'"
             id="path801" />
          <path
             d="m 333.87683,557.50893 12.53249,23.62862 -3.93268,2.08587 -10.40353,-19.61468 -9.81546,5.20608 -2.12898,-4.01394 z"
             style="font-weight:bold;font-stretch:condensed;font-family:Arial;-inkscape-font-specification:'Arial Bold Condensed'"
             id="path803" />
          <path
             d="m 317.22258,566.16429 10.54071,24.82188 -15.10308,6.41358 -1.78315,-4.19906 11.00561,-4.67358 -2.33679,-5.5028 -10.22675,4.34283 -1.77596,-4.18213 10.22675,-4.34283 -2.86886,-6.75575 -11.3781,4.83176 -1.77596,-4.18213 z"
             style="font-weight:bold;font-stretch:condensed;font-family:Arial;-inkscape-font-specification:'Arial Bold Condensed'"
             id="path805" />
          <path
             d="m 292.6594,575.80729 3.47832,10.80365 12.49061,12.38548 -4.97284,1.60104 -8.22506,-8.56038 -1.59803,11.72301 -4.88528,1.57285 2.94191,-17.39275 -3.46705,-10.76863 z"
             style="font-weight:bold;font-stretch:condensed;font-family:Arial;-inkscape-font-specification:'Arial Bold Condensed'"
             id="path807" />
        </g>
      </g>
      <path
         id="path436-8-8-6-4-7"
         style="fill:#f0d3b6;fill-opacity:1;stroke:none;stroke-width:0.264583px;stroke-linecap:butt;stroke-linejoin:miter;stroke-opacity:1"
         d="m 413.69035,848.46909 c -61.0749,0.6842 -119.1838,29.4682 -160.4585,76.4181 -8.0032,9.1036 -6.7322,10.536 -6.6058,18.2619 0.1265,7.7259 0.3887,70.71611 0.3887,70.71611 79.4977,-89.76561 238.4872,-109.30941 338.4734,1.4402 -0.5525,-0.034 -0.7864,-49.97671 -0.8046,-73.62031 -0.01,-10.3976 -3.0429,-15.6027 -8.1598,-20.9817 -46.1642,-48.529 -105.46,-72.877 -162.8334,-72.2343 z m 4.671,11.1089 c 59.8351,-0.1564 117.5209,27.0445 157.7547,76.1886 l -1.1658,55.5625 c -85.5049,-78.7795 -207.8014,-90.3692 -318.2214,-3.4969 v -50.8998 c 47.3183,-52.9187 105.4238,-77.2075 161.6325,-77.3544 z"
         sodipodi:nodetypes="sssccssssccccs" />
    </g>
  </g>
</svg>
