<?xml version="1.0" encoding="UTF-8" standalone="no"?>
<!-- Created with Inkscape (http://www.inkscape.org/) -->

<svg
   width="362.67117mm"
   height="197.29395mm"
   viewBox="0 0 362.67117 197.29395"
   version="1.1"
   id="svg378"
   sodipodi:docname="membershipofficer.svg"
   inkscape:version="1.2.1 (9c6d41e410, 2022-07-14)"
   xmlns:inkscape="http://www.inkscape.org/namespaces/inkscape"
   xmlns:sodipodi="http://sodipodi.sourceforge.net/DTD/sodipodi-0.dtd"
   xmlns="http://www.w3.org/2000/svg"
   xmlns:svg="http://www.w3.org/2000/svg">
  <sodipodi:namedview
     id="namedview380"
     pagecolor="#505050"
     bordercolor="#eeeeee"
     borderopacity="1"
     inkscape:showpageshadow="0"
     inkscape:pageopacity="0"
     inkscape:pagecheckerboard="0"
     inkscape:deskcolor="#505050"
     inkscape:document-units="mm"
     showgrid="false"
     inkscape:zoom="0.085119045"
     inkscape:cx="587.4126"
     inkscape:cy="-569.79022"
     inkscape:window-width="1377"
     inkscape:window-height="1259"
     inkscape:window-x="1824"
     inkscape:window-y="606"
     inkscape:window-maximized="0"
     inkscape:current-layer="layer1" />
  <defs
     id="defs375" />
  <g
     inkscape:label="Layer 1"
     inkscape:groupmode="layer"
     id="layer1"
     transform="translate(349.18874,-706.42648)">
    <g
       id="g10965"
       transform="translate(-1729.82,-181.8409)">
      <path
         style="fill:#241c17;stroke:none;stroke-width:0.264583"
         d="m 1552.0229,888.28729 c -51.5723,0.6866 -99.4286,22.5697 -137.8479,56.3919 -7.9002,6.9549 -15.5734,14.0298 -23.0188,21.4723 -3.1945,3.1932 -7.5994,6.3005 -9.4021,10.5833 -1.7715,4.2088 -0.9166,9.0707 -0.9166,13.4938 0,9.3665 0.2646,18.67591 0.2646,28.04581 0,12.8207 0.1949,25.5889 1.004,38.3646 0.2793,4.4106 -0.1067,8.8265 0.4712,13.2292 0.4344,3.3073 0.32,6.9823 0.376,10.3187 0.028,1.6801 0.2948,4.0905 1.8674,5.0906 1.9828,1.2621 4.5168,-2.0267 5.8064,-3.1618 4.9972,-4.4 9.4755,-10.1044 13.83,-15.158 18.1467,-21.0597 41.6555,-38.3312 66.3387,-50.9254 11.5388,-5.8872 24.225,-10.2581 36.7771,-13.3961 4.5238,-1.1308 8.9005,-1.8351 13.7583,-2.5252 13.3606,-1.89781 26.705,-3.70071 40.2167,-3.30171 37.2589,1.0999 74.9723,10.78971 107.1562,29.98501 19.0977,11.3905 35.1632,25.7989 51.8584,40.2746 4.3603,3.7835 8.5778,7.7337 12.9646,11.4855 1.2409,1.0637 3.6353,3.6672 5.2943,3.5798 3.4078,-0.1772 3.72,-3.1406 4.1169,-5.916 0.8996,-6.2786 -0.1508,-12.9964 -0.1508,-19.3146 0,-8.3696 -0.7726,-16.7749 -0.7726,-25.1354 0,-11.4261 -0.209,-22.7301 -1.2991,-34.13131 -0.4842,-5.0564 -0.9366,-10.0393 -1.5558,-15.0812 -0.3571,-2.8941 -0.8043,-6.2127 -2.4526,-8.7313 -11.6311,-17.7803 -28.9481,-30.2805 -46.3074,-41.9814 -6.3606,-4.2879 -12.6074,-8.817 -19.3146,-12.5593 -36.5416,-20.3858 -77.1919,-31.5539 -119.0625,-30.9964"
         id="path365-4-2-0-9-3-9"
         sodipodi:nodetypes="csssssscsccsccsccccccsscccccc" />
      <path
         id="path436-8-8-6-4-4-3"
         style="fill:#f0d3b6;fill-opacity:1;stroke:none;stroke-width:0.264583px;stroke-linecap:butt;stroke-linejoin:miter;stroke-opacity:1"
         d="m 1558.0439,899.05043 c -61.0749,0.6842 -119.1838,29.4682 -160.4585,76.4181 -8.0032,9.1036 -6.7322,10.536 -6.6058,18.2619 0.1265,7.72587 0.3887,70.71607 0.3887,70.71607 79.4977,-89.76557 238.4872,-109.30937 338.4734,1.4402 -0.5525,-0.034 -0.7864,-49.9767 -0.8046,-73.62027 -0.01,-10.3976 -3.0429,-15.6027 -8.1598,-20.9817 -46.1642,-48.529 -105.46,-72.877 -162.8334,-72.2343 z m 4.671,11.1089 c 59.8351,-0.1564 117.5209,27.0445 157.7547,76.1886 l -1.1658,55.56247 c -85.5049,-78.77947 -207.8014,-90.36917 -318.2214,-3.4969 v -50.89977 c 47.3183,-52.9187 105.4238,-77.2075 161.6325,-77.3544 z"
         sodipodi:nodetypes="sssccssssccccs" />
      <g
         aria-label="MEMBERSHIP OFFICER"
         transform="matrix(-0.60950582,-0.69221365,0.69221365,-0.60950582,1445.2976,1542.8455)"
         id="text8150-4-0-6-7-9-5-6-9-7"
         style="font-size:37.0402px;line-height:1.25;font-family:Argentum;-inkscape-font-specification:Argentum;letter-spacing:-0.804333px;word-spacing:0px;fill:#f0d3b6;stroke-width:0.926006">
        <path
           d="m 450.40684,359.38932 26.47527,1.43489 -0.35529,6.55561 -18.27291,2.9582 17.84812,4.87964 -0.35628,6.57366 -26.47527,-1.43489 0.22022,-4.06339 20.8407,1.12951 -20.60677,-5.44574 0.22904,-4.22593 21.07266,-3.1506 -20.84069,-1.12951 z"
           style="font-weight:bold;font-stretch:condensed;font-family:Arial;-inkscape-font-specification:'Arial Bold Condensed'"
           id="path810" />
        <path
           d="m 448.78759,383.91071 26.21985,3.93933 -2.39692,15.95369 -4.43556,-0.66641 1.74664,-11.62544 -5.81273,-0.87332 -1.62302,10.80272 -4.41767,-0.66372 1.62302,-10.80272 -7.13623,-1.07217 -1.80575,12.01892 -4.41767,-0.66372 z"
           style="font-weight:bold;font-stretch:condensed;font-family:Arial;-inkscape-font-specification:'Arial Bold Condensed'"
           id="path812" />
        <path
           d="m 445.8605,403.08284 25.72236,6.43113 -1.59243,6.36918 -18.50228,-0.56184 16.59838,8.17678 -1.59681,6.38672 -25.72235,-6.43113 0.98704,-3.94784 20.24802,5.06243 -19.19956,-9.25591 1.02652,-4.10575 21.2877,0.90404 -20.24802,-5.06243 z"
           style="font-weight:bold;font-stretch:condensed;font-family:Arial;-inkscape-font-specification:'Arial Bold Condensed'"
           id="path814" />
        <path
           d="m 464.60076,435.80474 -2.9403,8.18742 q -1.20424,3.35327 -2.30605,4.49494 -1.10181,1.14167 -2.98699,1.52159 -1.88518,0.37992 -3.84267,-0.32306 -1.8043,-0.64797 -2.98086,-1.9737 -1.15954,-1.31961 -1.39896,-2.84686 -1.3009,1.58902 -3.23367,2.04794 -1.93888,0.47594 -4.18574,-0.33097 -2.72346,-0.97806 -4.14218,-2.96726 -1.40169,-1.98308 -1.2024,-3.92929 0.13985,-1.35262 1.76588,-5.88038 l 2.50017,-6.96186 z m -5.63261,2.6277 -5.77034,-2.07227 -0.97807,2.72347 q -0.88025,2.45112 -1.00298,3.06042 -0.20878,1.11647 0.29218,1.96897 0.51798,0.85861 1.76056,1.30485 1.10641,0.39734 1.96455,0.14823 0.86905,-0.22598 1.28989,-0.86274 0.41473,-0.61974 1.58841,-3.8879 z m -9.92363,-3.56382 -6.6725,-2.39625 -1.3754,3.82988 q -0.9047,2.51921 -0.90612,3.32581 0.0156,0.81272 0.61042,1.5644 0.60572,0.77482 1.79724,1.20273 1.22556,0.44012 2.19806,0.19364 0.9834,-0.22334 1.58453,-0.98753 0.61203,-0.74105 1.56564,-3.39643 z"
           style="font-weight:bold;font-stretch:condensed;font-family:Arial;-inkscape-font-specification:'Arial Bold Condensed'"
           id="path816" />
        <path
           d="m 432.31478,446.67047 24.06252,11.13527 -6.77535,14.64104 -4.07061,-1.88373 4.9372,-10.66892 -5.33446,-2.46859 -4.58779,9.91388 -4.05419,-1.87613 4.58779,-9.91389 -6.54907,-3.03068 -5.1043,11.03002 -4.05419,-1.87613 z"
           style="font-weight:bold;font-stretch:condensed;font-family:Arial;-inkscape-font-specification:'Arial Bold Condensed'"
           id="path818" />
        <path
           d="m 424.02827,464.27804 22.9862,13.21489 -4.60628,8.01225 q -1.76679,3.07319 -3.15117,4.0297 -1.3687,0.96552 -3.39207,0.92882 -2.00768,-0.0277 -4.1401,-1.25362 -2.69688,-1.55046 -3.59505,-3.79835 -0.90718,-2.23222 0.0396,-4.8589 -1.58117,0.71821 -3.09142,0.91391 -1.49458,0.20472 -4.98471,0.0341 l -5.80043,-0.28886 2.60512,-4.53139 6.58828,0.11595 q 3.56891,0.0699 4.54962,-0.0756 0.99638,-0.13648 1.5898,-0.58807 0.60909,-0.44258 1.36629,-1.75966 l 0.45071,-0.78398 -9.59588,-5.51672 z m 11.08344,11.42051 -1.62256,2.82231 q -1.48736,2.58713 -1.67348,3.4189 -0.17045,0.8408 0.26705,1.67645 0.4375,0.83566 1.58211,1.4937 1.09756,0.63099 2.0085,0.57057 0.92662,-0.0514 1.61018,-0.65981 0.47896,-0.43395 1.94828,-2.98971 l 1.71271,-2.97911 z"
           style="font-weight:bold;font-stretch:condensed;font-family:Arial;-inkscape-font-specification:'Arial Bold Condensed'"
           id="path820" />
        <path
           d="m 421.04429,486.51071 -2.0396,3.8039 q -4.58055,-2.31741 -6.87993,0.97407 -1.13933,1.63092 -0.94675,3.15537 0.20741,1.53481 1.46767,2.4152 0.74132,0.51788 1.48812,0.55421 0.74679,0.0363 1.53907,-0.40299 0.8071,-0.42897 3.38476,-2.44501 2.30227,-1.8113 3.86347,-2.30915 1.5612,-0.49784 3.32614,-0.21356 1.7694,0.30947 3.29653,1.3763 1.77919,1.2429 2.64322,3.03786 0.85368,1.80978 0.58586,3.74065 -0.26783,1.93087 -1.72824,4.02141 -2.19581,3.14322 -5.13341,3.71645 -2.93759,0.57324 -6.18297,-1.53949 l 2.32414,-3.73749 q 1.91525,0.98496 3.16105,0.68596 1.24579,-0.299 2.26083,-1.752 1.01505,-1.45299 0.95611,-2.66346 -0.0589,-1.21046 -0.96336,-1.84228 -0.88959,-0.62145 -1.99464,-0.33444 -1.10505,0.28702 -3.6234,2.34448 -2.68124,2.16431 -4.39497,2.75416 -1.70926,0.61503 -3.5335,0.28932 -1.80941,-0.31535 -3.76651,-1.68255 -2.83187,-1.97829 -3.53712,-5.07431 -0.71562,-3.08118 1.87377,-6.78781 4.57804,-6.55332 12.55366,-2.0848 z"
           style="font-weight:bold;font-stretch:condensed;font-family:Arial;-inkscape-font-specification:'Arial Bold Condensed'"
           id="path822" />
        <path
           d="m 402.08372,498.37069 20.32184,17.03003 -2.81123,3.35462 -7.99843,-6.70281 -5.52954,6.59836 7.99843,6.70281 -2.82284,3.36849 -20.32184,-17.03003 2.82285,-3.36849 8.8856,7.44629 5.52954,-6.59836 -8.88561,-7.44628 z"
           style="font-weight:bold;font-stretch:condensed;font-family:Arial;-inkscape-font-specification:'Arial Bold Condensed'"
           id="path824" />
        <path
           d="m 388.37699,514.23903 19.22615,18.25799 -3.01394,3.17375 -19.22615,-18.25799 z"
           style="font-weight:bold;font-stretch:condensed;font-family:Arial;-inkscape-font-specification:'Arial Bold Condensed'"
           id="path826" />
        <path
           d="m 383.06904,519.91925 18.13751,19.33985 -5.14498,4.82512 q -2.87591,2.69712 -4.01961,3.24901 -1.83222,0.87528 -4.11579,0.26461 -2.29676,-0.59829 -4.46188,-2.90693 -1.96717,-2.09757 -2.51182,-4.26466 -0.53228,-2.1539 0.11065,-3.84785 0.6553,-1.68076 3.5576,-4.40262 l 2.09757,-1.96716 -6.84177,-7.29532 z m 11.8767,19.06222 -5.1468,-5.48798 -1.76776,1.65786 q -1.78095,1.67023 -2.17911,2.51475 -0.41135,0.85688 -0.21408,1.88684 0.20965,1.04315 1.10044,1.99299 0.90316,0.96304 1.94392,1.22674 1.04076,0.26371 1.87112,-0.0935 0.83036,-0.35722 2.83558,-2.23778 z"
           style="font-weight:bold;font-stretch:condensed;font-family:Arial;-inkscape-font-specification:'Arial Bold Condensed'"
           id="path828" />
        <path
           d="m 371.72614,547.74903 q 2.79419,3.82704 3.47181,7.11682 0.67368,3.31506 -0.26701,5.86055 -0.9407,2.54549 -3.54075,4.44384 -3.76861,2.75153 -8.23593,1.60165 -4.48193,-1.13921 -8.36394,-6.45617 -3.92467,-5.37538 -3.61989,-10.23339 0.254,-4.28349 4.03722,-7.04569 3.81243,-2.78353 7.94843,-1.75005 4.72004,1.1893 8.57006,6.46244 z m -3.54511,2.81228 q -2.69821,-3.69557 -5.45493,-4.52684 -2.74604,-0.81666 -4.82024,0.69775 -2.08881,1.52508 -2.12876,4.35345 -0.0293,2.84299 2.74358,6.64081 2.71954,3.7248 5.3645,4.52569 2.63035,0.81155 4.79219,-0.76685 2.16184,-1.5784 2.20852,-4.3669 0.0467,-2.78849 -2.70486,-6.55711 z"
           style="font-weight:bold;font-stretch:condensed;font-family:Arial;-inkscape-font-specification:'Arial Bold Condensed'"
           id="path830" />
        <path
           d="m 344.67077,550.9516 13.69298,22.70465 -12.76168,7.69647 -2.31641,-3.8409 9.01371,-5.43609 -3.24111,-5.37416 -7.7902,4.69821 -2.31641,-3.8409 7.7902,-4.69821 -5.81905,-9.6487 z"
           style="font-weight:bold;font-stretch:condensed;font-family:Arial;-inkscape-font-specification:'Arial Bold Condensed'"
           id="path832" />
        <path
           d="m 329.39329,559.99981 11.90041,23.69344 -13.31746,6.68891 -2.01317,-4.00817 9.40626,-4.72445 -2.81681,-5.6082 -8.12946,4.08316 -2.01317,-4.00817 8.12947,-4.08316 -5.05727,-10.0689 z"
           style="font-weight:bold;font-stretch:condensed;font-family:Arial;-inkscape-font-specification:'Arial Bold Condensed'"
           id="path834" />
        <path
           d="m 313.57378,567.68504 10.57054,24.31589 -4.01395,1.74493 -10.57054,-24.31589 z"
           style="font-weight:bold;font-stretch:condensed;font-family:Arial;-inkscape-font-specification:'Arial Bold Condensed'"
           id="path836" />
        <path
           d="m 296.70329,584.78078 -4.55662,-0.10138 q -0.57857,-4.52215 0.89672,-7.24866 1.48144,-2.7095 4.66171,-3.86034 3.99659,-1.44624 7.59349,0.73347 4.14337,2.52051 6.32811,8.55792 2.30783,6.37754 0.73838,11.02303 -1.36762,4.03392 -5.5853,5.56016 -3.43537,1.24315 -6.59757,-0.26681 -2.25277,-1.0697 -4.20584,-4.07507 l 3.65083,-2.66749 q 1.12351,1.88226 2.68469,2.52905 1.55033,0.66995 3.13196,0.0976 2.2619,-0.81851 2.97658,-3.30825 0.71468,-2.48974 -0.92849,-7.03055 -1.70472,-4.71088 -3.81932,-6.19603 -2.11459,-1.48514 -4.34248,-0.67894 -1.63265,0.5908 -2.36771,2.2801 -0.72891,1.7063 -0.25914,4.65218 z"
           style="font-weight:bold;font-stretch:condensed;font-family:Arial;-inkscape-font-specification:'Arial Bold Condensed'"
           id="path838" />
        <path
           d="m 286.5365,577.8812 6.77668,25.63348 -15.59691,4.12333 -1.14639,-4.33636 11.36546,-3.00467 -1.50234,-5.68273 -10.56113,2.79203 -1.14178,-4.31887 10.56114,-2.79203 -1.8444,-6.97665 -11.75014,3.10637 -1.14178,-4.31888 z"
           style="font-weight:bold;font-stretch:condensed;font-family:Arial;-inkscape-font-specification:'Arial Bold Condensed'"
           id="path840" />
        <path
           d="m 267.69093,582.73305 4.48276,26.13242 -9.10892,1.56255 q -3.49383,0.59933 -5.1135,0.14316 -1.61661,-0.43834 -2.87886,-2.02014 -1.25919,-1.56396 -1.67506,-3.98825 -0.52594,-3.06602 0.63252,-5.19151 1.14063,-2.12244 3.76757,-3.06852 -1.56164,-0.75973 -2.67562,-1.7981 -1.11093,-1.02054 -3.20553,-3.81747 l -3.47708,-4.6517 5.15161,-0.88371 4.11277,5.14821 q 2.22244,2.79335 2.96,3.45589 0.74061,0.68036 1.46691,0.84937 0.72936,0.18684 2.22672,-0.07 l 0.89128,-0.15289 -1.87138,-10.90931 z m -1.7269,15.8205 -3.20862,0.55041 q -2.94123,0.50454 -3.70058,0.8917 -0.75629,0.40499 -1.12086,1.27494 -0.36458,0.86994 -0.14136,2.17122 0.21405,1.24779 0.8416,1.91085 0.6306,0.68089 1.53516,0.81932 0.63971,0.0921 3.54529,-0.4063 l 3.38688,-0.58099 z"
           style="font-weight:bold;font-stretch:condensed;font-family:Arial;-inkscape-font-specification:'Arial Bold Condensed'"
           id="path842" />
      </g>
    </g>
  </g>
</svg>
