<?xml version="1.0" encoding="UTF-8" standalone="no"?>
<!-- Created with Inkscape (http://www.inkscape.org/) -->

<svg
   width="362.67114mm"
   height="197.29399mm"
   viewBox="0 0 362.67114 197.29399"
   version="1.1"
   id="svg997"
   xmlns="http://www.w3.org/2000/svg"
   xmlns:svg="http://www.w3.org/2000/svg">
  <defs
     id="defs994" />
  <g
     id="layer1"
     transform="translate(244.25232,-2.1846382)">
    <path
       style="fill:#241c17;stroke:none;stroke-width:0.264583"
       d="m -72.86065,2.20455 c -51.5724,0.6866 -99.4286,22.56976 -137.848,56.391968 -7.9002,6.95484 -15.5733,14.029792 -23.0187,21.472262 -3.1946,3.19325 -7.5995,6.30052 -9.4021,10.58333 -1.7715,4.20873 -0.9167,9.07071 -0.9167,13.49375 0,9.36652 0.2646,18.67588 0.2646,28.04583 0,12.82065 0.1949,25.58892 1.0041,38.36459 0.2793,4.4106 -0.1068,8.8265 0.4711,13.22916 0.4345,3.3073 0.3201,6.98236 0.3761,10.31875 0.028,1.68011 0.2948,4.09046 1.8674,5.09059 1.9828,1.26206 4.5168,-2.02671 5.8063,-3.16177 4.9972,-4.40002 9.4755,-10.10444 13.8301,-15.15798 18.1467,-21.05978 41.6554,-38.33125 66.3387,-50.92541 11.5387,-5.88725 24.225,-10.25816 36.7771,-13.39612 4.5238,-1.13083 8.9004,-1.83515 13.7583,-2.52519 13.3605,-1.89781 26.7049,-3.70072 40.2167,-3.30173 37.2588,1.09987 74.97229,10.78971 107.1562,29.98496 19.09763,11.39058 35.16313,25.79899 51.85834,40.27461 4.36033,3.78354 8.57779,7.73377 12.96458,11.48557 1.2409,1.06362 3.63537,3.66712 5.29431,3.57981 3.40784,-0.17727 3.72004,-3.14061 4.11692,-5.91609 0.89958,-6.27856 -0.15081,-12.99633 -0.15081,-19.31458 0,-8.36956 -0.77259,-16.77485 -0.77259,-25.13542 0,-11.42603 -0.20902,-22.73008 -1.2991,-34.13125 -0.48419,-5.05645 -0.93663,-10.03935 -1.55575,-15.08125 -0.35719,-2.89401 -0.80433,-6.21268 -2.45269,-8.73125 C 100.19269,69.961428 82.8757,57.46119 65.51639,45.76026 59.1558,41.47242 52.90899,36.94329 46.2018,33.20102 9.6602,12.81514 -30.99015,1.64708 -72.86065,2.20455"
       id="path365-3-6" />
    <path
       id="path436-1-9"
       style="fill:#f0d3b6;fill-opacity:1;stroke:none;stroke-width:0.264583px;stroke-linecap:butt;stroke-linejoin:miter;stroke-opacity:1"
       d="m -66.83975,11.90937 c -61.0749,0.6842 -119.1837,29.46817 -160.4584,76.41807 -8.0033,9.10369 -6.7322,10.53608 -6.6058,18.26194 0.1264,7.72586 0.3886,70.7161 0.3886,70.7161 79.4977,-89.7656 238.48729,-109.309401 338.47341,1.44022 -0.55244,-0.0335 -0.78632,-49.97673 -0.8046,-73.62032 -0.008,-10.39761 -3.04282,-15.60265 -8.15971,-20.98166 C 49.82947,35.61467 -9.46632,11.26664 -66.83975,11.90937 Z m 4.6711,11.10888 C -2.33363,22.86186 55.35221,50.0628 95.58602,99.20688 l -1.16582,55.5625 C 8.91533,75.98989 -113.38125,64.400159 -223.80125,151.27244 V 100.3727 c 47.3183,-52.91867 105.4239,-77.20754 161.6326,-77.35445 z" />
    <g
       aria-label="MERCHANDISE OFFICER"
       transform="matrix(-0.477468,-0.56242975,0.56242975,-0.477468,-98.13775,585.14806)"
       id="text8150-6-9"
       style="font-size:41.0796px;line-height:1.25;font-family:Argentum;-inkscape-font-specification:Argentum;letter-spacing:0px;word-spacing:0px;fill:#f0d3b6;stroke-width:1.02699">
      <path
         d="m 570.91252,299.36695 29.37237,1.39798 -0.34616,7.27297 -20.24361,3.41418 19.82974,5.28132 -0.34711,7.293 -29.37236,-1.39798 0.21456,-4.50804 23.12122,1.10046 -22.89331,-5.889 0.22314,-4.68836 23.34723,-3.648 -23.12122,-1.10046 z"
         style="font-weight:bold;font-stretch:condensed;font-family:Arial;-inkscape-font-specification:'Arial Bold Condensed'"
         id="path903" />
      <path
         d="m 569.24382,327.46265 29.14202,3.92847 -2.39032,17.73171 -4.92989,-0.66458 1.74182,-12.92108 -6.46054,-0.87091 -1.61855,12.00667 -4.91002,-0.66189 1.61856,-12.00667 -7.93156,-1.06921 -1.80078,13.35841 -4.91001,-0.66189 z"
         style="font-weight:bold;font-stretch:condensed;font-family:Arial;-inkscape-font-specification:'Arial Bold Condensed'"
         id="path905" />
      <path
         d="m 566.08225,349.71126 28.73009,6.2667 -2.18436,10.01438 q -0.83784,3.84113 -1.98082,5.31634 -1.12338,1.47949 -3.27478,2.11884 -2.1318,0.64362 -4.79708,0.0623 -3.37079,-0.73524 -5.07374,-2.81069 -1.70722,-2.05584 -1.58661,-5.1501 -1.43089,1.28923 -2.96194,2.00231 -1.51145,0.71735 -5.25841,1.70669 l -6.22902,1.63869 1.23538,-5.66371 7.00399,-2.08556 q 3.79648,-1.12225 4.78452,-1.60475 1.00763,-0.47824 1.48363,-1.15455 0.4956,-0.67204 0.85467,-2.31824 l 0.21374,-0.97988 -11.99374,-2.61611 z m 15.5451,8.35901 -0.76945,3.52757 q -0.70532,3.2336 -0.62331,4.17534 0.1016,0.94602 0.8442,1.68284 0.74261,0.73682 2.17323,1.04887 1.37183,0.29923 2.31462,-0.07 0.96239,-0.36492 1.48114,-1.23721 0.36091,-0.6193 1.05769,-3.81371 l 0.81219,-3.72355 z"
         style="font-weight:bold;font-stretch:condensed;font-family:Arial;-inkscape-font-specification:'Arial Bold Condensed'"
         id="path907" />
      <path
         d="m 566.48467,391.35032 -3.13295,3.96681 q -4.39039,-2.50789 -5.81921,-5.63507 -1.40965,-3.12126 -0.30465,-6.70573 1.38864,-4.50453 5.72082,-6.23355 4.99889,-1.98527 11.80362,0.11246 7.1881,2.21591 10.25313,6.70807 2.65833,3.90501 1.19287,8.65874 -1.19364,3.87198 -4.64249,5.66341 -2.45167,1.28023 -6.41706,1.00235 l 0.0764,-5.01402 q 2.41693,0.26231 4.03226,-0.68803 1.62858,-0.92525 2.17813,-2.7079 0.78591,-2.54938 -0.94124,-4.84497 -1.72716,-2.29559 -6.84508,-3.87332 -5.30961,-1.63681 -8.03684,-0.75638 -2.72723,0.88043 -3.50132,3.39147 -0.56728,1.84016 0.43754,3.61921 1.02398,1.78496 3.94606,3.33645 z"
         style="font-weight:bold;font-stretch:condensed;font-family:Arial;-inkscape-font-specification:'Arial Bold Condensed'"
         id="path909" />
      <path
         d="m 553.33422,396.60072 27.27154,10.99787 -1.81547,4.50185 -10.73376,-4.32863 -3.57093,8.85488 10.73376,4.32863 -1.82298,4.52045 -27.27154,-10.99786 1.82297,-4.52046 11.92433,4.80876 3.57093,-8.85488 -11.92433,-4.80876 z"
         style="font-weight:bold;font-stretch:condensed;font-family:Arial;-inkscape-font-specification:'Arial Bold Condensed'"
         id="path911" />
      <path
         d="m 534.25793,438.46722 2.38608,-4.72738 6.91195,1.12951 4.33832,-8.59524 -5.06817,-4.78247 2.33185,-4.61994 22.02141,21.6303 -2.32281,4.60203 z m 14.42597,-2.76217 11.23255,1.96215 -8.26804,-7.83556 z"
         style="font-weight:bold;font-stretch:condensed;font-family:Arial;-inkscape-font-specification:'Arial Bold Condensed'"
         id="path913" />
      <path
         d="m 532.88274,440.72261 25.0499,15.40104 -2.47929,4.03259 -21.89712,-1.87794 16.72842,10.28487 -2.37424,3.86172 -25.04991,-15.40105 2.56334,-4.16929 21.42007,1.77302 -16.33541,-10.04324 z"
         style="font-weight:bold;font-stretch:condensed;font-family:Arial;-inkscape-font-specification:'Arial Bold Condensed'"
         id="path916" />
      <path
         d="m 543.69337,478.69894 -5.26913,7.15506 q -1.99823,2.71343 -3.62299,3.63432 -1.6205,0.94893 -3.91436,1.05325 -2.29386,0.10431 -5.07501,-0.92246 -2.78116,-1.02677 -6.1891,-3.53645 -3.06877,-2.2599 -4.83466,-4.63149 -1.74974,-2.3597 -2.28914,-4.40102 -0.53939,-2.04131 -0.0997,-4.0591 0.44395,-1.98974 2.1924,-4.36399 l 5.42376,-7.36503 z m -6.88394,0.95887 -15.68299,-11.54928 -2.16474,2.93955 q -1.39163,1.88971 -1.6548,2.99126 -0.27506,1.11769 0.0431,2.17403 0.32241,1.08439 1.61127,2.58157 1.28886,1.49717 3.82463,3.36456 2.63267,1.93876 4.42447,2.68533 1.7799,0.76273 3.223,0.62975 1.4312,-0.11683 2.51458,-1.01292 0.81657,-0.6691 2.55313,-3.0272 z"
         style="font-weight:bold;font-stretch:condensed;font-family:Arial;-inkscape-font-specification:'Arial Bold Condensed'"
         id="path918" />
      <path
         d="m 505.39331,480.52939 22.63282,18.77354 -3.09904,3.73611 -22.63282,-18.77353 z"
         style="font-weight:bold;font-stretch:condensed;font-family:Arial;-inkscape-font-specification:'Arial Bold Condensed'"
         id="path920" />
      <path
         d="m 507.20648,493.48231 -2.81758,3.86983 q -4.68098,-3.24056 -7.70627,0.0269 -1.49901,1.61903 -1.51859,3.32305 -0.005,1.71766 1.24621,2.87599 0.73592,0.68137 1.55087,0.83452 0.81495,0.15316 1.75199,-0.20937 0.95176,-0.3489 4.08938,-2.17293 2.80402,-1.64087 4.59471,-1.95109 1.79069,-0.31022 3.68661,0.26972 1.89701,0.6083 3.41301,2.01192 1.76621,1.63529 2.4433,3.73832 0.66346,2.11775 0.0764,4.19847 -0.58702,2.08071 -2.50849,4.15601 -2.88902,3.12031 -6.2033,3.30465 -3.31429,0.18434 -6.55943,-2.6289 l 3.12013,-3.75374 q 1.95481,1.37254 3.36884,1.23296 1.41402,-0.13959 2.7495,-1.582 1.33549,-1.44241 1.45429,-2.78121 0.1188,-1.3388 -0.77903,-2.17007 -0.88311,-0.81765 -2.14068,-0.66989 -1.25757,0.14776 -4.33632,2.02631 -3.2739,1.97122 -5.24611,2.3594 -1.97111,0.41652 -3.92591,-0.21794 -1.94008,-0.62083 -3.88291,-2.41965 -2.81122,-2.60284 -3.11658,-6.11118 -0.31899,-3.49362 3.08786,-7.17324 6.02333,-6.50555 14.10807,-0.38687 z"
         style="font-weight:bold;font-stretch:condensed;font-family:Arial;-inkscape-font-specification:'Arial Bold Condensed'"
         id="path922" />
      <path
         d="m 483.93631,504.25301 19.97991,21.5753 -13.12768,12.15694 -3.37995,-3.64985 9.56613,-8.85875 -4.42938,-4.78307 -8.88914,8.23183 -3.36633,-3.63513 8.88914,-8.23183 -5.43791,-5.87213 -9.88991,9.15859 -3.36633,-3.63513 z"
         style="font-weight:bold;font-stretch:condensed;font-family:Arial;-inkscape-font-specification:'Arial Bold Condensed'"
         id="path924" />
      <path
         d="m 469.46366,536.49402 q 3.10284,4.24153 3.85774,7.88938 0.75055,3.67588 -0.29012,6.49994 -1.04066,2.82405 -3.92231,4.93209 -4.17677,3.05547 -9.13245,1.78479 -4.97186,-1.25885 -9.28269,-7.15165 -4.35819,-5.95757 -4.02516,-11.34568 0.27729,-4.75087 4.47025,-7.81819 4.22533,-3.091 8.81345,-1.94906 5.23599,1.31414 9.51129,7.15838 z m -3.92883,3.12262 q -2.99626,-4.09582 -6.05446,-5.01491 -3.04635,-0.9029 -5.34519,0.7788 -2.31504,1.69354 -2.35644,4.8304 -0.0296,3.15305 3.0496,7.3622 3.01994,4.1282 5.95417,5.01371 2.91804,0.89736 5.31401,-0.85539 2.39598,-1.75275 2.44488,-4.8454 0.0489,-3.09264 -3.00657,-7.26941 z"
         style="font-weight:bold;font-stretch:condensed;font-family:Arial;-inkscape-font-specification:'Arial Bold Condensed'"
         id="path926" />
      <path
         d="m 438.73624,540.59179 15.40012,25.05047 -14.08021,8.65601 -2.60521,-4.23774 9.94501,-6.11383 -3.64519,-5.92941 -8.59508,5.28395 -2.6052,-4.23773 8.59508,-5.28395 -6.54453,-10.6456 z"
         style="font-weight:bold;font-stretch:condensed;font-family:Arial;-inkscape-font-specification:'Arial Bold Condensed'"
         id="path928" />
      <path
         d="m 421.11009,551.22112 13.58606,26.0789 -14.65826,7.63637 -2.29832,-4.41171 10.35329,-5.39365 -3.21581,-6.17283 -8.94794,4.66152 -2.29832,-4.41171 8.94794,-4.66152 -5.77361,-11.08265 z"
         style="font-weight:bold;font-stretch:condensed;font-family:Arial;-inkscape-font-specification:'Arial Bold Condensed'"
         id="path930" />
      <path
         d="m 402.89961,560.41019 12.21917,26.74662 -4.4152,2.01708 -12.21917,-26.74662 z"
         style="font-weight:bold;font-stretch:condensed;font-family:Arial;-inkscape-font-specification:'Arial Bold Condensed'"
         id="path932" />
      <path
         d="m 383.78976,580.0996 -5.0548,0.004 q -0.75687,-4.99922 0.80931,-8.05991 1.57343,-3.042 5.07022,-4.39914 4.39436,-1.70551 8.43808,0.61949 4.65832,2.68892 7.23472,9.32722 2.72156,7.01228 1.09994,12.20307 -1.41344,4.50755 -6.05089,6.3074 -3.77729,1.46601 -7.32194,-0.12749 -2.52508,-1.12857 -4.76724,-4.41097 l 3.97983,-3.05076 q 1.29373,2.05831 3.04121,2.73561 1.73604,0.70326 3.47509,0.0283 2.48702,-0.96525 3.2159,-3.74401 0.72889,-2.77876 -1.20886,-7.7715 -2.01032,-5.17974 -4.3928,-6.77246 -2.38248,-1.59272 -4.8321,-0.64199 -1.79515,0.69672 -2.56705,2.5885 -0.76465,1.91048 -0.16862,5.16477 z"
         style="font-weight:bold;font-stretch:condensed;font-family:Arial;-inkscape-font-specification:'Arial Bold Condensed'"
         id="path935" />
      <path
         d="m 371.50511,573.01534 8.38353,28.18522 -17.14953,5.10103 -1.41822,-4.76803 12.49685,-3.71712 -1.85856,-6.24843 -11.61246,3.45406 -1.4125,-4.7488 11.61246,-3.45406 -2.28174,-7.67115 -12.91982,3.84293 -1.41251,-4.74881 z"
         style="font-weight:bold;font-stretch:condensed;font-family:Arial;-inkscape-font-specification:'Arial Bold Condensed'"
         id="path937" />
      <path
         d="m 349.91952,579.26535 6.0739,28.77147 -10.02881,2.11717 q -3.84666,0.81206 -5.66096,0.37505 -1.81015,-0.41738 -3.27598,-2.11698 -1.46168,-1.67997 -2.02515,-4.34908 -0.71263,-3.37565 0.48128,-5.78025 1.17429,-2.40045 4.04555,-3.56011 -1.76284,-0.77588 -3.04135,-1.87951 -1.27436,-1.084 -3.71406,-4.09504 l -4.05032,-5.00809 5.67186,-1.19738 4.77582,5.53144 q 2.58123,3.00167 3.42666,3.70472 0.84958,0.72266 1.66165,0.87924 0.81622,0.17619 2.46479,-0.17183 l 0.98129,-0.20716 -2.53562,-12.01101 z m -1.24433,17.6061 -3.53265,0.74578 q -3.23826,0.68362 -4.06342,1.14483 -0.82101,0.48083 -1.18824,1.46037 -0.36722,0.97955 -0.0648,2.41223 0.29003,1.37381 1.01356,2.08209 0.72768,0.7279 1.73601,0.84304 0.71286,0.075 3.91187,-0.60032 l 3.72891,-0.7872 z"
         style="font-weight:bold;font-stretch:condensed;font-family:Arial;-inkscape-font-specification:'Arial Bold Condensed'"
         id="path939" />
    </g>
  </g>
</svg>
