<?xml version="1.0" encoding="UTF-8" standalone="no"?>
<!-- Created with Inkscape (http://www.inkscape.org/) -->

<svg
   width="362.67117mm"
   height="197.29395mm"
   viewBox="0 0 362.67117 197.29395"
   version="1.1"
   id="svg378"
   sodipodi:docname="pastofficer.svg"
   inkscape:version="1.2.1 (9c6d41e410, 2022-07-14)"
   xmlns:inkscape="http://www.inkscape.org/namespaces/inkscape"
   xmlns:sodipodi="http://sodipodi.sourceforge.net/DTD/sodipodi-0.dtd"
   xmlns="http://www.w3.org/2000/svg"
   xmlns:svg="http://www.w3.org/2000/svg">
  <sodipodi:namedview
     id="namedview380"
     pagecolor="#505050"
     bordercolor="#eeeeee"
     borderopacity="1"
     inkscape:showpageshadow="0"
     inkscape:pageopacity="0"
     inkscape:pagecheckerboard="0"
     inkscape:deskcolor="#505050"
     inkscape:document-units="mm"
     showgrid="false"
     inkscape:zoom="0.085119045"
     inkscape:cx="587.4126"
     inkscape:cy="-569.79022"
     inkscape:window-width="1377"
     inkscape:window-height="1259"
     inkscape:window-x="1824"
     inkscape:window-y="606"
     inkscape:window-maximized="0"
     inkscape:current-layer="layer1"
     showguides="false" />
  <defs
     id="defs375" />
  <g
     inkscape:label="Layer 1"
     inkscape:groupmode="layer"
     id="layer1"
     transform="translate(349.18874,-706.42648)">
    <g
       id="g11001"
       transform="translate(276.13578,167.66367)">
      <path
         style="fill:#241c17;stroke:none;stroke-width:0.264583"
         d="m -453.9329,538.78272 c -51.5723,0.6866 -99.4286,22.56976 -137.8479,56.39197 -7.9002,6.95484 -15.5734,14.02979 -23.0188,21.47226 -3.1945,3.19325 -7.5994,6.30052 -9.4021,10.58333 -1.7715,4.20873 -0.9166,9.07071 -0.9166,13.49375 0,9.36652 0.2646,18.67588 0.2646,28.04583 0,12.82065 0.1949,25.58892 1.004,38.36459 0.2793,4.4106 -0.1067,8.8265 0.4712,13.22916 0.4344,3.3073 0.32,6.98236 0.376,10.31875 0.028,1.68011 0.2948,4.09046 1.8674,5.09059 1.9828,1.26206 4.5168,-2.02671 5.8064,-3.16177 4.9972,-4.40002 9.4755,-10.10444 13.83,-15.15798 18.1467,-21.05978 41.6555,-38.33125 66.3387,-50.92541 11.5388,-5.88725 24.225,-10.25816 36.7771,-13.39612 4.5238,-1.13083 8.9005,-1.83515 13.7583,-2.52519 13.3606,-1.89781 26.705,-3.70072 40.2167,-3.30173 37.2589,1.09987 74.9723,10.78971 107.1562,29.98496 19.0977,11.39058 35.1632,25.79899 51.8584,40.27461 4.3603,3.78354 8.5778,7.73377 12.9646,11.48557 1.2409,1.06362 3.6353,3.66712 5.2943,3.57981 3.4078,-0.17727 3.72,-3.14061 4.1169,-5.91609 0.8996,-6.27856 -0.1508,-12.99633 -0.1508,-19.31458 0,-8.36956 -0.7726,-16.77485 -0.7726,-25.13542 0,-11.42603 -0.209,-22.73008 -1.2991,-34.13125 -0.4842,-5.05645 -0.9366,-10.03935 -1.5558,-15.08125 -0.3571,-2.89401 -0.8043,-6.21268 -2.4526,-8.73125 -11.6311,-17.78026 -28.9481,-30.2805 -46.3074,-41.98143 -6.3606,-4.28784 -12.6074,-8.81697 -19.3146,-12.55924 -36.5416,-20.38588 -77.1919,-31.55394 -119.0625,-30.99647"
         id="path365-4-2-0"
         sodipodi:nodetypes="csssssscsccsccsccccccsscccccc" />
      <path
         id="path436-8-8-6"
         style="fill:#f0d3b6;fill-opacity:1;stroke:none;stroke-width:0.264583px;stroke-linecap:butt;stroke-linejoin:miter;stroke-opacity:1"
         d="m -447.9119,548.48754 c -61.0749,0.6842 -119.1838,29.46817 -160.4585,76.41807 -8.0032,9.10369 -6.7322,10.53608 -6.6058,18.26194 0.1265,7.72586 0.3887,70.7161 0.3887,70.7161 79.4977,-89.7656 238.4872,-109.3094 338.4734,1.44022 -0.5525,-0.0335 -0.7864,-49.97673 -0.8046,-73.62032 -0.01,-10.39761 -3.0429,-15.60265 -8.1598,-20.98166 -46.1642,-48.52905 -105.46,-72.87708 -162.8334,-72.23435 z m 4.671,11.10888 c 59.8351,-0.15639 117.5209,27.04455 157.7547,76.18863 l -1.1658,55.5625 c -85.5049,-78.77949 -207.8014,-90.36922 -318.2214,-3.49694 v -50.89974 c 47.3183,-52.91867 105.4238,-77.20754 161.6325,-77.35445 z"
         sodipodi:nodetypes="sssccssssccccs" />
      <g
         aria-label="PAST OFFICER"
         transform="rotate(-120.83125,25.42763,788.9127)"
         id="text8150-4-0-6-7-9-1"
         style="font-size:41.0796px;line-height:1.25;font-family:Argentum;-inkscape-font-specification:Argentum;letter-spacing:0px;word-spacing:0px;fill:#f0d3b6;stroke-width:1.02699">
        <path
           d="m 450.31039,359.67962 29.37533,1.33417 -0.35493,7.81472 q -0.1984,4.36823 -0.68017,5.69165 -0.77866,2.11309 -3.06564,3.39468 -2.2879,1.30162 -5.7945,1.14236 -3.186,-0.1447 -5.29547,-1.44526 -2.08944,-1.29964 -2.88919,-3.14308 -0.77972,-1.84253 -0.5795,-6.25083 l 0.1447,-3.186 -11.08087,-0.50328 z m 24.18573,5.95761 -8.3357,-0.37859 -0.12195,2.68505 q -0.12286,2.7051 0.21417,3.6842 0.33612,0.99914 1.28976,1.66491 0.97368,0.66667 2.41639,0.7322 1.46276,0.0664 2.49377,-0.52927 1.03101,-0.59571 1.41442,-1.52201 0.38342,-0.9263 0.52175,-3.97204 z"
           style="font-weight:bold;font-stretch:condensed;font-family:Arial;-inkscape-font-specification:'Arial Bold Condensed'"
           id="path720" />
        <path
           d="m 446.27612,401.19509 0.74455,-5.24282 6.90922,-1.14605 1.35373,-9.53239 -6.33388,-2.90521 0.72763,-5.12366 27.79361,13.4286 -0.72481,5.1038 z m 12.77896,-7.24128 11.26872,-1.74253 -10.34367,-4.77127 z"
           style="font-weight:bold;font-stretch:condensed;font-family:Arial;-inkscape-font-specification:'Arial Bold Condensed'"
           id="path722" />
        <path
           d="m 455.24404,404.79608 -0.58618,4.75088 q -5.66538,-0.56251 -6.72543,3.76244 -0.52525,2.14299 0.28439,3.64252 0.82911,1.5043 2.48506,1.91017 0.97409,0.23875 1.761,-0.0227 0.78691,-0.26147 1.43039,-1.0331 0.66295,-0.76685 2.52156,-3.88412 1.65577,-2.79525 3.07107,-3.93531 1.41529,-1.14006 3.35449,-1.5528 1.95391,-0.38848 3.96053,0.10334 2.33781,0.573 3.95021,2.08342 1.60762,1.52989 2.10383,3.63412 0.4962,2.10422 -0.17707,4.85115 -1.0123,4.13013 -3.82093,5.89933 -2.80863,1.76921 -7.01115,0.88373 l 0.90707,-4.79614 q 2.37524,0.25174 3.54396,-0.55637 1.16872,-0.80811 1.63667,-2.71732 0.46795,-1.90921 -0.0777,-3.13752 -0.54567,-1.22831 -1.73406,-1.51958 -1.16891,-0.2865 -2.19686,0.45285 -1.02795,0.73935 -2.80863,3.87571 -1.90636,3.31209 -3.44256,4.60839 -1.52149,1.32055 -3.53862,1.71419 -1.99765,0.39841 -4.56924,-0.23189 -3.72101,-0.91202 -5.69019,-3.83162 -1.97395,-2.90012 -0.7802,-7.77055 2.11055,-8.61094 12.14862,-7.1832 z"
           style="font-weight:bold;font-stretch:condensed;font-family:Arial;-inkscape-font-specification:'Arial Bold Condensed'"
           id="path724" />
        <path
           d="m 438.25948,430.59831 23.07682,8.02127 2.35106,-6.7639 4.69873,1.63323 -6.28925,18.09389 -4.69873,-1.63323 2.34447,-6.74495 -23.07681,-8.02126 z"
           style="font-weight:bold;font-stretch:condensed;font-family:Arial;-inkscape-font-specification:'Arial Bold Condensed'"
           id="path726" />
        <path
           d="m 442.77604,459.2984 q 4.66722,2.41562 6.96782,5.34545 2.3092,2.95687 2.63526,5.94885 0.32606,2.99198 -1.31509,6.16284 -2.37873,4.59597 -7.38168,5.66549 -5.01217,1.08733 -11.49641,-2.26872 -6.55549,-3.39293 -8.65713,-8.36543 -1.86772,-4.37713 0.52024,-8.99092 2.40639,-4.6494 7.0229,-5.67049 5.27329,-1.15546 11.70409,2.17293 z m -2.12684,4.54566 q -4.5069,-2.33264 -7.65437,-1.79344 -3.12966,0.54842 -4.43888,3.07798 -1.31845,2.54738 0.0416,5.37437 1.37787,2.83621 6.00946,5.23339 4.54253,2.35108 7.56405,1.83703 3.0123,-0.49623 4.37685,-3.13267 1.36454,-2.63645 0.0309,-5.42719 -1.33365,-2.79073 -5.92961,-5.16947 z"
           style="font-weight:bold;font-stretch:condensed;font-family:Arial;-inkscape-font-specification:'Arial Bold Condensed'"
           id="path728" />
        <path
           d="m 417.01403,476.6136 24.60799,16.09774 -9.04812,13.8315 -4.16288,-2.72322 6.39078,-9.76933 -5.82467,-3.81031 -5.5233,8.44326 -4.16288,-2.72322 5.5233,-8.44326 -10.45755,-6.84099 z"
           style="font-weight:bold;font-stretch:condensed;font-family:Arial;-inkscape-font-specification:'Arial Bold Condensed'"
           id="path730" />
        <path
           d="m 405.55946,493.71705 23.07815,18.22332 -10.24285,12.97162 -3.90408,-3.0828 7.23463,-9.16199 -5.46256,-4.31343 -6.25261,7.91835 -3.90408,-3.0828 6.25261,-7.91835 -9.80742,-7.74429 z"
           style="font-weight:bold;font-stretch:condensed;font-family:Arial;-inkscape-font-specification:'Arial Bold Condensed'"
           id="path732" />
        <path
           d="m 392.66141,509.51774 21.85203,19.67685 -3.24816,3.60723 -21.85203,-19.67686 z"
           style="font-weight:bold;font-stretch:condensed;font-family:Arial;-inkscape-font-specification:'Arial Bold Condensed'"
           id="path734" />
        <path
           d="m 382.70808,535.14926 -4.66439,1.94795 q -2.62164,-4.32342 -2.35331,-7.75106 0.28223,-3.41318 2.98793,-6.01099 3.4002,-3.26462 8.02713,-2.67398 5.33422,0.69016 10.26589,5.82664 5.20951,5.42586 5.70937,10.84103 0.42919,4.70442 -3.15911,8.14964 -2.92273,2.80619 -6.80761,2.69879 -2.76491,-0.0704 -6.09717,-2.2378 l 2.50011,-4.34691 q 1.98593,1.40229 3.85949,1.35528 1.87298,-0.0186 3.21859,-1.3106 1.92437,-1.84764 1.52829,-4.69297 -0.39608,-2.84533 -4.10525,-6.70855 -3.84809,-4.0079 -6.65992,-4.56162 -2.81182,-0.55372 -4.70725,1.26613 -1.38902,1.33364 -1.37384,3.37678 0.0291,2.05762 1.83105,4.83224 z"
           style="font-weight:bold;font-stretch:condensed;font-family:Arial;-inkscape-font-specification:'Arial Bold Condensed'"
           id="path736" />
        <path
           d="m 368.60211,533.29474 18.12317,23.15687 -14.08999,11.02719 -3.06586,-3.91739 10.26737,-8.03552 -4.01775,-5.13368 -9.54076,7.46684 -3.0535,-3.9016 9.54076,-7.46684 -4.93257,-6.30259 -10.61488,8.30748 -3.05349,-3.9016 z"
           style="font-weight:bold;font-stretch:condensed;font-family:Arial;-inkscape-font-specification:'Arial Bold Condensed'"
           id="path738" />
        <path
           d="m 350.77799,546.98691 15.68873,24.87074 -8.66914,5.46858 q -3.32514,2.09754 -5.17827,2.31788 -1.84243,0.23731 -3.80732,-0.84737 -1.95418,-1.06771 -3.40961,-3.37496 -1.8407,-2.91799 -1.55628,-5.58756 0.26745,-2.65887 2.55719,-4.74359 -1.92257,-0.1153 -3.5048,-0.70617 -1.57153,-0.57391 -4.90515,-2.55014 l -5.53759,-3.28955 4.90289,-3.0928 6.3997,3.52834 q 3.46308,1.91829 4.50006,2.28393 1.04769,0.3826 1.86359,0.24738 0.8266,-0.11826 2.25166,-1.01721 l 0.84825,-0.53508 -6.54945,-10.38261 z m 4.94812,16.94223 -3.05371,1.92631 q -2.79923,1.76579 -3.41283,2.48488 -0.6029,0.73605 -0.60705,1.78216 -0.004,1.04611 0.77708,2.28456 0.74913,1.18755 1.67362,1.60043 0.93519,0.42985 1.92074,0.18761 0.69453,-0.17724 3.45983,-1.92163 l 3.22336,-2.03332 z"
           style="font-weight:bold;font-stretch:condensed;font-family:Arial;-inkscape-font-specification:'Arial Bold Condensed'"
           id="path740" />
      </g>
    </g>
  </g>
</svg>
