<?xml version="1.0" encoding="UTF-8" standalone="no"?>
<!-- Created with Inkscape (http://www.inkscape.org/) -->

<svg
   width="362.67111mm"
   height="197.29399mm"
   viewBox="0 0 362.67111 197.29399"
   version="1.1"
   id="svg1318"
   xmlns="http://www.w3.org/2000/svg"
   xmlns:svg="http://www.w3.org/2000/svg">
  <defs
     id="defs1315" />
  <g
     id="layer1"
     transform="translate(169.79337,-18.463898)">
    <path
       style="fill:#241c17;stroke:none;stroke-width:0.264583"
       d="m 1.5983,18.48381 c -51.5724,0.6866 -99.4286,22.56976 -137.848,56.39197 -7.9002,6.95484 -15.5733,14.02979 -23.0187,21.47226 -3.1946,3.19325 -7.5995,6.30052 -9.4021,10.58333 -1.7715,4.20873 -0.9167,9.07071 -0.9167,13.49375 0,9.36652 0.2646,18.67588 0.2646,28.04583 0,12.82065 0.1949,25.58892 1.0041,38.36459 0.2793,4.4106 -0.1068,8.8265 0.4711,13.22916 0.4345,3.3073 0.3201,6.98236 0.3761,10.31875 0.028,1.68011 0.2948,4.09046 1.8674,5.09059 1.9828,1.26206 4.5168,-2.02671 5.8063,-3.16177 4.9972,-4.40002 9.4755,-10.10444 13.8301,-15.15798 18.1467,-21.05978 41.6554,-38.33125 66.3387,-50.92541 11.5387,-5.88725 24.225,-10.25816 36.7771,-13.39612 4.5238,-1.13083 8.9004,-1.83515 13.7583,-2.52519 13.3605,-1.89781 26.7049,-3.70072 40.2167,-3.30173 37.2588,1.09987 74.9723,10.78971 107.1562,29.98496 19.0976,11.39058 35.1631,25.79899 51.8583,40.27461 4.3604,3.78354 8.5778,7.73377 12.9646,11.48557 1.2409,1.06362 3.6354,3.66712 5.2943,3.57981 3.4079,-0.17727 3.7201,-3.14061 4.1169,-5.91609 0.8996,-6.27856 -0.1508,-12.99633 -0.1508,-19.31458 0,-8.36956 -0.7725,-16.77485 -0.7725,-25.13542 0,-11.42603 -0.2091,-22.73008 -1.2992,-34.13125 -0.4841,-5.05645 -0.9366,-10.03935 -1.5557,-15.08125 -0.3572,-2.89401 -0.8043,-6.21268 -2.4527,-8.73125 C 174.6516,86.24069 157.3347,73.74045 139.9753,62.03952 133.6147,57.75168 127.3679,53.22255 120.6607,49.48028 84.1191,29.0944 43.4688,17.92634 1.5983,18.48381"
       id="path365-3-8-9" />
    <path
       id="path436-1-8-1"
       style="fill:#f0d3b6;fill-opacity:1;stroke:none;stroke-width:0.264583px;stroke-linecap:butt;stroke-linejoin:miter;stroke-opacity:1"
       d="m 7.6192,28.18863 c -61.0749,0.6842 -119.1837,29.46817 -160.4584,76.41807 -8.0033,9.10369 -6.7322,10.53608 -6.6058,18.26194 0.1264,7.72586 0.3886,70.7161 0.3886,70.7161 79.4977,-89.7656 238.4873,-109.3094 338.4734,1.44022 -0.5524,-0.0335 -0.7863,-49.97673 -0.8046,-73.62032 -0.01,-10.39761 -3.0428,-15.60265 -8.1597,-20.98166 C 124.2884,51.89393 64.9926,27.5459 7.6192,28.18863 Z m 4.6711,11.10888 c 59.835,-0.15639 117.5209,27.04455 157.7547,76.18863 l -1.1659,55.5625 C 83.3743,92.26915 -38.9223,80.67942 -149.3423,167.5517 V 116.65196 C -102.024,63.73329 -43.9184,39.44442 12.2903,39.29751 Z" />
    <g
       aria-label="PHOTOGRAPHER"
       transform="matrix(-0.51601725,-0.77848616,0.77848616,-0.51601725,-21.1389,709.44242)"
       id="text8150-6-97-6"
       style="font-size:41.0796px;font-family:Argentum;-inkscape-font-specification:Argentum;letter-spacing:0px;word-spacing:0px;fill:#f0d3b6;stroke-width:1.02699">
      <path
         d="m 570.83358,256.67674 29.37634,1.31184 -0.34899,7.81499 q -0.19508,4.36838 -0.67584,5.69216 -0.77705,2.11369 -3.06306,3.39701 -2.28691,1.30336 -5.79363,1.14677 -3.18611,-0.14228 -5.29657,-1.44123 -2.09043,-1.29806 -2.89158,-3.14089 -0.78112,-1.84193 -0.58425,-6.25039 l 0.14228,-3.18611 -11.08125,-0.49485 z m 24.19025,5.93922 -8.33598,-0.37225 -0.11991,2.68515 q -0.12081,2.70518 0.21697,3.68403 0.33688,0.99889 1.29103,1.66392 0.97418,0.66594 2.41695,0.73037 1.4628,0.0653 2.49336,-0.53117 1.03055,-0.59649 1.41326,-1.52308 0.38272,-0.92659 0.51873,-3.97243 z"
         style="-inkscape-font-specification:'Arial Bold Condensed'"
         id="path1243" />
      <path
         d="m 569.64509,279.1401 29.12411,4.05912 -0.67006,4.80767 -11.4629,-1.59763 -1.31797,9.4564 11.4629,1.59762 -0.67283,4.82753 -29.12411,-4.05913 0.67283,-4.82752 12.73435,1.77482 1.31797,-9.45639 -12.73435,-1.77483 z"
         style="-inkscape-font-specification:'Arial Bold Condensed'"
         id="path1245" />
      <path
         d="m 580.42457,305.71141 q 5.10361,1.25355 8.02721,3.56206 2.93831,2.33277 3.95703,5.16481 1.01872,2.83205 0.16707,6.29938 -1.23442,5.02569 -5.84696,7.2388 -4.61733,2.23258 -11.70784,0.491 -7.16842,-1.76072 -10.37771,-6.10158 -2.84226,-3.81697 -1.60306,-8.86214 1.24877,-5.08412 5.49701,-7.15951 4.85518,-2.36005 11.88725,-0.63282 z m -1.00135,4.9177 q -4.92829,-1.2105 -7.86149,0.0519 -2.91372,1.26717 -3.59313,4.03325 -0.68419,2.78555 1.30098,5.21469 2.00466,2.43392 7.06931,3.6779 4.96725,1.22007 7.78391,0.0117 2.81189,-1.18891 3.52,-4.07186 0.70812,-2.88295 -1.24289,-5.28304 -1.951,-2.40009 -6.97669,-3.6345 z"
         style="-inkscape-font-specification:'Arial Bold Condensed'"
         id="path1247" />
      <path
         d="m 557.68852,333.68611 23.06982,8.04136 2.35695,-6.76184 4.6973,1.63732 -6.30501,18.08841 -4.6973,-1.63732 2.35035,-6.74291 -23.06982,-8.04136 z"
         style="-inkscape-font-specification:'Arial Bold Condensed'"
         id="path1249" />
      <path
         d="m 566.4289,352.59492 q 4.77853,2.18719 7.21807,5.00239 2.44943,2.84179 2.91973,5.81451 0.4703,2.97273 -1.01565,6.21921 -2.1538,4.70558 -7.09921,6.01568 -4.95375,1.32833 -11.59263,-1.71036 -6.71183,-3.07209 -9.05137,-7.93719 -2.07712,-4.28173 0.085,-9.00555 2.17884,-4.76029 6.7406,-6.00334 5.21127,-1.409 11.79543,1.60465 z m -1.90463,4.64315 q -4.61438,-2.11206 -7.73211,-1.42135 -3.09948,0.69906 -4.28491,3.28895 -1.19377,2.60813 0.30135,5.36607 1.51335,2.76629 6.25541,4.93679 4.65086,2.12876 7.644,1.46926 2.98479,-0.64126 4.2203,-3.34058 1.23552,-2.69932 -0.23147,-5.42233 -1.46699,-2.72301 -6.17257,-4.87681 z"
         style="-inkscape-font-specification:'Arial Bold Condensed'"
         id="path1251" />
      <path
         d="m 545.25555,386.34337 4.26275,2.52493 -5.34632,9.02599 -10.07872,-5.96988 q -0.79744,-2.31407 -0.47148,-5.5014 0.32595,-3.18732 1.81842,-5.70701 1.81959,-3.07194 4.71129,-4.52969 2.90896,-1.44753 6.72966,-1.04948 3.82774,0.42553 7.90065,2.83802 4.17646,2.47382 6.32706,5.61272 2.14038,3.15615 2.29885,6.2341 0.14825,3.09519 -1.68156,6.18439 -2.19782,3.71049 -5.4149,4.81232 -3.21004,1.12932 -7.24699,-0.39928 l 1.50418,-4.70418 q 2.22617,0.68916 3.99767,0.0599 1.7715,-0.62924 2.79374,-2.35505 1.58447,-2.67501 0.47759,-5.5687 -1.08962,-2.88346 -5.35237,-5.40839 -4.5734,-2.70894 -8.01814,-2.32479 -2.96351,0.31951 -4.51732,2.94274 -0.72579,1.22532 -0.93317,2.87428 -0.20035,1.67643 0.18728,3.30482 l 3.21,1.90136 z"
         style="-inkscape-font-specification:'Arial Bold Condensed'"
         id="path1253" />
      <path
         d="m 528.04431,393.59443 23.64661,17.47937 -6.09274,8.24244 q -2.33695,3.16148 -3.98369,4.03948 -1.63062,0.88992 -3.85521,0.59247 -2.20846,-0.28553 -4.40215,-1.90708 -2.77436,-2.05079 -3.47839,-4.64151 -0.71595,-2.5746 0.66086,-5.34828 -1.83329,0.59044 -3.52208,0.61422 -1.67266,0.0357 -5.49626,-0.59564 l -6.35397,-1.05505 3.4458,-4.66157 7.24395,0.96461 q 3.92319,0.53035 5.02217,0.49463 1.11511,-0.0238 1.82627,-0.44597 0.72729,-0.41025 1.72884,-1.76517 l 0.59616,-0.8065 -9.87157,-7.29698 z m 10.76059,13.99047 -2.14617,2.9034 q -1.96732,2.66146 -2.27805,3.55423 -0.29459,0.9047 0.0813,1.88096 0.37587,0.97626 1.55337,1.84665 1.1291,0.83462 2.14041,0.88376 1.02744,0.061 1.85783,-0.52242 0.58282,-0.41726 2.52629,-3.04646 l 2.26541,-3.0647 z"
         style="-inkscape-font-specification:'Arial Bold Condensed'"
         id="path1255" />
      <path
         d="m 498.84025,429.13317 3.5478,-3.93123 6.36977,2.9115 6.45054,-7.14769 -3.62829,-5.94927 3.46717,-3.84189 15.54096,26.67003 -3.45372,3.82699 z m 14.64387,1.13811 10.31809,4.8536 -5.91022,-9.73785 z"
         style="-inkscape-font-specification:'Arial Bold Condensed'"
         id="path1257" />
      <path
         d="m 496.91429,430.85937 19.8889,21.65922 -5.762,5.29104 q -3.22081,2.95756 -4.4956,3.55628 -2.04213,0.94931 -4.56747,0.24547 -2.54012,-0.69029 -4.9143,-3.2758 -2.15712,-2.34912 -2.73587,-4.75876 -0.56519,-2.39487 0.16757,-4.26595 0.74632,-1.85631 3.99668,-4.841 l 2.34913,-2.15711 -7.50243,-8.17023 z m 12.94894,21.27834 -5.64378,-6.14614 -1.97976,1.81795 q -1.99454,1.83152 -2.44594,2.76343 -0.46618,0.94549 -0.25941,2.09 0.22033,1.15929 1.19714,2.22305 0.99038,1.07853 2.14149,1.38311 1.15112,0.30458 2.07615,-0.0819 0.92503,-0.38647 3.17074,-2.44862 z"
         style="-inkscape-font-specification:'Arial Bold Condensed'"
         id="path1259" />
      <path
         d="m 480.21868,445.93467 17.77048,23.42862 -3.86748,2.93346 -6.99425,-9.22122 -7.60711,5.76995 6.99424,9.22122 -3.88346,2.94559 -17.77047,-23.42863 3.88346,-2.94558 7.77004,10.24403 7.60711,-5.76995 -7.77004,-10.24403 z"
         style="-inkscape-font-specification:'Arial Bold Condensed'"
         id="path1261" />
      <path
         d="m 460.67957,460.40961 15.48877,24.99577 -15.20889,9.42426 -2.6202,-4.22847 11.08271,-6.86746 -3.43373,-5.54136 -10.29839,6.38146 -2.60964,-4.21143 10.2984,-6.38146 -4.21557,-6.80307 -11.45781,7.09989 -2.60964,-4.21142 z"
         style="-inkscape-font-specification:'Arial Bold Condensed'"
         id="path1263" />
      <path
         d="m 441.47641,472.08655 13.05975,26.34641 -9.1835,4.5522 q -3.52244,1.74605 -5.3884,1.77549 -1.85704,0.0474 -3.70053,-1.23275 -1.83459,-1.26219 -3.04614,-3.70633 -1.53224,-3.09112 -0.97598,-5.71754 0.53829,-2.61751 3.02945,-4.45683 -1.90066,-0.31155 -3.41408,-1.06132 -1.50451,-0.7318 -4.61826,-3.03898 l -5.17167,-3.83925 5.1938,-2.57454 6.0048,4.16507 q 3.24846,2.26279 4.24256,2.73268 1.003,0.48787 1.82846,0.4369 0.83436,-0.033 2.34398,-0.78131 l 0.89858,-0.44543 -5.45195,-10.99863 z m 3.18739,17.35983 -3.23489,1.60352 q -2.96532,1.46989 -3.64932,2.12237 -0.6751,0.67046 -0.78634,1.71064 -0.11123,1.04019 0.53908,2.35212 0.62359,1.25801 1.50095,1.76339 0.88627,0.52334 1.89144,0.38328 0.70903,-0.1052 3.63841,-1.55727 l 3.4146,-1.6926 z"
         style="-inkscape-font-specification:'Arial Bold Condensed'"
         id="path1265" />
    </g>
  </g>
</svg>
