<?xml version="1.0" encoding="UTF-8" standalone="no"?>
<!-- Created with Inkscape (http://www.inkscape.org/) -->

<svg
   width="362.67117mm"
   height="197.29395mm"
   viewBox="0 0 362.67117 197.29395"
   version="1.1"
   id="svg378"
   sodipodi:docname="roadcaptain.svg"
   inkscape:version="1.2.1 (9c6d41e410, 2022-07-14)"
   xmlns:inkscape="http://www.inkscape.org/namespaces/inkscape"
   xmlns:sodipodi="http://sodipodi.sourceforge.net/DTD/sodipodi-0.dtd"
   xmlns="http://www.w3.org/2000/svg"
   xmlns:svg="http://www.w3.org/2000/svg">
  <sodipodi:namedview
     id="namedview380"
     pagecolor="#505050"
     bordercolor="#eeeeee"
     borderopacity="1"
     inkscape:showpageshadow="0"
     inkscape:pageopacity="0"
     inkscape:pagecheckerboard="0"
     inkscape:deskcolor="#505050"
     inkscape:document-units="mm"
     showgrid="false"
     inkscape:zoom="0.085119045"
     inkscape:cx="587.4126"
     inkscape:cy="-569.79022"
     inkscape:window-width="1377"
     inkscape:window-height="1259"
     inkscape:window-x="1824"
     inkscape:window-y="606"
     inkscape:window-maximized="0"
     inkscape:current-layer="layer1" />
  <defs
     id="defs375" />
  <g
     inkscape:label="Layer 1"
     inkscape:groupmode="layer"
     id="layer1"
     transform="translate(349.18874,-706.42648)">
    <g
       id="g11008"
       transform="translate(-90.143364,-81.314046)">
      <path
         style="fill:#241c17;stroke:none;stroke-width:0.264583"
         d="m -87.653764,787.76044 c -51.572296,0.6866 -99.428596,22.5697 -137.847896,56.3919 -7.9002,6.9549 -15.5734,14.0298 -23.0188,21.4723 -3.1945,3.1932 -7.5994,6.3005 -9.4021,10.5833 -1.7715,4.2088 -0.9166,9.0707 -0.9166,13.4938 0,9.3665 0.2646,18.6759 0.2646,28.0458 0,12.8207 0.1949,25.5889 1.004,38.3646 0.2793,4.4106 -0.1067,8.8265 0.4712,13.2292 0.4344,3.3073 0.32,6.9823 0.376,10.3187 0.028,1.6801 0.2948,4.0905 1.8674,5.0906 1.9828,1.2621 4.5168,-2.0267 5.8064,-3.1618 4.9972,-4.4 9.4755,-10.1044 13.83,-15.158 18.1467,-21.0597 41.6555,-38.3312 66.3387,-50.9254 11.5388,-5.8872 24.225,-10.2581 36.7771,-13.3961 4.5238,-1.1308 8.9005,-1.8351 13.7583,-2.5252 13.3606,-1.8978 26.704996,-3.7007 40.216696,-3.3017 37.2589,1.0999 74.9722999,10.7897 107.1562,29.985 19.0977,11.3905 35.1632,25.7989 51.8584,40.2746 4.3603,3.7835 8.5778,7.7337 12.9646,11.4855 1.2409,1.0637 3.6353,3.6672 5.2943,3.5798 3.407804,-0.1772 3.720004,-3.1406 4.116904,-5.916 0.8996,-6.2786 -0.1508,-12.9964 -0.1508,-19.3146 0,-8.3696 -0.7726,-16.7749 -0.7726,-25.1354 0,-11.4261 -0.209,-22.7301 -1.2991,-34.1313 -0.4842,-5.0564 -0.9366,-10.0393 -1.555804,-15.0812 -0.3571,-2.8941 -0.8043,-6.2127 -2.4526,-8.7313 -11.6311,-17.7803 -28.9481,-30.2805 -46.3074,-41.9814 -6.3606,-4.2879 -12.6074,-8.817 -19.3146,-12.5593 -36.5416001,-20.3858 -77.1919,-31.5539 -119.0625,-30.9964"
         id="path365-4-2-0-9"
         sodipodi:nodetypes="csssssscsccsccsccccccsscccccc" />
      <g
         aria-label="ROAD CAPTAIN"
         transform="rotate(-121.99267,275.92899,808.23217)"
         id="text8150-4-0-6-7-9-5-6-9"
         style="font-size:41.0796px;line-height:1.25;font-family:Argentum;-inkscape-font-specification:Argentum;letter-spacing:0px;word-spacing:0px;fill:#f0d3b6;stroke-width:1.02699">
        <path
           d="m 450.3686,359.70259 29.36585,1.52869 -0.53286,10.23598 q -0.20438,3.92613 -1.09322,5.56705 -0.86881,1.64196 -2.88819,2.62145 -1.99934,0.98055 -4.72359,0.83873 -3.44538,-0.17936 -5.46212,-1.95144 -2.01777,-1.75206 -2.40012,-4.82497 -1.20309,1.50405 -2.59836,2.45578 -1.37525,0.95277 -4.91239,2.53617 l -5.88119,2.62633 0.30136,-5.78903 6.5735,-3.19287 q 3.56448,-1.72257 4.46128,-2.3588 0.91683,-0.63518 1.27695,-1.37968 0.38016,-0.74346 0.46775,-2.42609 l 0.0521,-1.00156 -12.25914,-0.63818 z m 16.69411,5.72974 -0.1877,3.60563 q -0.17206,3.30516 0.0615,4.22117 0.25354,0.91705 1.10572,1.52381 0.85218,0.60675 2.31446,0.68288 1.40219,0.073 2.2727,-0.44409 0.89054,-0.51604 1.2611,-1.46085 0.2558,-0.6696 0.42577,-3.9347 l 0.19812,-3.80594 z"
           style="font-weight:bold;font-stretch:condensed;font-family:Arial;-inkscape-font-specification:'Arial Bold Condensed'"
           id="path743" />
        <path
           d="m 463.38221,385.34501 q 5.18709,0.84398 8.28492,2.91283 3.11441,2.09187 4.35498,4.83399 1.24058,2.74212 0.66718,6.26618 -0.83109,5.10789 -5.25316,7.68058 -4.42528,2.59248 -11.63177,1.41993 -7.28568,-1.18544 -10.82982,-5.25751 -3.13662,-3.57901 -2.3023,-8.7067 0.84076,-5.16729 4.91062,-7.57374 4.65226,-2.73845 11.79935,-1.57556 z m -0.60734,4.98172 q -5.00891,-0.81499 -7.8325,0.67652 -2.8038,1.49473 -3.26123,4.30605 -0.46064,2.83112 1.71131,5.0948 2.19175,2.2669 7.33924,3.10444 5.0485,0.82143 7.76022,-0.60699 2.7085,-1.40862 3.18526,-4.33874 0.47675,-2.93011 -1.65883,-5.16754 -2.13558,-2.23744 -7.24347,-3.06854 z"
           style="font-weight:bold;font-stretch:condensed;font-family:Arial;-inkscape-font-specification:'Arial Bold Condensed'"
           id="path745" />
        <path
           d="m 438.53204,430.74154 1.4206,-5.1013 6.99961,-0.23705 2.5829,-9.27511 -5.90188,-3.70487 1.38831,-4.98537 25.8094,16.93183 -1.38293,4.96605 z m 13.61275,-5.51644 11.39966,-0.26103 -9.63468,-6.07696 z"
           style="font-weight:bold;font-stretch:condensed;font-family:Arial;-inkscape-font-specification:'Arial Bold Condensed'"
           id="path747" />
        <path
           d="m 464.92682,443.986 -3.27901,8.25874 q -1.24351,3.13199 -2.58109,4.43535 -1.32634,1.32941 -3.51848,2.01293 -2.19213,0.68351 -5.14288,0.3968 -2.95075,-0.2867 -6.88437,-1.84849 -3.54212,-1.40634 -5.85247,-3.25164 -2.29171,-1.83789 -3.33189,-3.67527 -1.04019,-1.83737 -1.12741,-3.90066 -0.076,-2.03725 1.01208,-4.77774 l 3.37524,-8.5011 z m -6.41465,2.6759 -18.10212,-7.18718 -1.34713,3.39298 q -0.86601,2.18121 -0.84077,3.31347 0.0179,1.15091 0.59387,2.0918 0.58726,0.96693 2.21413,2.08765 1.62686,1.12071 4.55377,2.2828 3.03877,1.2065 4.96143,1.47349 1.91526,0.28563 3.27726,-0.20953 1.35459,-0.47651 2.17484,-1.61838 0.61985,-0.85456 1.70052,-3.5764 z"
           style="font-weight:bold;font-stretch:condensed;font-family:Arial;-inkscape-font-specification:'Arial Bold Condensed'"
           id="path749" />
        <path
           d="m 425.80937,482.83497 -3.94138,3.16489 q -3.71763,-3.42699 -4.41021,-6.79464 -0.67523,-3.3576 1.20407,-6.60377 2.36169,-4.07942 6.97097,-4.79486 5.31643,-0.81595 11.47895,2.7517 6.5097,3.76865 8.49145,8.8329 1.71679,4.40095 -0.77555,8.70604 -2.03004,3.50656 -5.79238,4.48055 -2.67602,0.69897 -6.47859,-0.45946 l 1.19679,-4.8697 q 2.29689,0.79666 4.08395,0.23201 1.79437,-0.53725 2.729,-2.15165 1.33661,-2.30878 0.16712,-4.93272 -1.16949,-2.62394 -5.8044,-5.30722 -4.8085,-2.78378 -7.66361,-2.53614 -2.8551,0.24764 -4.17162,2.52169 -0.96477,1.66649 -0.38367,3.62531 0.59846,1.96888 3.09911,4.13507 z"
           style="font-weight:bold;font-stretch:condensed;font-family:Arial;-inkscape-font-specification:'Arial Bold Condensed'"
           id="path751" />
        <path
           d="m 398.96757,502.53468 3.12067,-4.27818 6.63752,2.23476 5.67396,-7.77851 -4.22608,-5.54062 3.04975,-4.18095 18.22475,24.91326 -3.03793,4.16474 z m 14.6829,-0.3877 10.76607,3.75662 -6.88886,-9.07193 z"
           style="font-weight:bold;font-stretch:condensed;font-family:Arial;-inkscape-font-specification:'Arial Bold Condensed'"
           id="path753" />
        <path
           d="m 397.21303,504.43904 21.88701,19.63795 -5.22429,5.8226 q -2.92024,3.25469 -4.13127,3.97367 -1.94094,1.14203 -4.52244,0.68528 -2.59489,-0.44183 -5.20759,-2.78606 -2.37383,-2.1299 -3.18251,-4.47241 -0.79375,-2.32912 -0.24505,-4.2622 0.56362,-1.91969 3.51065,-5.20423 l 2.1299,-2.37383 -8.25615,-7.40777 z m 14.94269,19.92884 -6.21077,-5.57257 -1.79501,2.00059 q -1.80841,2.01551 -2.16773,2.98666 -0.37272,0.98607 -0.0564,2.10528 0.33122,1.1326 1.40616,2.09708 1.08987,0.97788 2.26502,1.16991 1.17515,0.19203 2.05854,-0.28195 0.8834,-0.47397 2.91953,-2.74329 z"
           style="font-weight:bold;font-stretch:condensed;font-family:Arial;-inkscape-font-specification:'Arial Bold Condensed'"
           id="path755" />
        <path
           d="m 378.01234,524.66893 16.64038,17.88793 5.24301,-4.87736 3.38819,3.64221 -14.02543,13.04726 -3.38819,-3.64221 5.22833,-4.86369 -16.64038,-17.88792 z"
           style="font-weight:bold;font-stretch:condensed;font-family:Arial;-inkscape-font-specification:'Arial Bold Condensed'"
           id="path757" />
        <path
           d="m 351.49475,546.58466 4.19092,-3.23692 5.74977,3.99887 7.61986,-5.88529 -2.51133,-6.50012 4.09568,-3.16335 10.54531,29.01049 -4.0798,3.15109 z m 14.20739,3.72665 9.28933,6.61277 -4.08242,-10.63439 z"
           style="font-weight:bold;font-stretch:condensed;font-family:Arial;-inkscape-font-specification:'Arial Bold Condensed'"
           id="path759" />
        <path
           d="m 349.33395,547.74539 16.29769,24.47602 -4.04038,2.69034 -16.29769,-24.47602 z"
           style="font-weight:bold;font-stretch:condensed;font-family:Arial;-inkscape-font-specification:'Arial Bold Condensed'"
           id="path761" />
        <path
           d="m 341.41095,553.1292 14.46592,25.60132 -4.12136,2.32875 -18.25237,-12.24178 9.66039,17.09665 -3.94672,2.23008 -14.46592,-25.60131 4.26106,-2.4077 17.88571,11.91906 -9.43343,-16.69499 z"
           style="font-weight:bold;font-stretch:condensed;font-family:Arial;-inkscape-font-specification:'Arial Bold Condensed'"
           id="path763" />
      </g>
      <path
         id="path436-8-8-6-4"
         style="fill:#f0d3b6;fill-opacity:1;stroke:none;stroke-width:0.264583px;stroke-linecap:butt;stroke-linejoin:miter;stroke-opacity:1"
         d="m -81.632764,798.52358 c -61.074896,0.6842 -119.183796,29.4682 -160.458496,76.4181 -8.0032,9.1036 -6.7322,10.536 -6.6058,18.2619 0.1265,7.7259 0.3887,70.7161 0.3887,70.7161 79.4977,-89.7656 238.4871959,-109.3094 338.473396,1.4402 -0.5525,-0.034 -0.7864,-49.9767 -0.8046,-73.6203 -0.01,-10.3976 -3.0429,-15.6027 -8.1598,-20.9817 -46.1642,-48.529 -105.46,-72.877 -162.8334,-72.2343 z m 4.671,11.1089 c 59.8351,-0.1564 117.5209,27.0445 157.7547,76.1886 l -1.1658,55.5625 c -85.5049001,-78.7795 -207.801396,-90.3692 -318.221396,-3.4969 v -50.8998 c 47.3183,-52.9187 105.4238,-77.2075 161.632496,-77.3544 z"
         sodipodi:nodetypes="sssccssssccccs" />
    </g>
  </g>
</svg>
