<?xml version="1.0" encoding="UTF-8" standalone="no"?>
<!-- Created with Inkscape (http://www.inkscape.org/) -->

<svg
   width="362.67117mm"
   height="197.29395mm"
   viewBox="0 0 362.67117 197.29395"
   version="1.1"
   id="svg378"
   sodipodi:docname="safetyofficer.svg"
   inkscape:version="1.2.1 (9c6d41e410, 2022-07-14)"
   xmlns:inkscape="http://www.inkscape.org/namespaces/inkscape"
   xmlns:sodipodi="http://sodipodi.sourceforge.net/DTD/sodipodi-0.dtd"
   xmlns="http://www.w3.org/2000/svg"
   xmlns:svg="http://www.w3.org/2000/svg">
  <sodipodi:namedview
     id="namedview380"
     pagecolor="#505050"
     bordercolor="#eeeeee"
     borderopacity="1"
     inkscape:showpageshadow="0"
     inkscape:pageopacity="0"
     inkscape:pagecheckerboard="0"
     inkscape:deskcolor="#505050"
     inkscape:document-units="mm"
     showgrid="false"
     inkscape:zoom="0.085119045"
     inkscape:cx="587.4126"
     inkscape:cy="-569.79022"
     inkscape:window-width="1377"
     inkscape:window-height="1259"
     inkscape:window-x="1824"
     inkscape:window-y="606"
     inkscape:window-maximized="0"
     inkscape:current-layer="layer1" />
  <defs
     id="defs375" />
  <g
     inkscape:label="Layer 1"
     inkscape:groupmode="layer"
     id="layer1"
     transform="translate(349.18874,-706.42648)">
    <g
       id="g10972"
       transform="translate(-1726.002,110.72472)">
      <path
         style="fill:#241c17;stroke:none;stroke-width:0.264583"
         d="m 1557.2049,604.72167 c -51.5723,0.6866 -99.4286,22.5697 -137.8479,56.3919 -7.9002,6.9549 -15.5734,14.0298 -23.0188,21.4723 -3.1945,3.1932 -7.5994,6.3005 -9.4021,10.5833 -1.7715,4.2088 -0.9166,9.0707 -0.9166,13.4938 0,9.3665 0.2646,18.6759 0.2646,28.0458 0,12.8207 0.1949,25.5889 1.004,38.3646 0.2793,4.4106 -0.1067,8.8265 0.4712,13.2292 0.4344,3.3073 0.32,6.9823 0.376,10.3187 0.028,1.6801 0.2948,4.0905 1.8674,5.0906 1.9828,1.2621 4.5168,-2.0267 5.8064,-3.1618 4.9972,-4.4 9.4755,-10.1044 13.83,-15.158 18.1467,-21.0597 41.6555,-38.3312 66.3387,-50.9254 11.5388,-5.8872 24.225,-10.2581 36.7771,-13.3961 4.5238,-1.1308 8.9005,-1.8351 13.7583,-2.5252 13.3606,-1.8978 26.705,-3.7007 40.2167,-3.3017 37.2589,1.0999 74.9723,10.7897 107.1562,29.985 19.0977,11.3905 35.1632,25.7989 51.8584,40.2746 4.3603,3.7835 8.5778,7.7337 12.9646,11.4855 1.2409,1.0637 3.6353,3.6672 5.2943,3.5798 3.4078,-0.1772 3.72,-3.1406 4.1169,-5.916 0.8996,-6.2786 -0.1508,-12.9964 -0.1508,-19.3146 0,-8.3696 -0.7726,-16.7749 -0.7726,-25.1354 0,-11.4261 -0.209,-22.7301 -1.2991,-34.1313 -0.4842,-5.0564 -0.9366,-10.0393 -1.5558,-15.0812 -0.3571,-2.8941 -0.8043,-6.2127 -2.4526,-8.7313 -11.6311,-17.7803 -28.9481,-30.2805 -46.3074,-41.9814 -6.3606,-4.2879 -12.6074,-8.817 -19.3146,-12.5593 -36.5416,-20.3858 -77.1919,-31.5539 -119.0625,-30.9964"
         id="path365-4-2-0-9-3"
         sodipodi:nodetypes="csssssscsccsccsccccccsscccccc" />
      <path
         id="path436-8-8-6-4-4"
         style="fill:#f0d3b6;fill-opacity:1;stroke:none;stroke-width:0.264583px;stroke-linecap:butt;stroke-linejoin:miter;stroke-opacity:1"
         d="m 1563.2259,615.48481 c -61.0749,0.6842 -119.1838,29.4682 -160.4585,76.4181 -8.0032,9.1036 -6.7322,10.536 -6.6058,18.2619 0.1265,7.7259 0.3887,70.7161 0.3887,70.7161 79.4977,-89.7656 238.4872,-109.3094 338.4734,1.4402 -0.5525,-0.034 -0.7864,-49.9767 -0.8046,-73.6203 -0.01,-10.3976 -3.0429,-15.6027 -8.1598,-20.9817 -46.1642,-48.529 -105.46,-72.877 -162.8334,-72.2343 z m 4.671,11.1089 c 59.8351,-0.1564 117.5209,27.0445 157.7547,76.1886 l -1.1658,55.5625 c -85.5049,-78.7795 -207.8014,-90.3692 -318.2214,-3.4969 v -50.8998 c 47.3183,-52.9187 105.4238,-77.2075 161.6325,-77.3544 z"
         sodipodi:nodetypes="sssccssssccccs" />
      <g
         aria-label="SAFETY OFFICER"
         transform="rotate(-126.59375,1034.2309,295.75133)"
         id="text8150-4-0-6-7-9-5-6"
         style="font-size:41.0796px;line-height:1.25;font-family:Argentum;-inkscape-font-specification:Argentum;letter-spacing:0px;word-spacing:0px;fill:#f0d3b6;stroke-width:1.02699">
        <path
           d="m 459.94847,358.91809 0.33271,4.77532 q -5.66844,0.53075 -5.88227,4.97858 -0.10596,2.20387 0.97537,3.521 1.10136,1.31809 2.80436,1.39996 1.00176,0.0482 1.72419,-0.3589 0.72242,-0.40706 1.20654,-1.28746 0.50416,-0.87943 1.73266,-4.29448 1.09096,-3.0602 2.26225,-4.44976 1.17129,-1.38956 2.99585,-2.16535 1.84362,-0.75479 3.90726,-0.65558 2.40423,0.11559 4.2756,1.28996 1.87041,1.19441 2.75966,3.16499 0.88926,1.97058 0.75345,4.79555 -0.2042,4.24748 -2.62288,6.5209 -2.41868,2.27343 -6.71297,2.20755 l -0.0264,-4.88109 q 2.37957,-0.20691 3.37228,-1.2235 0.99271,-1.0166 1.0871,-2.98006 0.0944,-1.96345 -0.676,-3.06481 -0.77039,-1.10136 -1.99255,-1.16012 -1.20211,-0.0578 -2.06979,0.86441 -0.86768,0.9222 -2.01604,4.3411 -1.23814,3.6154 -2.49824,5.18143 -1.24103,1.58702 -3.14573,2.35896 -1.88466,0.7729 -4.52932,0.64576 -3.82673,-0.18398 -6.31765,-2.67336 -2.49189,-2.46934 -2.25109,-7.47815 0.42575,-8.85559 10.55164,-9.37285 z"
           style="font-weight:bold;font-stretch:condensed;font-family:Arial;-inkscape-font-specification:'Arial Bold Condensed'"
           id="path953" />
        <path
           d="m 445.82612,403.62273 0.78671,-5.23666 6.91822,-1.09043 1.43038,-9.52119 -6.31031,-2.95607 0.76883,-5.11764 27.68467,13.65178 -0.76585,5.09781 z m 12.83681,-7.13823 11.28237,-1.65181 -10.30494,-4.85434 z"
           style="font-weight:bold;font-stretch:condensed;font-family:Arial;-inkscape-font-specification:'Arial Bold Condensed'"
           id="path955" />
        <path
           d="m 445.10861,406.15335 28.51297,7.19031 -4.04148,16.02639 -4.82348,-1.21637 2.85455,-11.31961 -6.74898,-1.70194 -2.46707,9.7831 -4.82348,-1.21637 2.46707,-9.7831 -12.11704,-3.05563 z"
           style="font-weight:bold;font-stretch:condensed;font-family:Arial;-inkscape-font-specification:'Arial Bold Condensed'"
           id="path957" />
        <path
           d="m 439.89695,426.04991 27.71054,9.83951 -5.98693,16.86071 -4.68773,-1.66453 4.36268,-12.28639 -6.1432,-2.18134 -4.05393,11.4169 -4.66883,-1.65782 4.05393,-11.4169 -7.54196,-2.67801 -4.51033,12.70224 -4.66883,-1.65781 z"
           style="font-weight:bold;font-stretch:condensed;font-family:Arial;-inkscape-font-specification:'Arial Bold Condensed'"
           id="path959" />
        <path
           d="m 429.83393,452.04097 22.15332,10.301 3.01926,-6.49322 4.51069,2.09742 -8.07673,17.3698 -4.51069,-2.09741 3.0108,-6.47503 -22.15332,-10.301 z"
           style="font-weight:bold;font-stretch:condensed;font-family:Arial;-inkscape-font-specification:'Arial Bold Condensed'"
           id="path961" />
        <path
           d="m 420.07649,471.17217 10.68851,6.23873 19.15656,0.9623 -2.87164,4.91983 -12.90908,-0.9621 7.23659,10.68051 -2.82108,4.83322 -10.27295,-16.26173 -10.65387,-6.21851 z"
           style="font-weight:bold;font-stretch:condensed;font-family:Arial;-inkscape-font-specification:'Arial Bold Condensed'"
           id="path963" />
        <path
           d="m 418.73324,500.54097 q 4.11104,3.27376 5.80068,6.59367 1.69284,3.34809 1.43328,6.34658 -0.25955,2.99848 -2.48371,5.79148 -3.22379,4.04827 -8.33915,4.12865 -5.12785,0.0961 -10.83938,-4.45222 -5.77428,-4.59826 -6.87313,-9.88364 -0.98467,-4.65598 2.25161,-8.71994 3.26127,-4.09535 7.98812,-4.20305 5.39723,-0.11233 11.06168,4.39847 z m -2.96691,4.0477 q -3.96982,-3.16131 -7.16213,-3.24187 -3.17661,-0.0681 -4.95094,2.16005 -1.78682,2.24381 -1,5.28068 0.8025,3.04936 4.88216,6.29813 4.00121,3.18629 7.06508,3.26715 3.05137,0.0965 4.90067,-2.22573 1.8493,-2.32226 1.08137,-5.31845 -0.76793,-2.99618 -4.81621,-6.21996 z"
           style="font-weight:bold;font-stretch:condensed;font-family:Arial;-inkscape-font-specification:'Arial Bold Condensed'"
           id="path965" />
        <path
           d="m 390.10825,512.54132 21.03806,20.54483 -11.5477,11.82494 -3.55897,-3.47552 8.15627,-8.35209 -4.97968,-4.86292 -7.04914,7.21838 -3.55897,-3.47553 7.04915,-7.21838 -8.94046,-8.73085 z"
           style="font-weight:bold;font-stretch:condensed;font-family:Arial;-inkscape-font-specification:'Arial Bold Condensed'"
           id="path967" />
        <path
           d="m 375.5689,527.1133 19.13257,22.33014 -12.55118,10.75391 -3.23662,-3.77754 8.86504,-7.5956 -4.52865,-5.28551 -7.66171,6.56458 -3.23661,-3.77754 7.6617,-6.56458 -8.13069,-9.48955 z"
           style="font-weight:bold;font-stretch:condensed;font-family:Arial;-inkscape-font-specification:'Arial Bold Condensed'"
           id="path969" />
        <path
           d="m 359.86713,540.13164 17.64866,23.52051 -3.88265,2.91336 -17.64866,-23.52052 z"
           style="font-weight:bold;font-stretch:condensed;font-family:Arial;-inkscape-font-specification:'Arial Bold Condensed'"
           id="path971" />
        <path
           d="m 345.15459,563.36213 -4.9527,1.01077 q -1.73762,-4.74823 -0.81258,-8.05958 0.93588,-3.29447 4.09222,-5.32103 3.96652,-2.54674 8.39236,-1.07391 5.10062,1.70702 8.94783,7.699 4.06396,6.32955 3.50893,11.73934 -0.48714,4.69878 -4.67308,7.38641 -3.40952,2.18911 -7.20058,1.3337 -2.69929,-0.60292 -5.55042,-3.37285 l 3.29231,-3.78245 q 1.67784,1.75932 3.52523,2.07492 1.84134,0.34331 3.41107,-0.66455 2.24488,-1.44135 2.40558,-4.30961 0.1607,-2.86827 -2.73283,-7.37491 -3.00191,-4.67543 -5.65393,-5.7616 -2.65201,-1.08617 -4.86314,0.3335 -1.62036,1.04038 -1.99993,3.04801 -0.36872,2.02452 0.86366,5.09484 z"
           style="font-weight:bold;font-stretch:condensed;font-family:Arial;-inkscape-font-specification:'Arial Bold Condensed'"
           id="path973" />
        <path
           d="m 331.67134,558.81819 13.29371,26.22913 -15.95934,8.08867 -2.24887,-4.43713 11.62956,-5.89421 -2.9471,-5.81478 -10.80655,5.47708 -2.2398,-4.41923 10.80655,-5.47708 -3.61814,-7.13876 -12.02317,6.0937 -2.2398,-4.41923 z"
           style="font-weight:bold;font-stretch:condensed;font-family:Arial;-inkscape-font-specification:'Arial Bold Condensed'"
           id="path975" />
        <path
           d="m 311.53148,568.7965 10.55099,27.44753 -9.56732,3.67773 q -3.66966,1.41064 -5.53025,1.26628 -1.8534,-0.12562 -3.56975,-1.57181 -1.70914,-1.42746 -2.68795,-3.97375 -1.23791,-3.22031 -0.43962,-5.78356 0.77957,-2.55605 3.4311,-4.15553 -1.86341,-0.48709 -3.30048,-1.37446 -1.42987,-0.86865 -4.31537,-3.45562 l -4.7919,-4.30392 5.41087,-2.07997 5.59108,4.70586 q 3.02377,2.55531 3.96982,3.11569 0.95324,0.57909 1.77986,0.60517 0.83381,0.0448 2.40652,-0.55977 l 0.93614,-0.35985 -4.40464,-11.45832 z m 1.55787,17.58114 -3.37009,1.29548 q -3.08926,1.18753 -3.83102,1.77351 -0.73457,0.60472 -0.94213,1.63004 -0.20756,1.02532 0.31783,2.39207 0.5038,1.3106 1.33031,1.89543 0.83372,0.60356 1.84756,0.55766 0.71574,-0.0388 3.76755,-1.21188 l 3.55732,-1.36745 z"
           style="font-weight:bold;font-stretch:condensed;font-family:Arial;-inkscape-font-specification:'Arial Bold Condensed'"
           id="path977" />
      </g>
    </g>
  </g>
</svg>
