<?xml version="1.0" encoding="UTF-8" standalone="no"?>
<!-- Created with Inkscape (http://www.inkscape.org/) -->

<svg
   width="362.67117mm"
   height="197.29395mm"
   viewBox="0 0 362.67117 197.29395"
   version="1.1"
   id="svg378"
   sodipodi:docname="secretary.svg"
   inkscape:version="1.2.1 (9c6d41e410, 2022-07-14)"
   xmlns:inkscape="http://www.inkscape.org/namespaces/inkscape"
   xmlns:sodipodi="http://sodipodi.sourceforge.net/DTD/sodipodi-0.dtd"
   xmlns="http://www.w3.org/2000/svg"
   xmlns:svg="http://www.w3.org/2000/svg">
  <sodipodi:namedview
     id="namedview380"
     pagecolor="#505050"
     bordercolor="#eeeeee"
     borderopacity="1"
     inkscape:showpageshadow="0"
     inkscape:pageopacity="0"
     inkscape:pagecheckerboard="0"
     inkscape:deskcolor="#505050"
     inkscape:document-units="mm"
     showgrid="false"
     inkscape:zoom="0.085119045"
     inkscape:cx="587.4126"
     inkscape:cy="-569.79022"
     inkscape:window-width="1377"
     inkscape:window-height="1259"
     inkscape:window-x="1824"
     inkscape:window-y="606"
     inkscape:window-maximized="0"
     inkscape:current-layer="layer1" />
  <defs
     id="defs375" />
  <g
     inkscape:label="Layer 1"
     inkscape:groupmode="layer"
     id="layer1"
     transform="translate(349.18874,-706.42648)">
    <g
       id="g10994"
       transform="translate(149.04889,713.45783)">
      <g
         id="g10403"
         transform="translate(-174.73821,-38.464385)">
        <path
           style="fill:#241c17;stroke:none;stroke-width:0.264583"
           d="m -152.1078,31.452943 c -51.57232,0.686594 -99.42856,22.569752 -137.84792,56.391965 -7.90019,6.95484 -15.57337,14.029792 -23.01875,21.472262 -3.19457,3.19325 -7.59944,6.30052 -9.4021,10.58333 -1.77151,4.20873 -0.91665,9.07071 -0.91665,13.49375 0,9.36652 0.26459,18.67588 0.26459,28.04583 0,12.82065 0.19489,25.58892 1.00404,38.36459 0.27932,4.4106 -0.10676,8.8265 0.47117,13.22916 0.43442,3.3073 0.32004,6.98236 0.37605,10.31875 0.0282,1.68011 0.29477,4.09046 1.8674,5.09059 1.98279,1.26206 4.51681,-2.02671 5.80634,-3.16177 4.99718,-4.40002 9.47552,-10.10444 13.83003,-15.15798 18.14672,-21.05978 41.65547,-38.33125 66.33872,-50.92541 11.53874,-5.88725 24.22498,-10.25816 36.77708,-13.39612 4.52385,-1.13083 8.90049,-1.83515 13.75834,-2.52519 13.36053,-1.89781 26.70492,-3.70072 40.21666,-3.30173 37.25888,1.09987 74.972334,10.78971 107.156244,29.98496 19.09763,11.39058 35.16313017,25.79899 51.85834,40.27461 4.36033,3.78354 8.577791,7.73377 12.964581,11.48557 1.2409,1.06362 3.63537,3.66712 5.29431,3.57981 3.40784,-0.17727 3.72004,-3.14061 4.11692,-5.91609 0.89958,-6.27856 -0.15081,-12.99633 -0.15081,-19.31458 0,-8.36956 -0.77259,-16.77485 -0.77259,-25.13542 0,-11.42603 -0.20902,-22.73008 -1.2991,-34.13125 -0.48419,-5.05645 -0.93663,-10.03935 -1.55575,-15.08125 -0.35719,-2.89401 -0.80433,-6.21268 -2.45269,-8.73125 C 20.945575,99.209818 3.6285942,86.70958 -13.730716,75.00865 -20.091306,70.72081 -26.338116,66.19168 -33.045306,62.44941 -69.586906,42.063528 -110.23723,30.895466 -152.1078,31.452943"
           id="path365"
           sodipodi:nodetypes="csssssscsccsccsccccccsscccccc" />
        <path
           id="path436"
           style="fill:#f0d3b6;fill-opacity:1;stroke:none;stroke-width:0.264583px;stroke-linecap:butt;stroke-linejoin:miter;stroke-opacity:1"
           d="m -146.08684,41.157758 c -61.07491,0.6842 -119.18372,29.468172 -160.45842,76.418072 -8.00326,9.10369 -6.73222,10.53608 -6.6058,18.26194 0.12643,7.72586 0.38861,70.7161 0.38861,70.7161 79.49774,-89.7656 238.487281,-109.309401 338.473401,1.44022 -0.55244,-0.0335 -0.78632,-49.97673 -0.8046,-73.62032 -0.008,-10.39761 -3.04282,-15.60265 -8.15971,-20.98166 C -29.417639,64.86306 -88.713429,40.515025 -146.08684,41.157758 Z m 4.67104,11.108883 c 59.835061,-0.156392 117.520901,27.044548 157.754711,76.188629 l -1.16582,55.5625 C -70.331779,105.23828 -192.62831,93.648549 -303.04831,180.52083 v -50.89974 c 47.31829,-52.918673 105.42382,-77.207536 161.63251,-77.354449 z"
           sodipodi:nodetypes="sssccssssccccs" />
        <g
           aria-label="SECRETARY"
           transform="rotate(-115.22355,31.191836,462.99053)"
           id="text8150"
           style="font-size:41.0796px;line-height:1.25;font-family:Argentum;-inkscape-font-specification:Argentum;letter-spacing:0px;word-spacing:0px;fill:#f0d3b6;stroke-width:1.02699">
          <path
             d="m 459.94847,358.91809 0.33271,4.77532 q -5.66844,0.53075 -5.88227,4.97858 -0.10596,2.20387 0.97537,3.521 1.10136,1.31809 2.80436,1.39996 1.00176,0.0482 1.72419,-0.3589 0.72242,-0.40706 1.20654,-1.28746 0.50416,-0.87943 1.73266,-4.29448 1.09096,-3.0602 2.26225,-4.44976 1.17129,-1.38956 2.99585,-2.16535 1.84362,-0.75479 3.90726,-0.65558 2.40423,0.11559 4.2756,1.28996 1.87041,1.19441 2.75966,3.16499 0.88926,1.97058 0.75345,4.79555 -0.2042,4.24748 -2.62288,6.5209 -2.41868,2.27343 -6.71297,2.20755 l -0.0264,-4.88109 q 2.37957,-0.20691 3.37228,-1.2235 0.99271,-1.0166 1.0871,-2.98006 0.0944,-1.96345 -0.676,-3.06481 -0.77039,-1.10136 -1.99255,-1.16012 -1.20211,-0.0578 -2.06979,0.86441 -0.86768,0.9222 -2.01604,4.3411 -1.23814,3.6154 -2.49824,5.18143 -1.24103,1.58702 -3.14573,2.35896 -1.88466,0.7729 -4.52932,0.64576 -3.82673,-0.18398 -6.31765,-2.67336 -2.49189,-2.46934 -2.25109,-7.47815 0.42575,-8.85559 10.55164,-9.37285 z"
             style="font-weight:bold;font-stretch:condensed;font-family:Arial;-inkscape-font-specification:'Arial Bold Condensed'"
             id="path701" />
          <path
             d="m 449.01674,382.13495 29.09661,4.25178 -2.58703,17.70407 -4.92221,-0.71926 1.88517,-12.90095 -6.45048,-0.94258 -1.75175,11.98796 -4.90237,-0.71637 1.75176,-11.98796 -7.9192,-1.1572 -1.94897,13.3376 -4.90236,-0.71637 z"
             style="font-weight:bold;font-stretch:condensed;font-family:Arial;-inkscape-font-specification:'Arial Bold Condensed'"
             id="path703" />
          <path
             d="m 452.27558,421.9457 -2.92289,4.12404 q -4.51461,-2.2767 -6.10378,-5.32552 -1.56971,-3.04391 -0.65219,-6.68088 1.15302,-4.57053 5.38965,-6.52202 4.88914,-2.24198 11.79356,-0.50017 7.29339,1.83993 10.58739,6.167 2.85738,3.7618 1.64057,8.58517 -0.99112,3.92871 -4.34237,5.89668 -2.38194,1.40572 -6.3564,1.33398 l -0.18387,-5.01123 q 2.42729,0.13655 3.99112,-0.89633 1.57839,-1.00852 2.03469,-2.81728 0.65256,-2.58673 -1.19138,-4.7896 -1.84395,-2.20287 -7.03684,-3.51291 -5.38739,-1.3591 -8.06526,-0.33833 -2.67788,1.02076 -3.32063,3.56858 -0.47102,1.86711 0.62476,3.59163 1.11522,1.72942 4.11387,3.12719 z"
             style="font-weight:bold;font-stretch:condensed;font-family:Arial;-inkscape-font-specification:'Arial Bold Condensed'"
             id="path705" />
          <path
             d="m 439.36168,427.86137 27.58761,10.17911 -3.54811,9.61614 q -1.36092,3.68839 -2.6969,4.99138 -1.31716,1.30994 -3.5363,1.64567 -2.20032,0.34267 -4.75961,-0.60164 -3.23674,-1.19427 -4.63636,-3.48525 -1.40655,-2.27216 -0.85924,-5.32002 -1.59541,1.079 -3.21035,1.57352 -1.59613,0.50146 -5.4439,0.9632 l -6.39577,0.76164 2.00666,-5.43849 7.22508,-1.09705 q 3.91519,-0.58652 4.96045,-0.92777 1.06409,-0.33431 1.62903,-0.93831 0.58376,-0.59706 1.16701,-2.17779 l 0.34718,-0.94092 -11.51679,-4.24939 z m 14.23995,10.42819 -1.24982,3.38729 q -1.14567,3.10502 -1.19467,4.04905 -0.0302,0.95097 0.60341,1.7834 0.63359,0.83242 2.00732,1.33929 1.31728,0.48605 2.30207,0.25076 1.0036,-0.22834 1.63798,-1.02053 0.44308,-0.56344 1.57486,-3.63082 l 1.31926,-3.57547 z"
             style="font-weight:bold;font-stretch:condensed;font-family:Arial;-inkscape-font-specification:'Arial Bold Condensed'"
             id="path707" />
          <path
             d="m 430.66245,450.56971 26.4058,12.93925 -7.873,16.06682 -4.46701,-2.1889 5.73705,-11.70789 -5.85395,-2.86852 -5.33104,10.87933 -4.44899,-2.18008 5.33104,-10.87933 -7.18685,-3.52166 -5.93122,12.10415 -4.449,-2.18008 z"
             style="font-weight:bold;font-stretch:condensed;font-family:Arial;-inkscape-font-specification:'Arial Bold Condensed'"
             id="path709" />
          <path
             d="m 417.69531,475.24035 20.87148,12.69887 3.72208,-6.11751 4.2497,2.58565 -9.95684,16.36475 -4.24969,-2.58565 3.71166,-6.10036 -20.87149,-12.69888 z"
             style="font-weight:bold;font-stretch:condensed;font-family:Arial;-inkscape-font-specification:'Arial Bold Condensed'"
             id="path711" />
          <path
             d="m 398.11631,503.52705 3.15613,-4.25209 6.61871,2.28985 5.73842,-7.73107 -4.17988,-5.57556 3.0844,-4.15546 18.01703,25.06389 -3.07244,4.13935 z m 14.68562,-0.26564 10.73447,3.84598 -6.81322,-9.12888 z"
             style="font-weight:bold;font-stretch:condensed;font-family:Arial;-inkscape-font-specification:'Arial Bold Condensed'"
             id="path713" />
          <path
             d="m 396.38066,505.47126 21.72346,19.81871 -6.90816,7.57209 q -2.6497,2.90437 -4.37802,3.60834 -1.7135,0.71749 -3.8957,0.19282 -2.16738,-0.51115 -4.18266,-2.34972 -2.54872,-2.32526 -2.98257,-4.97465 -0.44735,-2.63458 1.20743,-5.25195 -1.8843,0.39876 -3.56658,0.24872 -1.66746,-0.13652 -5.40585,-1.15777 l -6.21176,-1.70295 3.90696,-4.28246 7.10633,1.70453 q 3.84784,0.93104 4.94466,1.00854 1.11165,0.091 1.86246,-0.25578 0.76562,-0.33327 1.90121,-1.57799 l 0.67595,-0.74091 -9.06873,-8.27357 z m 9.26461,15.02299 -2.4334,2.66727 q -2.23062,2.445 -2.63152,3.30109 -0.38607,0.8696 -0.1126,1.87934 0.27347,1.00974 1.3552,1.99662 1.03727,0.94632 2.03816,1.09921 1.01571,0.1664 1.90171,-0.32857 0.62264,-0.35511 2.82622,-2.77047 l 2.5686,-2.81546 z"
             style="font-weight:bold;font-stretch:condensed;font-family:Arial;-inkscape-font-specification:'Arial Bold Condensed'"
             id="path715" />
          <path
             d="m 375.95099,526.6057 8.28008,9.19818 17.95297,6.75206 -4.23385,3.81125 -12.00248,-4.84876 3.63915,12.37732 -4.15931,3.74415 -4.83104,-18.61822 -8.25324,-9.16837 z"
             style="font-weight:bold;font-stretch:condensed;font-family:Arial;-inkscape-font-specification:'Arial Bold Condensed'"
             id="path717" />
        </g>
      </g>
    </g>
  </g>
</svg>
