<?xml version="1.0" encoding="UTF-8" standalone="no"?>
<!-- Created with Inkscape (http://www.inkscape.org/) -->

<svg
   width="362.67117mm"
   height="197.29395mm"
   viewBox="0 0 362.67117 197.29395"
   version="1.1"
   id="svg378"
   sodipodi:docname="treasurer.svg"
   inkscape:version="1.2.1 (9c6d41e410, 2022-07-14)"
   xmlns:inkscape="http://www.inkscape.org/namespaces/inkscape"
   xmlns:sodipodi="http://sodipodi.sourceforge.net/DTD/sodipodi-0.dtd"
   xmlns="http://www.w3.org/2000/svg"
   xmlns:svg="http://www.w3.org/2000/svg">
  <sodipodi:namedview
     id="namedview380"
     pagecolor="#505050"
     bordercolor="#eeeeee"
     borderopacity="1"
     inkscape:showpageshadow="0"
     inkscape:pageopacity="0"
     inkscape:pagecheckerboard="0"
     inkscape:deskcolor="#505050"
     inkscape:document-units="mm"
     showgrid="false"
     inkscape:zoom="0.085119045"
     inkscape:cx="587.4126"
     inkscape:cy="-569.79022"
     inkscape:window-width="1377"
     inkscape:window-height="1259"
     inkscape:window-x="1804"
     inkscape:window-y="626"
     inkscape:window-maximized="0"
     inkscape:current-layer="layer1" />
  <defs
     id="defs375" />
  <g
     inkscape:label="Layer 1"
     inkscape:groupmode="layer"
     id="layer1"
     transform="translate(349.18874,-706.42648)">
    <g
       id="g10979"
       transform="translate(-1471.2463,577.58412)">
      <path
         style="fill:#241c17;stroke:none;stroke-width:0.264583"
         d="m 1293.4492,128.86227 c -51.5723,0.6866 -99.4286,22.56976 -137.8479,56.39197 -7.9002,6.95484 -15.5734,14.02979 -23.0188,21.47226 -3.1945,3.19325 -7.5994,6.30052 -9.4021,10.58333 -1.7715,4.20873 -0.9166,9.07071 -0.9166,13.49375 0,9.36652 0.2646,18.67588 0.2646,28.04583 0,12.82065 0.1949,25.58892 1.004,38.36459 0.2793,4.4106 -0.1067,8.8265 0.4712,13.22916 0.4344,3.3073 0.32,6.98236 0.376,10.31875 0.028,1.68011 0.2948,4.09046 1.8674,5.09059 1.9828,1.26206 4.5168,-2.02671 5.8064,-3.16177 4.9972,-4.40002 9.4755,-10.10444 13.83,-15.15798 18.1467,-21.05978 41.6555,-38.33125 66.3387,-50.92541 11.5388,-5.88725 24.225,-10.25816 36.7771,-13.39612 4.5238,-1.13083 8.9005,-1.83515 13.7583,-2.52519 13.3606,-1.89781 26.705,-3.70072 40.2167,-3.30173 37.2589,1.09987 74.9723,10.78971 107.1562,29.98496 19.0977,11.39058 35.1632,25.79899 51.8584,40.27461 4.3603,3.78354 8.5778,7.73377 12.9646,11.48557 1.2409,1.06362 3.6353,3.66712 5.2943,3.57981 3.4078,-0.17727 3.72,-3.14061 4.1169,-5.91609 0.8996,-6.27856 -0.1508,-12.99633 -0.1508,-19.31458 0,-8.36956 -0.7726,-16.77485 -0.7726,-25.13542 0,-11.42603 -0.209,-22.73008 -1.2991,-34.13125 -0.4842,-5.05645 -0.9366,-10.03935 -1.5558,-15.08125 -0.3571,-2.89401 -0.8043,-6.21268 -2.4526,-8.73125 -11.6311,-17.78026 -28.9481,-30.2805 -46.3074,-41.98143 -6.3606,-4.28784 -12.6074,-8.81697 -19.3146,-12.55924 -36.5416,-20.38588 -77.1919,-31.55394 -119.0625,-30.99647"
         id="path365-4-2"
         sodipodi:nodetypes="csssssscsccsccsccccccsscccccc" />
      <path
         id="path436-8-8"
         style="fill:#f0d3b6;fill-opacity:1;stroke:none;stroke-width:0.264583px;stroke-linecap:butt;stroke-linejoin:miter;stroke-opacity:1"
         d="m 1299.4702,138.56709 c -61.0749,0.6842 -119.1838,29.46817 -160.4585,76.41807 -8.0032,9.10369 -6.7322,10.53608 -6.6058,18.26194 0.1265,7.72586 0.3887,70.7161 0.3887,70.7161 79.4977,-89.7656 238.4872,-109.3094 338.4734,1.44022 -0.5525,-0.0335 -0.7864,-49.97673 -0.8046,-73.62032 -0.01,-10.39761 -3.0429,-15.60265 -8.1598,-20.98166 -46.1642,-48.52905 -105.46,-72.87708 -162.8334,-72.23435 z m 4.671,11.10888 c 59.8351,-0.15639 117.5209,27.04455 157.7547,76.18863 l -1.1658,55.5625 c -85.5049,-78.77949 -207.8014,-90.36922 -318.2214,-3.49694 v -50.89974 c 47.3183,-52.91867 105.4238,-77.20754 161.6325,-77.35445 z"
         sodipodi:nodetypes="sssccssssccccs" />
      <g
         aria-label="TREASURER"
         transform="rotate(-116.78911,786.50225,61.101116)"
         id="text8150-4-0-6-7-9-1-0"
         style="font-size:41.0796px;line-height:1.25;font-family:Argentum;-inkscape-font-specification:Argentum;letter-spacing:0px;word-spacing:0px;fill:#f0d3b6;stroke-width:1.02699">
        <path
           d="m 450.06014,365.10961 24.4075,1.07427 0.31488,-7.15392 4.96967,0.21873 -0.84231,19.13725 -4.96967,-0.21874 0.31399,-7.13388 -24.4075,-1.07427 z"
           style="font-weight:bold;font-stretch:condensed;font-family:Arial;-inkscape-font-specification:'Arial Bold Condensed'"
           id="path934" />
        <path
           d="m 449.24728,380.26334 29.11411,4.13021 -1.43965,10.14823 q -0.5522,3.89247 -1.58324,5.44798 -1.01118,1.55833 -3.10955,2.35465 -2.07851,0.79913 -4.77941,0.41598 -3.41584,-0.48458 -5.26726,-2.42875 -1.85423,-1.9243 -1.96221,-5.01902 -1.33188,1.39128 -2.80616,2.21535 -1.45441,0.8269 -5.11818,2.08996 l -6.09116,2.09374 0.8142,-5.73942 6.83105,-2.59655 q 3.70335,-1.39926 4.6531,-1.95334 0.96961,-0.55126 1.39442,-1.26085 0.44467,-0.70677 0.68133,-2.37497 l 0.14087,-0.99298 -12.15405,-1.7242 z m 16.11939,7.18948 -0.50712,3.57472 q -0.46486,3.27682 -0.3136,4.20995 0.17111,0.93594 0.96605,1.61597 0.79493,0.68003 2.24468,0.88569 1.39017,0.19721 2.30316,-0.24053 0.93284,-0.43492 1.38583,-1.3431 0.31424,-0.64423 0.77347,-3.88134 l 0.53529,-3.77332 z"
           style="font-weight:bold;font-stretch:condensed;font-family:Arial;-inkscape-font-specification:'Arial Bold Condensed'"
           id="path936" />
        <path
           d="m 445.53762,404.29646 28.54236,7.07277 -4.30349,17.36683 -4.82845,-1.19648 3.13595,-12.65521 -6.3276,-1.56797 -2.91402,11.7596 -4.80898,-1.19166 2.91402,-11.7596 -7.76835,-1.92499 -3.24209,13.08353 -4.80897,-1.19166 z"
           style="font-weight:bold;font-stretch:condensed;font-family:Arial;-inkscape-font-specification:'Arial Bold Condensed'"
           id="path938" />
        <path
           d="m 432.58061,446.50389 1.79204,-4.98298 6.99808,0.27855 3.25826,-9.05995 -5.61333,-4.12903 1.75131,-4.86973 24.49381,18.78471 -1.74452,4.85085 z m 13.98169,-4.50003 11.38797,0.57833 -9.1615,-6.7693 z"
           style="font-weight:bold;font-stretch:condensed;font-family:Arial;-inkscape-font-specification:'Arial Bold Condensed'"
           id="path940" />
        <path
           d="m 440.58447,451.85989 -1.5503,4.52891 q -5.42874,-1.71511 -7.35522,2.29956 -0.95457,1.98925 -0.47048,3.62319 0.50218,1.64261 2.03932,2.38023 0.90421,0.43389 1.72806,0.33976 0.82386,-0.0941 1.61221,-0.717 0.80644,-0.61419 3.26616,-3.28281 2.19502,-2.39518 3.81445,-3.21995 1.61943,-0.82477 3.60206,-0.83006 1.99204,0.0215 3.8547,0.91529 2.17009,1.04134 3.43756,2.85096 1.25879,1.82769 1.31184,3.98898 0.0531,2.16129 -1.17053,4.71115 -1.8397,3.83382 -4.95203,4.98788 -3.11234,1.15405 -7.04308,-0.57642 l 1.87362,-4.50724 q 2.27277,0.73464 3.58265,0.18404 1.30988,-0.5506 2.16031,-2.32284 0.85043,-1.77224 0.5689,-3.08649 -0.28152,-1.31425 -1.38465,-1.8436 -1.08504,-0.52067 -2.24303,-0.008 -1.15798,0.51224 -3.54537,3.21558 -2.5465,2.84946 -4.31637,3.80228 -1.76046,0.97958 -3.81543,0.95015 -2.03688,-0.0207 -4.42398,-1.16622 -3.45406,-1.65746 -4.78101,-4.91951 -1.33562,-3.24396 0.83384,-7.76498 3.8356,-7.99317 13.3658,-4.53242 z"
           style="font-weight:bold;font-stretch:condensed;font-family:Arial;-inkscape-font-specification:'Arial Bold Condensed'"
           id="path942" />
        <path
           d="m 446.62407,484.3136 -2.5338,4.14034 -13.58445,-8.31337 q -3.16514,-1.93699 -4.21747,-2.36934 -1.82708,-0.74187 -3.36206,-0.27026 -1.54546,0.48871 -2.58201,2.18249 -0.8795,1.43715 -0.8014,2.73132 0.0952,1.30464 1.02547,2.32074 0.93689,1.04368 4.68373,3.33667 l 13.8753,8.49136 -2.54427,4.15746 -13.17383,-8.06209 q -5.04712,-3.08872 -6.97044,-5.01827 -1.91669,-1.90198 -2.15742,-4.65962 -0.23409,-2.73007 1.66102,-5.82678 1.96841,-3.21646 4.22455,-4.3285 2.26277,-1.08445 4.85263,-0.62831 2.59649,0.48372 8.22531,3.92843 z"
           style="font-weight:bold;font-stretch:condensed;font-family:Arial;-inkscape-font-specification:'Arial Bold Condensed'"
           id="path944" />
        <path
           d="m 408.59324,489.62222 23.32884,17.90126 -6.2398,8.13168 q -2.39335,3.119 -4.0556,3.96727 -1.64634,0.86049 -3.86523,0.52313 -2.20298,-0.32514 -4.36718,-1.98584 -2.73708,-2.10028 -3.39447,-4.70323 -0.66959,-2.58704 0.75682,-5.33555 -1.8436,0.55742 -3.53255,0.55086 -1.67303,0.006 -5.48468,-0.69426 l -6.33399,-1.169 3.52897,-4.59893 7.22546,1.09456 q 3.91303,0.60073 5.01248,0.58476 1.11535,-0.004 1.83398,-0.4131 0.73454,-0.39712 1.76026,-1.73383 l 0.61055,-0.79567 -9.73892,-7.4731 z m 10.50756,14.18148 -2.19797,2.86438 q -2.01481,2.62569 -2.34152,3.51274 -0.31079,0.89926 0.0475,1.88212 0.35827,0.98285 1.51994,1.87425 1.11393,0.85477 2.12419,0.92206 1.02618,0.0795 1.86692,-0.48896 0.59022,-0.40673 2.5806,-3.0006 l 2.32009,-3.02352 z"
           style="font-weight:bold;font-stretch:condensed;font-family:Arial;-inkscape-font-specification:'Arial Bold Condensed'"
           id="path946" />
        <path
           d="m 393.55499,508.73222 21.40455,20.16271 -12.26817,13.02379 -3.62096,-3.41089 8.93981,-9.49042 -4.74521,-4.46991 -8.30715,8.8188 -3.60636,-3.39713 8.30715,-8.81879 -5.82566,-5.48767 -9.24239,9.81164 -3.60636,-3.39713 z"
           style="font-weight:bold;font-stretch:condensed;font-family:Arial;-inkscape-font-specification:'Arial Bold Condensed'"
           id="path948" />
        <path
           d="m 377.99663,524.95281 19.26371,22.2171 -7.74416,6.7147 q -2.97036,2.5755 -4.76899,3.07309 -1.78548,0.51275 -3.8916,-0.26285 -2.09297,-0.76045 -3.88006,-2.82152 -2.26013,-2.60665 -2.38201,-5.28856 -0.13703,-2.66877 1.81173,-5.07528 -1.91794,0.17627 -3.57124,-0.16895 -1.64017,-0.33007 -5.23393,-1.78037 l -5.97075,-2.41582 4.37977,-3.79755 6.85902,2.52172 q 3.713,1.37347 4.7933,1.57836 1.09344,0.22005 1.87957,-0.0368 0.79927,-0.2417 2.07229,-1.34548 l 0.75774,-0.65702 -8.04188,-9.27481 z m 7.44923,16.00101 -2.72789,2.36526 q -2.50056,2.16815 -2.99857,2.97163 -0.48486,0.81864 -0.33103,1.85339 0.15384,1.03474 1.11308,2.14105 0.91983,1.06084 1.89606,1.32942 0.98937,0.28373 1.92705,-0.10452 0.65981,-0.28007 3.13006,-2.42194 l 2.87943,-2.49666 z"
           style="font-weight:bold;font-stretch:condensed;font-family:Arial;-inkscape-font-specification:'Arial Bold Condensed'"
           id="path950" />
      </g>
    </g>
  </g>
</svg>
