<?xml version="1.0" encoding="UTF-8" standalone="no"?>
<!-- Created with Inkscape (http://www.inkscape.org/) -->

<svg
   width="362.67117mm"
   height="197.29395mm"
   viewBox="0 0 362.67117 197.29395"
   version="1.1"
   id="svg378"
   sodipodi:docname="webmaster.svg"
   inkscape:version="1.2.1 (9c6d41e410, 2022-07-14)"
   xmlns:inkscape="http://www.inkscape.org/namespaces/inkscape"
   xmlns:sodipodi="http://sodipodi.sourceforge.net/DTD/sodipodi-0.dtd"
   xmlns="http://www.w3.org/2000/svg"
   xmlns:svg="http://www.w3.org/2000/svg">
  <sodipodi:namedview
     id="namedview380"
     pagecolor="#505050"
     bordercolor="#eeeeee"
     borderopacity="1"
     inkscape:showpageshadow="0"
     inkscape:pageopacity="0"
     inkscape:pagecheckerboard="0"
     inkscape:deskcolor="#505050"
     inkscape:document-units="mm"
     showgrid="false"
     inkscape:zoom="0.085119045"
     inkscape:cx="587.4126"
     inkscape:cy="-569.79022"
     inkscape:window-width="1377"
     inkscape:window-height="1259"
     inkscape:window-x="1804"
     inkscape:window-y="626"
     inkscape:window-maximized="0"
     inkscape:current-layer="layer1" />
  <defs
     id="defs375" />
  <g
     inkscape:label="Layer 1"
     inkscape:groupmode="layer"
     id="layer1"
     transform="translate(349.18874,-706.42648)">
    <g
       id="g10986"
       transform="translate(-886.58767,691.87829)">
      <path
         style="fill:#241c17;stroke:none;stroke-width:0.264583"
         d="m 708.79055,14.568104 c -51.57232,0.686594 -99.42856,22.569752 -137.84792,56.391965 -7.90019,6.95484 -15.57337,14.029792 -23.01875,21.472262 -3.19457,3.19325 -7.59944,6.30052 -9.4021,10.583329 -1.77151,4.20873 -0.91665,9.07071 -0.91665,13.49375 0,9.36652 0.26459,18.67588 0.26459,28.04583 0,12.82065 0.19489,25.58892 1.00404,38.36459 0.27932,4.4106 -0.10676,8.8265 0.47117,13.22916 0.43442,3.3073 0.32004,6.98236 0.37605,10.31875 0.0282,1.68011 0.29477,4.09046 1.8674,5.09059 1.98279,1.26206 4.51681,-2.02671 5.80634,-3.16177 4.99718,-4.40002 9.47552,-10.10444 13.83003,-15.15798 18.14672,-21.05978 41.65547,-38.33125 66.33872,-50.92541 11.53874,-5.88725 24.22498,-10.25816 36.77708,-13.39612 4.52385,-1.13083 8.90049,-1.83515 13.75834,-2.52519 13.36053,-1.89781 26.70492,-3.70072 40.21666,-3.30173 37.25888,1.09987 74.97233,10.78971 107.15624,29.98496 19.09763,11.39058 35.16313,25.79899 51.85834,40.27461 4.36033,3.78354 8.57779,7.73377 12.96458,11.48557 1.2409,1.06362 3.63537,3.66712 5.29431,3.57981 3.40784,-0.17727 3.72004,-3.14061 4.11692,-5.91609 0.89958,-6.27856 -0.15081,-12.99633 -0.15081,-19.31458 0,-8.36956 -0.77259,-16.77485 -0.77259,-25.13542 0,-11.42603 -0.20902,-22.73008 -1.2991,-34.13125 -0.48419,-5.05645 -0.93663,-10.03935 -1.55575,-15.08125 -0.35719,-2.89401 -0.80433,-6.21268 -2.45269,-8.73125 -11.63107,-17.780261 -28.94806,-30.280499 -46.30737,-41.981429 -6.36059,-4.28784 -12.6074,-8.81697 -19.31459,-12.55924 C 791.31144,25.178689 750.66112,14.010627 708.79055,14.568104"
         id="path365-4"
         sodipodi:nodetypes="csssssscsccsccsccccccsscccccc" />
      <path
         id="path436-8"
         style="fill:#f0d3b6;fill-opacity:1;stroke:none;stroke-width:0.264583px;stroke-linecap:butt;stroke-linejoin:miter;stroke-opacity:1"
         d="m 714.81151,24.272919 c -61.07491,0.6842 -119.18372,29.468172 -160.45842,76.418071 -8.00326,9.10369 -6.73222,10.53608 -6.6058,18.26194 0.12643,7.72586 0.38861,70.7161 0.38861,70.7161 79.49774,-89.765599 238.48728,-109.3094 338.4734,1.44022 -0.55244,-0.0335 -0.78632,-49.97673 -0.8046,-73.62032 -0.008,-10.39761 -3.04282,-15.60265 -8.15971,-20.981659 C 831.48071,47.978221 772.18492,23.630186 714.81151,24.272919 Z m 4.67104,11.108883 c 59.83506,-0.156392 117.5209,27.044548 157.75471,76.188628 l -1.16582,55.5625 C 790.56657,88.353441 668.27004,76.76371 557.85004,163.63599 V 112.73625 C 605.16833,59.817578 663.27386,35.528715 719.48255,35.381802 Z"
         sodipodi:nodetypes="sssccssssccccs" />
      <g
         aria-label="WEBMASTER"
         transform="rotate(-118.09187,458.10385,188.02858)"
         id="text8150-4-0"
         style="font-size:41.0796px;line-height:1.25;font-family:Argentum;-inkscape-font-specification:Argentum;letter-spacing:0px;word-spacing:0px;fill:#f0d3b6;stroke-width:1.02699">
        <path
           d="m 450.32427,363.0959 29.72933,-3.74127 -0.34006,4.98295 -20.39776,2.22686 19.85148,5.77788 -0.39469,5.78342 -20.7803,2.82402 20.23948,5.10068 -0.33324,4.88289 -28.93858,-7.84559 0.35235,-5.16306 22.26076,-3.30603 -21.60795,-6.25963 z"
           style="font-weight:bold;font-stretch:condensed;font-family:Arial;-inkscape-font-specification:'Arial Bold Condensed'"
           id="path915" />
        <path
           d="m 447.83257,391.39299 28.90002,5.42949 -3.30362,17.58445 -4.88895,-0.91849 2.40734,-12.81379 -6.40689,-1.20367 -2.23698,11.90697 -4.86924,-0.91479 2.23698,-11.90697 -7.86569,-1.47774 -2.48882,13.24749 -4.86924,-0.91479 z"
           style="font-weight:bold;font-stretch:condensed;font-family:Arial;-inkscape-font-specification:'Arial Bold Condensed'"
           id="path917" />
        <path
           d="m 471.68244,421.77474 -2.73965,9.25094 q -1.12206,3.78885 -2.2701,5.12242 -1.14803,1.33357 -3.21148,1.87306 -2.06344,0.53949 -4.27521,-0.11552 -2.03867,-0.60375 -3.42498,-1.99752 -1.36709,-1.38807 -1.72845,-3.06405 -1.34028,1.84146 -3.45144,2.47142 -2.11685,0.64919 -4.65557,-0.10265 -3.07724,-0.91132 -4.7735,-3.02446 -1.67703,-2.10745 -1.57903,-4.27498 0.0696,-1.50651 1.58467,-6.62242 l 2.32955,-7.86619 z m -6.07116,3.26456 -6.51989,-1.93085 -0.91132,3.07723 q -0.82019,2.76952 -0.91768,3.45191 -0.16081,1.24939 0.44762,2.16175 0.62765,0.91806 2.03164,1.33385 1.25013,0.37022 2.18462,0.0403 0.94802,-0.30499 1.37387,-1.03657 0.42016,-0.71235 1.51374,-4.40504 z m -11.21268,-3.32061 -7.53923,-2.23273 -1.28154,4.32737 q -0.84297,2.84644 -0.7937,3.73965 0.0685,0.89891 0.77449,1.69373 0.71953,0.81975 2.06583,1.21846 1.38475,0.41009 2.44603,0.0759 1.07481,-0.30929 1.69224,-1.19333 0.63098,-0.85911 1.51952,-3.85942 z"
           style="font-weight:bold;font-stretch:condensed;font-family:Arial;-inkscape-font-specification:'Arial Bold Condensed'"
           id="path919" />
        <path
           d="m 436.43468,436.64776 27.05632,11.51718 -2.8518,6.69948 -20.16853,-3.83281 16.75895,11.84267 -2.85966,6.71794 -27.05632,-11.51718 1.76764,-4.15258 21.29809,9.06605 -19.42046,-13.477 1.83835,-4.31868 23.16001,4.69201 -21.29809,-9.06605 z"
           style="font-weight:bold;font-stretch:condensed;font-family:Arial;-inkscape-font-specification:'Arial Bold Condensed'"
           id="path921" />
        <path
           d="m 414.32074,481.28239 2.61547,-4.60443 6.8481,1.46776 4.75542,-8.37168 -4.82706,-5.02573 2.55604,-4.49977 20.93198,22.6862 -2.54612,4.48234 z m 14.54426,-2.05001 11.12258,2.5117 -7.87305,-8.23235 z"
           style="font-weight:bold;font-stretch:condensed;font-family:Arial;-inkscape-font-specification:'Arial Bold Condensed'"
           id="path923" />
        <path
           d="m 421.29884,487.91949 -2.2969,4.19984 q -5.05862,-2.61213 -7.63891,1.01705 -1.27852,1.79825 -1.07894,3.49066 0.21592,1.70404 1.60547,2.69198 0.81739,0.58115 1.64526,0.6283 0.82787,0.0472 1.71055,-0.43278 0.89903,-0.46832 3.77623,-2.68046 2.56989,-1.98761 4.30586,-2.52538 1.73598,-0.53778 3.69071,-0.20629 1.95945,0.35946 3.64327,1.55663 1.96172,1.39475 2.90346,3.39332 0.93012,2.01493 0.61535,4.15383 -0.31476,2.1389 -1.9536,4.44392 -2.46406,3.46571 -5.72717,4.07445 -3.26311,0.60874 -6.84288,-1.76413 l 2.61185,-4.12359 q 2.115,1.10994 3.49935,0.78979 1.38436,-0.32015 2.52341,-1.92222 1.13904,-1.60207 1.0848,-2.94504 -0.0542,-1.34297 -1.05144,-2.05197 -0.98087,-0.69737 -2.20902,-0.38922 -1.22816,0.30815 -4.03996,2.56677 -2.99342,2.37561 -4.89939,3.01402 -1.90125,0.66639 -3.92137,0.2884 -2.00377,-0.36636 -4.16167,-1.90058 -3.12241,-2.21998 -3.8761,-5.65999 -0.76532,-3.42366 2.14041,-7.51058 5.13734,-7.22568 13.94137,-2.19673 z"
           style="font-weight:bold;font-stretch:condensed;font-family:Arial;-inkscape-font-specification:'Arial Bold Condensed'"
           id="path925" />
        <path
           d="m 396.00266,505.64478 18.50993,15.94562 4.67371,-5.42533 3.76885,3.24673 -12.50251,14.51312 -3.76886,-3.24673 4.66063,-5.41012 -18.50993,-15.94562 z"
           style="font-weight:bold;font-stretch:condensed;font-family:Arial;-inkscape-font-specification:'Arial Bold Condensed'"
           id="path927" />
        <path
           d="m 385.95994,517.01746 20.40242,21.17621 -12.88484,12.41402 -3.45143,-3.58234 9.38917,-9.04609 -4.52304,-4.69458 -8.72471,8.4059 -3.43752,-3.56789 8.72471,-8.4059 -5.5529,-5.76351 -9.70697,9.35227 -3.43751,-3.56789 z"
           style="font-weight:bold;font-stretch:condensed;font-family:Arial;-inkscape-font-specification:'Arial Bold Condensed'"
           id="path929" />
        <path
           d="m 369.63404,532.46534 18.16326,23.12544 -8.06078,6.33112 q -3.09181,2.42838 -4.91245,2.83813 -1.80826,0.42552 -3.87427,-0.45134 -2.05362,-0.86108 -3.73862,-3.00642 -2.13102,-2.71321 -2.12265,-5.39788 -0.007,-2.67228 2.0558,-4.98142 -1.92423,0.083 -3.55884,-0.342 -1.62222,-0.40924 -5.1414,-2.03217 l -5.84653,-2.70262 4.55884,-3.58062 6.72862,2.85149 q 3.64199,1.55198 4.71108,1.80903 1.08148,0.27283 1.87915,0.0544 0.81005,-0.20264 2.13511,-1.24337 l 0.78873,-0.61949 -7.58248,-9.654 z m 6.66423,16.34354 -2.83941,2.23014 q -2.6028,2.04429 -3.1392,2.82267 -0.52401,0.79416 -0.42055,1.83515 0.10346,1.04099 1.00791,2.19253 0.86728,1.10421 1.82933,1.41983 0.97444,0.33139 1.92985,-0.0109 0.67262,-0.24773 3.24387,-2.26724 l 2.99716,-2.35404 z"
           style="font-weight:bold;font-stretch:condensed;font-family:Arial;-inkscape-font-specification:'Arial Bold Condensed'"
           id="path931" />
      </g>
    </g>
  </g>
</svg>
